STARTFONT 2.1
FONT -FontForge-Bm437 IBM ISO9-Normal-R-Normal--16-120-96-96-M-90-ISO8859-1
SIZE 12 96 96
FONTBOUNDINGBOX 9 16 0 -4
COMMENT "Generated by fontforge, http://fontforge.sourceforge.net"
COMMENT "FON conversion © 2015 VileR, license: CC BY-SA 4.0"
STARTPROPERTIES 33
FOUNDRY "FontForge"
FAMILY_NAME "Bm437 IBM ISO9"
WEIGHT_NAME "Normal"
SLANT "R"
SETWIDTH_NAME "Normal"
ADD_STYLE_NAME ""
PIXEL_SIZE 16
POINT_SIZE 120
RESOLUTION_X 96
RESOLUTION_Y 96
SPACING "M"
AVERAGE_WIDTH 90
CHARSET_REGISTRY "ISO8859"
CHARSET_ENCODING "1"
FONTNAME_REGISTRY ""
CHARSET_COLLECTIONS "ISOLatin1Encoding"
FONT_NAME "Bm437IBMISO9"
FACE_NAME "Bm437 IBM ISO9"
FONT_VERSION "001.000"
FONT_ASCENT 13
FONT_DESCENT 3
UNDERLINE_POSITION -2
UNDERLINE_THICKNESS 1
X_HEIGHT 6
CAP_HEIGHT 9
RAW_ASCENT 800
RAW_DESCENT 200
NORM_SPACE 9
RELATIVE_WEIGHT 40
RELATIVE_SETWIDTH 50
FIGURE_WIDTH 9
AVG_LOWERCASE_WIDTH 90
AVG_UPPERCASE_WIDTH 90
ENDPROPERTIES
CHARS 256
STARTCHAR uni0000
ENCODING 0
SWIDTH 562 0
DWIDTH 9 0
BBX 1 1 8 -4
BITMAP
00
ENDCHAR
STARTCHAR uni0001
ENCODING 1
SWIDTH 562 0
DWIDTH 9 0
BBX 7 10 0 0
BITMAP
7C
82
82
AA
82
82
BA
92
82
7C
ENDCHAR
STARTCHAR uni0002
ENCODING 2
SWIDTH 562 0
DWIDTH 9 0
BBX 7 10 0 0
BITMAP
7C
FE
FE
D6
FE
FE
C6
EE
FE
7C
ENDCHAR
STARTCHAR uni0003
ENCODING 3
SWIDTH 562 0
DWIDTH 9 0
BBX 7 6 0 1
BITMAP
6C
FE
FE
7C
38
10
ENDCHAR
STARTCHAR uni0004
ENCODING 4
SWIDTH 562 0
DWIDTH 9 0
BBX 7 7 0 1
BITMAP
10
38
7C
FE
7C
38
10
ENDCHAR
STARTCHAR uni0005
ENCODING 5
SWIDTH 562 0
DWIDTH 9 0
BBX 7 8 0 0
BITMAP
38
38
38
EE
EE
EE
10
38
ENDCHAR
STARTCHAR uni0006
ENCODING 6
SWIDTH 562 0
DWIDTH 9 0
BBX 7 8 0 0
BITMAP
10
38
7C
FE
FE
54
10
38
ENDCHAR
STARTCHAR uni0007
ENCODING 7
SWIDTH 562 0
DWIDTH 9 0
BBX 4 4 2 2
BITMAP
60
F0
F0
60
ENDCHAR
STARTCHAR uni0008
ENCODING 8
SWIDTH 562 0
DWIDTH 9 0
BBX 8 16 0 -4
BITMAP
FF
FF
FF
FF
FF
FF
E7
C3
C3
E7
FF
FF
FF
FF
FF
FF
ENDCHAR
STARTCHAR uni0009
ENCODING 9
SWIDTH 562 0
DWIDTH 9 0
BBX 6 6 1 1
BITMAP
78
CC
84
84
CC
78
ENDCHAR
STARTCHAR uni000A
ENCODING 10
SWIDTH 562 0
DWIDTH 9 0
BBX 8 16 0 -4
BITMAP
FF
FF
FF
FF
FF
C3
99
BD
BD
99
C3
FF
FF
FF
FF
FF
ENDCHAR
STARTCHAR uni000B
ENCODING 11
SWIDTH 562 0
DWIDTH 9 0
BBX 7 10 0 0
BITMAP
1E
06
0A
10
10
7C
82
82
82
7C
ENDCHAR
STARTCHAR uni000C
ENCODING 12
SWIDTH 562 0
DWIDTH 9 0
BBX 7 10 0 0
BITMAP
7C
82
82
82
7C
10
10
7C
10
10
ENDCHAR
STARTCHAR uni000D
ENCODING 13
SWIDTH 562 0
DWIDTH 9 0
BBX 7 10 0 0
BITMAP
1E
12
1E
10
10
10
10
F0
F0
E0
ENDCHAR
STARTCHAR uni000E
ENCODING 14
SWIDTH 562 0
DWIDTH 9 0
BBX 7 10 0 0
BITMAP
3E
22
3E
22
22
22
2E
EE
EC
C0
ENDCHAR
STARTCHAR uni000F
ENCODING 15
SWIDTH 562 0
DWIDTH 9 0
BBX 7 11 0 -1
BITMAP
10
92
7C
44
82
82
82
44
7C
92
10
ENDCHAR
STARTCHAR uni0010
ENCODING 16
SWIDTH 562 0
DWIDTH 9 0
BBX 5 7 0 0
BITMAP
C0
E0
F0
F8
F0
E0
C0
ENDCHAR
STARTCHAR uni0011
ENCODING 17
SWIDTH 562 0
DWIDTH 9 0
BBX 5 7 0 0
BITMAP
18
38
78
F8
78
38
18
ENDCHAR
STARTCHAR uni0012
ENCODING 18
SWIDTH 562 0
DWIDTH 9 0
BBX 7 10 0 0
BITMAP
10
38
54
92
10
10
92
54
38
10
ENDCHAR
STARTCHAR uni0013
ENCODING 19
SWIDTH 562 0
DWIDTH 9 0
BBX 5 10 1 0
BITMAP
88
88
88
88
88
88
88
00
88
88
ENDCHAR
STARTCHAR uni0014
ENCODING 20
SWIDTH 562 0
DWIDTH 9 0
BBX 7 10 0 0
BITMAP
7E
F2
F2
F2
72
12
12
12
12
12
ENDCHAR
STARTCHAR uni0015
ENCODING 21
SWIDTH 562 0
DWIDTH 9 0
BBX 6 12 0 -1
BITMAP
78
84
40
30
48
84
84
48
30
08
84
78
ENDCHAR
STARTCHAR uni0016
ENCODING 22
SWIDTH 562 0
DWIDTH 9 0
BBX 7 4 0 0
BITMAP
FE
FE
FE
FE
ENDCHAR
STARTCHAR uni0017
ENCODING 23
SWIDTH 562 0
DWIDTH 9 0
BBX 7 10 0 0
BITMAP
10
38
54
92
10
10
92
54
38
FE
ENDCHAR
STARTCHAR uni0018
ENCODING 24
SWIDTH 562 0
DWIDTH 9 0
BBX 7 10 0 0
BITMAP
10
38
54
92
10
10
10
10
10
10
ENDCHAR
STARTCHAR uni0019
ENCODING 25
SWIDTH 562 0
DWIDTH 9 0
BBX 7 10 0 0
BITMAP
10
10
10
10
10
10
92
54
38
10
ENDCHAR
STARTCHAR uni001A
ENCODING 26
SWIDTH 562 0
DWIDTH 9 0
BBX 7 7 0 1
BITMAP
10
08
04
FE
04
08
10
ENDCHAR
STARTCHAR uni001B
ENCODING 27
SWIDTH 562 0
DWIDTH 9 0
BBX 7 7 0 1
BITMAP
10
20
40
FE
40
20
10
ENDCHAR
STARTCHAR uni001C
ENCODING 28
SWIDTH 562 0
DWIDTH 9 0
BBX 7 4 0 2
BITMAP
80
80
80
FE
ENDCHAR
STARTCHAR uni001D
ENCODING 29
SWIDTH 562 0
DWIDTH 9 0
BBX 8 5 0 2
BITMAP
24
42
FF
42
24
ENDCHAR
STARTCHAR uni001E
ENCODING 30
SWIDTH 562 0
DWIDTH 9 0
BBX 7 5 0 2
BITMAP
10
38
7C
FE
FE
ENDCHAR
STARTCHAR uni001F
ENCODING 31
SWIDTH 562 0
DWIDTH 9 0
BBX 7 5 0 2
BITMAP
FE
FE
7C
38
10
ENDCHAR
STARTCHAR space
ENCODING 32
SWIDTH 562 0
DWIDTH 9 0
BBX 1 1 8 -4
BITMAP
00
ENDCHAR
STARTCHAR exclam
ENCODING 33
SWIDTH 562 0
DWIDTH 9 0
BBX 1 10 3 0
BITMAP
80
80
80
80
80
80
80
00
80
80
ENDCHAR
STARTCHAR quotedbl
ENCODING 34
SWIDTH 562 0
DWIDTH 9 0
BBX 4 4 1 7
BITMAP
90
90
90
90
ENDCHAR
STARTCHAR numbersign
ENCODING 35
SWIDTH 562 0
DWIDTH 9 0
BBX 7 9 0 0
BITMAP
44
44
FE
44
44
44
FE
44
44
ENDCHAR
STARTCHAR dollar
ENCODING 36
SWIDTH 562 0
DWIDTH 9 0
BBX 7 13 0 -2
BITMAP
10
10
7C
92
90
80
7C
02
12
92
7C
10
10
ENDCHAR
STARTCHAR percent
ENCODING 37
SWIDTH 562 0
DWIDTH 9 0
BBX 7 9 0 0
BITMAP
60
F2
64
08
10
20
4C
9E
0C
ENDCHAR
STARTCHAR ampersand
ENCODING 38
SWIDTH 562 0
DWIDTH 9 0
BBX 7 10 0 0
BITMAP
30
48
48
48
32
4A
84
84
84
7A
ENDCHAR
STARTCHAR quotesingle
ENCODING 39
SWIDTH 562 0
DWIDTH 9 0
BBX 2 4 2 7
BITMAP
40
40
40
80
ENDCHAR
STARTCHAR parenleft
ENCODING 40
SWIDTH 562 0
DWIDTH 9 0
BBX 3 10 2 0
BITMAP
20
40
80
80
80
80
80
80
40
20
ENDCHAR
STARTCHAR parenright
ENCODING 41
SWIDTH 562 0
DWIDTH 9 0
BBX 3 10 2 0
BITMAP
80
40
20
20
20
20
20
20
40
80
ENDCHAR
STARTCHAR asterisk
ENCODING 42
SWIDTH 562 0
DWIDTH 9 0
BBX 7 7 0 1
BITMAP
10
54
38
FE
38
54
10
ENDCHAR
STARTCHAR plus
ENCODING 43
SWIDTH 562 0
DWIDTH 9 0
BBX 7 7 0 1
BITMAP
10
10
10
FE
10
10
10
ENDCHAR
STARTCHAR comma
ENCODING 44
SWIDTH 562 0
DWIDTH 9 0
BBX 2 4 2 -2
BITMAP
40
40
40
80
ENDCHAR
STARTCHAR hyphen
ENCODING 45
SWIDTH 562 0
DWIDTH 9 0
BBX 7 1 0 4
BITMAP
FE
ENDCHAR
STARTCHAR period
ENCODING 46
SWIDTH 562 0
DWIDTH 9 0
BBX 2 2 2 0
BITMAP
C0
C0
ENDCHAR
STARTCHAR slash
ENCODING 47
SWIDTH 562 0
DWIDTH 9 0
BBX 7 7 0 0
BITMAP
02
04
08
10
20
40
80
ENDCHAR
STARTCHAR zero
ENCODING 48
SWIDTH 562 0
DWIDTH 9 0
BBX 7 10 0 0
BITMAP
38
44
82
82
92
92
82
82
44
38
ENDCHAR
STARTCHAR one
ENCODING 49
SWIDTH 562 0
DWIDTH 9 0
BBX 5 10 1 0
BITMAP
20
60
A0
20
20
20
20
20
20
F8
ENDCHAR
STARTCHAR two
ENCODING 50
SWIDTH 562 0
DWIDTH 9 0
BBX 7 10 0 0
BITMAP
7C
82
02
02
04
08
10
20
40
FE
ENDCHAR
STARTCHAR three
ENCODING 51
SWIDTH 562 0
DWIDTH 9 0
BBX 7 10 0 0
BITMAP
7C
82
02
02
3C
02
02
02
82
7C
ENDCHAR
STARTCHAR four
ENCODING 52
SWIDTH 562 0
DWIDTH 9 0
BBX 7 10 0 0
BITMAP
04
0C
14
24
44
84
FE
04
04
04
ENDCHAR
STARTCHAR five
ENCODING 53
SWIDTH 562 0
DWIDTH 9 0
BBX 7 10 0 0
BITMAP
FE
80
80
80
FC
82
02
02
82
7C
ENDCHAR
STARTCHAR six
ENCODING 54
SWIDTH 562 0
DWIDTH 9 0
BBX 7 10 0 0
BITMAP
7C
80
80
80
FC
82
82
82
82
7C
ENDCHAR
STARTCHAR seven
ENCODING 55
SWIDTH 562 0
DWIDTH 9 0
BBX 7 10 0 0
BITMAP
FE
02
02
04
08
10
10
10
10
10
ENDCHAR
STARTCHAR eight
ENCODING 56
SWIDTH 562 0
DWIDTH 9 0
BBX 7 10 0 0
BITMAP
7C
82
82
44
7C
82
82
82
82
7C
ENDCHAR
STARTCHAR nine
ENCODING 57
SWIDTH 562 0
DWIDTH 9 0
BBX 7 10 0 0
BITMAP
7C
82
82
82
82
7E
02
02
02
7C
ENDCHAR
STARTCHAR colon
ENCODING 58
SWIDTH 562 0
DWIDTH 9 0
BBX 1 7 3 0
BITMAP
80
80
00
00
00
80
80
ENDCHAR
STARTCHAR semicolon
ENCODING 59
SWIDTH 562 0
DWIDTH 9 0
BBX 2 9 2 -2
BITMAP
40
40
00
00
00
40
40
40
80
ENDCHAR
STARTCHAR less
ENCODING 60
SWIDTH 562 0
DWIDTH 9 0
BBX 5 9 1 0
BITMAP
08
10
20
40
80
40
20
10
08
ENDCHAR
STARTCHAR equal
ENCODING 61
SWIDTH 562 0
DWIDTH 9 0
BBX 7 4 0 3
BITMAP
FE
00
00
FE
ENDCHAR
STARTCHAR greater
ENCODING 62
SWIDTH 562 0
DWIDTH 9 0
BBX 5 9 1 0
BITMAP
80
40
20
10
08
10
20
40
80
ENDCHAR
STARTCHAR question
ENCODING 63
SWIDTH 562 0
DWIDTH 9 0
BBX 7 10 0 0
BITMAP
7C
82
82
02
0C
10
10
00
10
10
ENDCHAR
STARTCHAR at
ENCODING 64
SWIDTH 562 0
DWIDTH 9 0
BBX 7 10 0 0
BITMAP
7C
82
82
BA
AA
AA
9C
80
80
7C
ENDCHAR
STARTCHAR A
ENCODING 65
SWIDTH 562 0
DWIDTH 9 0
BBX 7 10 0 0
BITMAP
38
44
82
82
82
FE
82
82
82
82
ENDCHAR
STARTCHAR B
ENCODING 66
SWIDTH 562 0
DWIDTH 9 0
BBX 7 10 0 0
BITMAP
FC
82
82
82
FC
82
82
82
82
FC
ENDCHAR
STARTCHAR C
ENCODING 67
SWIDTH 562 0
DWIDTH 9 0
BBX 7 10 0 0
BITMAP
7C
82
80
80
80
80
80
82
82
7C
ENDCHAR
STARTCHAR D
ENCODING 68
SWIDTH 562 0
DWIDTH 9 0
BBX 7 10 0 0
BITMAP
F8
84
82
82
82
82
82
82
84
F8
ENDCHAR
STARTCHAR E
ENCODING 69
SWIDTH 562 0
DWIDTH 9 0
BBX 7 10 0 0
BITMAP
FE
80
80
80
FC
80
80
80
80
FE
ENDCHAR
STARTCHAR F
ENCODING 70
SWIDTH 562 0
DWIDTH 9 0
BBX 7 10 0 0
BITMAP
FE
80
80
80
FC
80
80
80
80
80
ENDCHAR
STARTCHAR G
ENCODING 71
SWIDTH 562 0
DWIDTH 9 0
BBX 7 10 0 0
BITMAP
7C
82
80
80
9E
82
82
82
82
7E
ENDCHAR
STARTCHAR H
ENCODING 72
SWIDTH 562 0
DWIDTH 9 0
BBX 7 10 0 0
BITMAP
82
82
82
82
FE
82
82
82
82
82
ENDCHAR
STARTCHAR I
ENCODING 73
SWIDTH 562 0
DWIDTH 9 0
BBX 5 10 1 0
BITMAP
F8
20
20
20
20
20
20
20
20
F8
ENDCHAR
STARTCHAR J
ENCODING 74
SWIDTH 562 0
DWIDTH 9 0
BBX 7 10 0 0
BITMAP
3E
04
04
04
04
04
04
04
84
78
ENDCHAR
STARTCHAR K
ENCODING 75
SWIDTH 562 0
DWIDTH 9 0
BBX 7 10 0 0
BITMAP
84
88
90
A0
C0
A0
90
88
84
82
ENDCHAR
STARTCHAR L
ENCODING 76
SWIDTH 562 0
DWIDTH 9 0
BBX 7 10 0 0
BITMAP
80
80
80
80
80
80
80
80
80
FE
ENDCHAR
STARTCHAR M
ENCODING 77
SWIDTH 562 0
DWIDTH 9 0
BBX 7 10 0 0
BITMAP
82
C6
AA
92
92
82
82
82
82
82
ENDCHAR
STARTCHAR N
ENCODING 78
SWIDTH 562 0
DWIDTH 9 0
BBX 7 10 0 0
BITMAP
82
C2
A2
92
8A
86
82
82
82
82
ENDCHAR
STARTCHAR O
ENCODING 79
SWIDTH 562 0
DWIDTH 9 0
BBX 7 10 0 0
BITMAP
7C
82
82
82
82
82
82
82
82
7C
ENDCHAR
STARTCHAR P
ENCODING 80
SWIDTH 562 0
DWIDTH 9 0
BBX 7 10 0 0
BITMAP
FC
82
82
82
FC
80
80
80
80
80
ENDCHAR
STARTCHAR Q
ENCODING 81
SWIDTH 562 0
DWIDTH 9 0
BBX 7 12 0 -2
BITMAP
7C
82
82
82
82
82
92
92
92
7C
08
04
ENDCHAR
STARTCHAR R
ENCODING 82
SWIDTH 562 0
DWIDTH 9 0
BBX 7 10 0 0
BITMAP
FC
82
82
82
FC
84
82
82
82
82
ENDCHAR
STARTCHAR S
ENCODING 83
SWIDTH 562 0
DWIDTH 9 0
BBX 7 10 0 0
BITMAP
7C
82
80
60
30
0C
02
82
82
7C
ENDCHAR
STARTCHAR T
ENCODING 84
SWIDTH 562 0
DWIDTH 9 0
BBX 7 10 0 0
BITMAP
FE
10
10
10
10
10
10
10
10
10
ENDCHAR
STARTCHAR U
ENCODING 85
SWIDTH 562 0
DWIDTH 9 0
BBX 7 10 0 0
BITMAP
82
82
82
82
82
82
82
82
82
7C
ENDCHAR
STARTCHAR V
ENCODING 86
SWIDTH 562 0
DWIDTH 9 0
BBX 7 10 0 0
BITMAP
82
82
82
82
82
82
82
44
28
10
ENDCHAR
STARTCHAR W
ENCODING 87
SWIDTH 562 0
DWIDTH 9 0
BBX 7 10 0 0
BITMAP
82
82
82
82
82
92
92
92
AA
44
ENDCHAR
STARTCHAR X
ENCODING 88
SWIDTH 562 0
DWIDTH 9 0
BBX 7 10 0 0
BITMAP
82
82
44
28
10
28
44
82
82
82
ENDCHAR
STARTCHAR Y
ENCODING 89
SWIDTH 562 0
DWIDTH 9 0
BBX 7 10 0 0
BITMAP
82
82
82
44
28
10
10
10
10
10
ENDCHAR
STARTCHAR Z
ENCODING 90
SWIDTH 562 0
DWIDTH 9 0
BBX 7 10 0 0
BITMAP
FE
02
04
08
10
20
40
80
80
FE
ENDCHAR
STARTCHAR bracketleft
ENCODING 91
SWIDTH 562 0
DWIDTH 9 0
BBX 3 10 2 0
BITMAP
E0
80
80
80
80
80
80
80
80
E0
ENDCHAR
STARTCHAR backslash
ENCODING 92
SWIDTH 562 0
DWIDTH 9 0
BBX 7 7 0 0
BITMAP
80
40
20
10
08
04
02
ENDCHAR
STARTCHAR bracketright
ENCODING 93
SWIDTH 562 0
DWIDTH 9 0
BBX 3 10 2 0
BITMAP
E0
20
20
20
20
20
20
20
20
E0
ENDCHAR
STARTCHAR asciicircum
ENCODING 94
SWIDTH 562 0
DWIDTH 9 0
BBX 7 4 0 8
BITMAP
10
28
44
82
ENDCHAR
STARTCHAR underscore
ENCODING 95
SWIDTH 562 0
DWIDTH 9 0
BBX 7 1 0 -2
BITMAP
FE
ENDCHAR
STARTCHAR grave
ENCODING 96
SWIDTH 562 0
DWIDTH 9 0
BBX 2 4 2 7
BITMAP
80
80
80
40
ENDCHAR
STARTCHAR a
ENCODING 97
SWIDTH 562 0
DWIDTH 9 0
BBX 7 7 0 0
BITMAP
78
04
04
7C
84
84
7E
ENDCHAR
STARTCHAR b
ENCODING 98
SWIDTH 562 0
DWIDTH 9 0
BBX 7 10 0 0
BITMAP
80
80
80
BC
C2
82
82
82
82
FC
ENDCHAR
STARTCHAR c
ENCODING 99
SWIDTH 562 0
DWIDTH 9 0
BBX 7 7 0 0
BITMAP
7C
82
80
80
80
82
7C
ENDCHAR
STARTCHAR d
ENCODING 100
SWIDTH 562 0
DWIDTH 9 0
BBX 7 10 0 0
BITMAP
02
02
02
7A
86
82
82
82
82
7E
ENDCHAR
STARTCHAR e
ENCODING 101
SWIDTH 562 0
DWIDTH 9 0
BBX 7 7 0 0
BITMAP
7C
82
82
FE
80
80
7C
ENDCHAR
STARTCHAR f
ENCODING 102
SWIDTH 562 0
DWIDTH 9 0
BBX 6 10 0 0
BITMAP
1C
20
20
F8
20
20
20
20
20
20
ENDCHAR
STARTCHAR g
ENCODING 103
SWIDTH 562 0
DWIDTH 9 0
BBX 7 10 0 -3
BITMAP
7E
82
82
82
82
86
7A
02
02
7C
ENDCHAR
STARTCHAR h
ENCODING 104
SWIDTH 562 0
DWIDTH 9 0
BBX 7 10 0 0
BITMAP
80
80
80
BC
C2
82
82
82
82
82
ENDCHAR
STARTCHAR i
ENCODING 105
SWIDTH 562 0
DWIDTH 9 0
BBX 5 10 1 0
BITMAP
20
20
00
E0
20
20
20
20
20
F8
ENDCHAR
STARTCHAR j
ENCODING 106
SWIDTH 562 0
DWIDTH 9 0
BBX 4 13 1 -3
BITMAP
10
10
00
70
10
10
10
10
10
10
10
10
E0
ENDCHAR
STARTCHAR k
ENCODING 107
SWIDTH 562 0
DWIDTH 9 0
BBX 7 10 0 0
BITMAP
80
80
80
86
98
E0
90
88
84
82
ENDCHAR
STARTCHAR l
ENCODING 108
SWIDTH 562 0
DWIDTH 9 0
BBX 5 10 1 0
BITMAP
C0
40
40
40
40
40
40
40
40
38
ENDCHAR
STARTCHAR m
ENCODING 109
SWIDTH 562 0
DWIDTH 9 0
BBX 7 7 0 0
BITMAP
EC
92
92
92
92
92
92
ENDCHAR
STARTCHAR n
ENCODING 110
SWIDTH 562 0
DWIDTH 9 0
BBX 7 7 0 0
BITMAP
BC
C2
82
82
82
82
82
ENDCHAR
STARTCHAR o
ENCODING 111
SWIDTH 562 0
DWIDTH 9 0
BBX 7 7 0 0
BITMAP
7C
82
82
82
82
82
7C
ENDCHAR
STARTCHAR p
ENCODING 112
SWIDTH 562 0
DWIDTH 9 0
BBX 7 10 0 -3
BITMAP
BC
C2
82
82
82
C2
BC
80
80
80
ENDCHAR
STARTCHAR q
ENCODING 113
SWIDTH 562 0
DWIDTH 9 0
BBX 7 10 0 -3
BITMAP
7E
82
82
82
82
86
7A
02
02
02
ENDCHAR
STARTCHAR r
ENCODING 114
SWIDTH 562 0
DWIDTH 9 0
BBX 7 7 0 0
BITMAP
BC
C2
80
80
80
80
80
ENDCHAR
STARTCHAR s
ENCODING 115
SWIDTH 562 0
DWIDTH 9 0
BBX 7 7 0 0
BITMAP
7E
80
80
7C
02
02
FC
ENDCHAR
STARTCHAR t
ENCODING 116
SWIDTH 562 0
DWIDTH 9 0
BBX 6 9 0 0
BITMAP
20
20
FC
20
20
20
20
20
1C
ENDCHAR
STARTCHAR u
ENCODING 117
SWIDTH 562 0
DWIDTH 9 0
BBX 7 7 0 0
BITMAP
82
82
82
82
82
86
7A
ENDCHAR
STARTCHAR v
ENCODING 118
SWIDTH 562 0
DWIDTH 9 0
BBX 7 7 0 0
BITMAP
82
82
82
82
44
28
10
ENDCHAR
STARTCHAR w
ENCODING 119
SWIDTH 562 0
DWIDTH 9 0
BBX 7 7 0 0
BITMAP
82
82
82
92
92
92
6C
ENDCHAR
STARTCHAR x
ENCODING 120
SWIDTH 562 0
DWIDTH 9 0
BBX 7 7 0 0
BITMAP
82
44
28
10
28
44
82
ENDCHAR
STARTCHAR y
ENCODING 121
SWIDTH 562 0
DWIDTH 9 0
BBX 7 10 0 -3
BITMAP
82
82
82
82
82
86
7A
02
02
7C
ENDCHAR
STARTCHAR z
ENCODING 122
SWIDTH 562 0
DWIDTH 9 0
BBX 7 7 0 0
BITMAP
FE
04
08
10
20
40
FE
ENDCHAR
STARTCHAR braceleft
ENCODING 123
SWIDTH 562 0
DWIDTH 9 0
BBX 5 10 1 0
BITMAP
18
20
20
20
C0
20
20
20
20
18
ENDCHAR
STARTCHAR bar
ENCODING 124
SWIDTH 562 0
DWIDTH 9 0
BBX 1 14 3 -3
BITMAP
80
80
80
80
80
80
80
80
80
80
80
80
80
80
ENDCHAR
STARTCHAR braceright
ENCODING 125
SWIDTH 562 0
DWIDTH 9 0
BBX 5 10 1 0
BITMAP
C0
20
20
20
18
20
20
20
20
C0
ENDCHAR
STARTCHAR asciitilde
ENCODING 126
SWIDTH 562 0
DWIDTH 9 0
BBX 7 3 0 7
BITMAP
62
92
8C
ENDCHAR
STARTCHAR uni007F
ENCODING 127
SWIDTH 562 0
DWIDTH 9 0
BBX 7 7 0 0
BITMAP
10
28
44
82
82
82
FE
ENDCHAR
STARTCHAR uni00A0
ENCODING 160
SWIDTH 562 0
DWIDTH 9 0
BBX 7 11 0 0
BITMAP
08
10
20
00
7C
02
02
7E
82
82
7E
ENDCHAR
STARTCHAR exclamdown
ENCODING 161
SWIDTH 562 0
DWIDTH 9 0
BBX 5 11 1 0
BITMAP
10
20
40
00
E0
20
20
20
20
20
F8
ENDCHAR
STARTCHAR cent
ENCODING 162
SWIDTH 562 0
DWIDTH 9 0
BBX 7 11 0 0
BITMAP
08
10
20
00
7C
82
82
82
82
82
7C
ENDCHAR
STARTCHAR sterling
ENCODING 163
SWIDTH 562 0
DWIDTH 9 0
BBX 7 11 0 0
BITMAP
08
10
20
00
82
82
82
82
82
86
7A
ENDCHAR
STARTCHAR currency
ENCODING 164
SWIDTH 562 0
DWIDTH 9 0
BBX 7 11 0 0
BITMAP
64
98
00
00
BC
C2
82
82
82
82
82
ENDCHAR
STARTCHAR yen
ENCODING 165
SWIDTH 562 0
DWIDTH 9 0
BBX 7 12 0 0
BITMAP
64
98
00
82
C2
A2
92
8A
86
82
82
82
ENDCHAR
STARTCHAR brokenbar
ENCODING 166
SWIDTH 562 0
DWIDTH 9 0
BBX 5 7 1 4
BITMAP
70
08
78
88
78
00
F8
ENDCHAR
STARTCHAR section
ENCODING 167
SWIDTH 562 0
DWIDTH 9 0
BBX 5 7 1 4
BITMAP
70
88
88
88
70
00
F8
ENDCHAR
STARTCHAR dieresis
ENCODING 168
SWIDTH 562 0
DWIDTH 9 0
BBX 7 10 0 0
BITMAP
10
10
00
10
10
60
80
82
82
7C
ENDCHAR
STARTCHAR copyright
ENCODING 169
SWIDTH 562 0
DWIDTH 9 0
BBX 6 5 0 1
BITMAP
FC
80
80
80
80
ENDCHAR
STARTCHAR ordfeminine
ENCODING 170
SWIDTH 562 0
DWIDTH 9 0
BBX 6 5 0 1
BITMAP
FC
04
04
04
04
ENDCHAR
STARTCHAR guillemotleft
ENCODING 171
SWIDTH 562 0
DWIDTH 9 0
BBX 6 13 0 -2
BITMAP
80
80
84
88
90
20
40
80
38
04
08
10
3C
ENDCHAR
STARTCHAR logicalnot
ENCODING 172
SWIDTH 562 0
DWIDTH 9 0
BBX 6 13 0 -2
BITMAP
80
80
80
84
88
10
20
44
8C
14
3C
04
04
ENDCHAR
STARTCHAR uni00AD
ENCODING 173
SWIDTH 562 0
DWIDTH 9 0
BBX 1 10 3 0
BITMAP
80
80
00
80
80
80
80
80
80
80
ENDCHAR
STARTCHAR registered
ENCODING 174
SWIDTH 562 0
DWIDTH 9 0
BBX 6 5 0 2
BITMAP
24
48
90
48
24
ENDCHAR
STARTCHAR macron
ENCODING 175
SWIDTH 562 0
DWIDTH 9 0
BBX 6 5 0 2
BITMAP
90
48
24
48
90
ENDCHAR
STARTCHAR degree
ENCODING 176
SWIDTH 562 0
DWIDTH 9 0
BBX 7 16 1 -4
BITMAP
22
88
22
88
22
88
22
88
22
88
22
88
22
88
22
88
ENDCHAR
STARTCHAR plusminus
ENCODING 177
SWIDTH 562 0
DWIDTH 9 0
BBX 8 16 0 -4
BITMAP
55
AA
55
AA
55
AA
55
AA
55
AA
55
AA
55
AA
55
AA
ENDCHAR
STARTCHAR uni00B2
ENCODING 178
SWIDTH 562 0
DWIDTH 9 0
BBX 8 16 0 -4
BITMAP
DD
77
DD
77
DD
77
DD
77
DD
77
DD
77
DD
77
DD
77
ENDCHAR
STARTCHAR uni00B3
ENCODING 179
SWIDTH 562 0
DWIDTH 9 0
BBX 1 16 4 -4
BITMAP
80
80
80
80
80
80
80
80
80
80
80
80
80
80
80
80
ENDCHAR
STARTCHAR acute
ENCODING 180
SWIDTH 562 0
DWIDTH 9 0
BBX 5 16 0 -4
BITMAP
08
08
08
08
08
08
08
F8
08
08
08
08
08
08
08
08
ENDCHAR
STARTCHAR uni00B5
ENCODING 181
SWIDTH 562 0
DWIDTH 9 0
BBX 5 16 0 -4
BITMAP
08
08
08
08
08
F8
08
F8
08
08
08
08
08
08
08
08
ENDCHAR
STARTCHAR paragraph
ENCODING 182
SWIDTH 562 0
DWIDTH 9 0
BBX 6 16 0 -4
BITMAP
24
24
24
24
24
24
24
E4
24
24
24
24
24
24
24
24
ENDCHAR
STARTCHAR periodcentered
ENCODING 183
SWIDTH 562 0
DWIDTH 9 0
BBX 6 9 0 -4
BITMAP
FC
24
24
24
24
24
24
24
24
ENDCHAR
STARTCHAR cedilla
ENCODING 184
SWIDTH 562 0
DWIDTH 9 0
BBX 5 11 0 -4
BITMAP
F8
08
F8
08
08
08
08
08
08
08
08
ENDCHAR
STARTCHAR uni00B9
ENCODING 185
SWIDTH 562 0
DWIDTH 9 0
BBX 6 16 0 -4
BITMAP
24
24
24
24
24
E4
04
E4
24
24
24
24
24
24
24
24
ENDCHAR
STARTCHAR ordmasculine
ENCODING 186
SWIDTH 562 0
DWIDTH 9 0
BBX 4 16 2 -4
BITMAP
90
90
90
90
90
90
90
90
90
90
90
90
90
90
90
90
ENDCHAR
STARTCHAR guillemotright
ENCODING 187
SWIDTH 562 0
DWIDTH 9 0
BBX 6 11 0 -4
BITMAP
FC
04
E4
24
24
24
24
24
24
24
24
ENDCHAR
STARTCHAR onequarter
ENCODING 188
SWIDTH 562 0
DWIDTH 9 0
BBX 6 8 0 4
BITMAP
24
24
24
24
24
E4
04
FC
ENDCHAR
STARTCHAR onehalf
ENCODING 189
SWIDTH 562 0
DWIDTH 9 0
BBX 6 8 0 4
BITMAP
24
24
24
24
24
24
24
FC
ENDCHAR
STARTCHAR threequarters
ENCODING 190
SWIDTH 562 0
DWIDTH 9 0
BBX 5 8 0 4
BITMAP
08
08
08
08
08
F8
08
F8
ENDCHAR
STARTCHAR questiondown
ENCODING 191
SWIDTH 562 0
DWIDTH 9 0
BBX 5 9 0 -4
BITMAP
F8
08
08
08
08
08
08
08
08
ENDCHAR
STARTCHAR Agrave
ENCODING 192
SWIDTH 562 0
DWIDTH 9 0
BBX 5 8 4 4
BITMAP
80
80
80
80
80
80
80
F8
ENDCHAR
STARTCHAR Aacute
ENCODING 193
SWIDTH 562 0
DWIDTH 9 0
BBX 9 8 0 4
BITMAP
0800
0800
0800
0800
0800
0800
0800
FF80
ENDCHAR
STARTCHAR Acircumflex
ENCODING 194
SWIDTH 562 0
DWIDTH 9 0
BBX 9 9 0 -4
BITMAP
FF80
0800
0800
0800
0800
0800
0800
0800
0800
ENDCHAR
STARTCHAR Atilde
ENCODING 195
SWIDTH 562 0
DWIDTH 9 0
BBX 5 16 4 -4
BITMAP
80
80
80
80
80
80
80
F8
80
80
80
80
80
80
80
80
ENDCHAR
STARTCHAR Adieresis
ENCODING 196
SWIDTH 562 0
DWIDTH 9 0
BBX 9 1 0 4
BITMAP
FF80
ENDCHAR
STARTCHAR Aring
ENCODING 197
SWIDTH 562 0
DWIDTH 9 0
BBX 9 16 0 -4
BITMAP
0800
0800
0800
0800
0800
0800
0800
FF80
0800
0800
0800
0800
0800
0800
0800
0800
ENDCHAR
STARTCHAR AE
ENCODING 198
SWIDTH 562 0
DWIDTH 9 0
BBX 5 16 4 -4
BITMAP
80
80
80
80
80
F8
80
F8
80
80
80
80
80
80
80
80
ENDCHAR
STARTCHAR Ccedilla
ENCODING 199
SWIDTH 562 0
DWIDTH 9 0
BBX 7 16 2 -4
BITMAP
90
90
90
90
90
90
90
9E
90
90
90
90
90
90
90
90
ENDCHAR
STARTCHAR Egrave
ENCODING 200
SWIDTH 562 0
DWIDTH 9 0
BBX 7 8 2 4
BITMAP
90
90
90
90
90
9E
80
FE
ENDCHAR
STARTCHAR Eacute
ENCODING 201
SWIDTH 562 0
DWIDTH 9 0
BBX 7 11 2 -4
BITMAP
FE
80
9E
90
90
90
90
90
90
90
90
ENDCHAR
STARTCHAR Ecircumflex
ENCODING 202
SWIDTH 562 0
DWIDTH 9 0
BBX 9 8 0 4
BITMAP
2400
2400
2400
2400
2400
E780
0000
FF80
ENDCHAR
STARTCHAR Edieresis
ENCODING 203
SWIDTH 562 0
DWIDTH 9 0
BBX 9 11 0 -4
BITMAP
FF80
0000
E780
2400
2400
2400
2400
2400
2400
2400
2400
ENDCHAR
STARTCHAR Igrave
ENCODING 204
SWIDTH 562 0
DWIDTH 9 0
BBX 7 16 2 -4
BITMAP
90
90
90
90
90
9E
80
9E
90
90
90
90
90
90
90
90
ENDCHAR
STARTCHAR Iacute
ENCODING 205
SWIDTH 562 0
DWIDTH 9 0
BBX 9 3 0 4
BITMAP
FF80
0000
FF80
ENDCHAR
STARTCHAR Icircumflex
ENCODING 206
SWIDTH 562 0
DWIDTH 9 0
BBX 9 16 0 -4
BITMAP
2400
2400
2400
2400
2400
E780
0000
E780
2400
2400
2400
2400
2400
2400
2400
2400
ENDCHAR
STARTCHAR Idieresis
ENCODING 207
SWIDTH 562 0
DWIDTH 9 0
BBX 9 8 0 4
BITMAP
0800
0800
0800
0800
0800
FF80
0000
FF80
ENDCHAR
STARTCHAR Eth
ENCODING 208
SWIDTH 562 0
DWIDTH 9 0
BBX 9 8 0 4
BITMAP
2400
2400
2400
2400
2400
2400
2400
FF80
ENDCHAR
STARTCHAR Ntilde
ENCODING 209
SWIDTH 562 0
DWIDTH 9 0
BBX 9 11 0 -4
BITMAP
FF80
0000
FF80
0800
0800
0800
0800
0800
0800
0800
0800
ENDCHAR
STARTCHAR Ograve
ENCODING 210
SWIDTH 562 0
DWIDTH 9 0
BBX 9 9 0 -4
BITMAP
FF80
2400
2400
2400
2400
2400
2400
2400
2400
ENDCHAR
STARTCHAR Oacute
ENCODING 211
SWIDTH 562 0
DWIDTH 9 0
BBX 7 8 2 4
BITMAP
90
90
90
90
90
90
90
FE
ENDCHAR
STARTCHAR Ocircumflex
ENCODING 212
SWIDTH 562 0
DWIDTH 9 0
BBX 5 8 4 4
BITMAP
80
80
80
80
80
F8
80
F8
ENDCHAR
STARTCHAR Otilde
ENCODING 213
SWIDTH 562 0
DWIDTH 9 0
BBX 5 11 4 -4
BITMAP
F8
80
F8
80
80
80
80
80
80
80
80
ENDCHAR
STARTCHAR Odieresis
ENCODING 214
SWIDTH 562 0
DWIDTH 9 0
BBX 7 9 2 -4
BITMAP
FE
90
90
90
90
90
90
90
90
ENDCHAR
STARTCHAR multiply
ENCODING 215
SWIDTH 562 0
DWIDTH 9 0
BBX 9 16 0 -4
BITMAP
2400
2400
2400
2400
2400
2400
2400
FF80
2400
2400
2400
2400
2400
2400
2400
2400
ENDCHAR
STARTCHAR Oslash
ENCODING 216
SWIDTH 562 0
DWIDTH 9 0
BBX 9 16 0 -4
BITMAP
0800
0800
0800
0800
0800
FF80
0800
FF80
0800
0800
0800
0800
0800
0800
0800
0800
ENDCHAR
STARTCHAR Ugrave
ENCODING 217
SWIDTH 562 0
DWIDTH 9 0
BBX 5 8 0 4
BITMAP
08
08
08
08
08
08
08
F8
ENDCHAR
STARTCHAR Uacute
ENCODING 218
SWIDTH 562 0
DWIDTH 9 0
BBX 5 9 4 -4
BITMAP
F8
80
80
80
80
80
80
80
80
ENDCHAR
STARTCHAR Ucircumflex
ENCODING 219
SWIDTH 562 0
DWIDTH 9 0
BBX 9 16 0 -4
BITMAP
FF80
FF80
FF80
FF80
FF80
FF80
FF80
FF80
FF80
FF80
FF80
FF80
FF80
FF80
FF80
FF80
ENDCHAR
STARTCHAR Udieresis
ENCODING 220
SWIDTH 562 0
DWIDTH 9 0
BBX 9 9 0 -4
BITMAP
FF80
FF80
FF80
FF80
FF80
FF80
FF80
FF80
FF80
ENDCHAR
STARTCHAR Yacute
ENCODING 221
SWIDTH 562 0
DWIDTH 9 0
BBX 4 16 0 -4
BITMAP
F0
F0
F0
F0
F0
F0
F0
F0
F0
F0
F0
F0
F0
F0
F0
F0
ENDCHAR
STARTCHAR Thorn
ENCODING 222
SWIDTH 562 0
DWIDTH 9 0
BBX 5 16 4 -4
BITMAP
F8
F8
F8
F8
F8
F8
F8
F8
F8
F8
F8
F8
F8
F8
F8
F8
ENDCHAR
STARTCHAR germandbls
ENCODING 223
SWIDTH 562 0
DWIDTH 9 0
BBX 9 7 0 5
BITMAP
FF80
FF80
FF80
FF80
FF80
FF80
FF80
ENDCHAR
STARTCHAR agrave
ENCODING 224
SWIDTH 562 0
DWIDTH 9 0
BBX 7 7 0 0
BITMAP
74
88
88
88
88
88
76
ENDCHAR
STARTCHAR aacute
ENCODING 225
SWIDTH 562 0
DWIDTH 9 0
BBX 7 12 0 -2
BITMAP
38
44
84
84
98
84
82
82
82
9C
80
80
ENDCHAR
STARTCHAR acircumflex
ENCODING 226
SWIDTH 562 0
DWIDTH 9 0
BBX 7 10 0 0
BITMAP
FE
80
80
80
80
80
80
80
80
80
ENDCHAR
STARTCHAR atilde
ENCODING 227
SWIDTH 562 0
DWIDTH 9 0
BBX 7 7 0 0
BITMAP
FE
44
44
44
44
44
42
ENDCHAR
STARTCHAR adieresis
ENCODING 228
SWIDTH 562 0
DWIDTH 9 0
BBX 7 10 0 0
BITMAP
FE
40
20
10
08
10
20
40
80
FE
ENDCHAR
STARTCHAR aring
ENCODING 229
SWIDTH 562 0
DWIDTH 9 0
BBX 7 7 0 0
BITMAP
7E
88
84
84
84
84
78
ENDCHAR
STARTCHAR ae
ENCODING 230
SWIDTH 562 0
DWIDTH 9 0
BBX 7 10 0 -3
BITMAP
84
84
84
84
84
C4
BA
80
80
80
ENDCHAR
STARTCHAR ccedilla
ENCODING 231
SWIDTH 562 0
DWIDTH 9 0
BBX 7 7 0 0
BITMAP
7E
90
10
10
10
10
0C
ENDCHAR
STARTCHAR egrave
ENCODING 232
SWIDTH 562 0
DWIDTH 9 0
BBX 7 10 0 0
BITMAP
10
7C
92
92
92
92
92
92
7C
10
ENDCHAR
STARTCHAR eacute
ENCODING 233
SWIDTH 562 0
DWIDTH 9 0
BBX 7 10 0 0
BITMAP
38
44
82
82
FE
82
82
82
44
38
ENDCHAR
STARTCHAR ecircumflex
ENCODING 234
SWIDTH 562 0
DWIDTH 9 0
BBX 7 10 0 0
BITMAP
38
44
82
82
82
82
82
44
28
EE
ENDCHAR
STARTCHAR edieresis
ENCODING 235
SWIDTH 562 0
DWIDTH 9 0
BBX 7 10 0 0
BITMAP
7C
40
20
10
78
84
82
82
82
7C
ENDCHAR
STARTCHAR igrave
ENCODING 236
SWIDTH 562 0
DWIDTH 9 0
BBX 7 5 0 2
BITMAP
6C
92
92
92
6C
ENDCHAR
STARTCHAR iacute
ENCODING 237
SWIDTH 562 0
DWIDTH 9 0
BBX 7 12 0 -3
BITMAP
10
10
7C
92
92
92
92
92
7C
10
10
10
ENDCHAR
STARTCHAR icircumflex
ENCODING 238
SWIDTH 562 0
DWIDTH 9 0
BBX 7 7 0 0
BITMAP
7C
82
80
78
80
82
7C
ENDCHAR
STARTCHAR idieresis
ENCODING 239
SWIDTH 562 0
DWIDTH 9 0
BBX 7 9 0 0
BITMAP
7C
82
82
82
82
82
82
82
82
ENDCHAR
STARTCHAR eth
ENCODING 240
SWIDTH 562 0
DWIDTH 9 0
BBX 7 7 0 1
BITMAP
FE
00
00
FE
00
00
FE
ENDCHAR
STARTCHAR ntilde
ENCODING 241
SWIDTH 562 0
DWIDTH 9 0
BBX 7 9 0 1
BITMAP
10
10
10
FE
10
10
10
00
FE
ENDCHAR
STARTCHAR ograve
ENCODING 242
SWIDTH 562 0
DWIDTH 9 0
BBX 5 9 1 0
BITMAP
40
20
10
08
10
20
40
00
F8
ENDCHAR
STARTCHAR oacute
ENCODING 243
SWIDTH 562 0
DWIDTH 9 0
BBX 5 9 1 0
BITMAP
10
20
40
80
40
20
10
00
F8
ENDCHAR
STARTCHAR ocircumflex
ENCODING 244
SWIDTH 562 0
DWIDTH 9 0
BBX 4 14 3 -4
BITMAP
60
90
90
80
80
80
80
80
80
80
80
80
80
80
ENDCHAR
STARTCHAR otilde
ENCODING 245
SWIDTH 562 0
DWIDTH 9 0
BBX 4 12 0 0
BITMAP
10
10
10
10
10
10
10
10
10
90
90
60
ENDCHAR
STARTCHAR odieresis
ENCODING 246
SWIDTH 562 0
DWIDTH 9 0
BBX 7 7 0 1
BITMAP
10
10
00
FE
00
10
10
ENDCHAR
STARTCHAR divide
ENCODING 247
SWIDTH 562 0
DWIDTH 9 0
BBX 6 5 0 2
BITMAP
64
98
00
64
98
ENDCHAR
STARTCHAR oslash
ENCODING 248
SWIDTH 562 0
DWIDTH 9 0
BBX 5 5 0 6
BITMAP
70
88
88
88
70
ENDCHAR
STARTCHAR ugrave
ENCODING 249
SWIDTH 562 0
DWIDTH 9 0
BBX 2 2 2 3
BITMAP
C0
C0
ENDCHAR
STARTCHAR uacute
ENCODING 250
SWIDTH 562 0
DWIDTH 9 0
BBX 2 1 2 3
BITMAP
C0
ENDCHAR
STARTCHAR ucircumflex
ENCODING 251
SWIDTH 562 0
DWIDTH 9 0
BBX 7 11 0 0
BITMAP
0E
08
08
08
08
08
08
C8
28
18
08
ENDCHAR
STARTCHAR udieresis
ENCODING 252
SWIDTH 562 0
DWIDTH 9 0
BBX 6 6 0 5
BITMAP
B8
44
44
44
44
44
ENDCHAR
STARTCHAR yacute
ENCODING 253
SWIDTH 562 0
DWIDTH 9 0
BBX 4 6 0 5
BITMAP
60
90
10
20
40
F0
ENDCHAR
STARTCHAR thorn
ENCODING 254
SWIDTH 562 0
DWIDTH 9 0
BBX 5 7 1 1
BITMAP
F8
F8
F8
F8
F8
F8
F8
ENDCHAR
STARTCHAR ydieresis
ENCODING 255
SWIDTH 562 0
DWIDTH 9 0
BBX 1 1 8 -4
BITMAP
00
ENDCHAR
STARTCHAR Euro
ENCODING -1
SWIDTH 562 0
DWIDTH 9 0
BBX 7 13 0 -3
BITMAP
7C
82
80
80
80
80
80
82
82
7C
10
08
70
ENDCHAR
STARTCHAR NameMe.129
ENCODING -1
SWIDTH 562 0
DWIDTH 9 0
BBX 7 10 0 0
BITMAP
44
44
00
82
82
82
82
82
86
7A
ENDCHAR
STARTCHAR quotesinglbase
ENCODING -1
SWIDTH 562 0
DWIDTH 9 0
BBX 7 11 0 0
BITMAP
08
10
20
00
7C
82
82
FE
80
80
7E
ENDCHAR
STARTCHAR florin
ENCODING -1
SWIDTH 562 0
DWIDTH 9 0
BBX 7 11 0 0
BITMAP
10
28
44
00
7C
02
02
7E
82
82
7E
ENDCHAR
STARTCHAR quotedblbase
ENCODING -1
SWIDTH 562 0
DWIDTH 9 0
BBX 7 10 0 0
BITMAP
44
44
00
7C
02
02
7E
82
82
7E
ENDCHAR
STARTCHAR ellipsis
ENCODING -1
SWIDTH 562 0
DWIDTH 9 0
BBX 7 11 0 0
BITMAP
20
10
08
00
7C
02
02
7E
82
82
7E
ENDCHAR
STARTCHAR dagger
ENCODING -1
SWIDTH 562 0
DWIDTH 9 0
BBX 7 11 0 0
BITMAP
18
24
18
00
7C
02
02
7E
82
82
7E
ENDCHAR
STARTCHAR daggerdbl
ENCODING -1
SWIDTH 562 0
DWIDTH 9 0
BBX 7 10 0 -3
BITMAP
7C
82
80
80
80
82
7C
10
08
70
ENDCHAR
STARTCHAR circumflex
ENCODING -1
SWIDTH 562 0
DWIDTH 9 0
BBX 7 11 0 0
BITMAP
10
28
44
00
7C
82
82
FE
80
80
7E
ENDCHAR
STARTCHAR perthousand
ENCODING -1
SWIDTH 562 0
DWIDTH 9 0
BBX 7 10 0 0
BITMAP
44
44
00
7C
82
82
FE
80
80
7E
ENDCHAR
STARTCHAR Scaron
ENCODING -1
SWIDTH 562 0
DWIDTH 9 0
BBX 7 11 0 0
BITMAP
20
10
08
00
7C
82
82
FE
80
80
7E
ENDCHAR
STARTCHAR guilsinglleft
ENCODING -1
SWIDTH 562 0
DWIDTH 9 0
BBX 5 10 1 0
BITMAP
90
90
00
E0
20
20
20
20
20
F8
ENDCHAR
STARTCHAR OE
ENCODING -1
SWIDTH 562 0
DWIDTH 9 0
BBX 5 11 1 0
BITMAP
20
50
88
00
E0
20
20
20
20
20
F8
ENDCHAR
STARTCHAR NameMe.141
ENCODING -1
SWIDTH 562 0
DWIDTH 9 0
BBX 5 11 1 0
BITMAP
80
40
20
00
E0
20
20
20
20
20
F8
ENDCHAR
STARTCHAR Zcaron
ENCODING -1
SWIDTH 562 0
DWIDTH 9 0
BBX 7 12 0 0
BITMAP
44
44
00
38
44
82
82
82
FE
82
82
82
ENDCHAR
STARTCHAR NameMe.143
ENCODING -1
SWIDTH 562 0
DWIDTH 9 0
BBX 7 12 0 0
BITMAP
38
44
44
38
44
82
82
82
FE
82
82
82
ENDCHAR
STARTCHAR NameMe.144
ENCODING -1
SWIDTH 562 0
DWIDTH 9 0
BBX 7 12 0 0
BITMAP
0C
30
00
FE
80
80
80
FC
80
80
80
FE
ENDCHAR
STARTCHAR quoteleft
ENCODING -1
SWIDTH 562 0
DWIDTH 9 0
BBX 7 7 0 0
BITMAP
6C
92
12
7E
90
90
6E
ENDCHAR
STARTCHAR quoteright
ENCODING -1
SWIDTH 562 0
DWIDTH 9 0
BBX 7 10 0 0
BITMAP
3E
48
88
88
FE
88
88
88
88
8E
ENDCHAR
STARTCHAR quotedblleft
ENCODING -1
SWIDTH 562 0
DWIDTH 9 0
BBX 7 11 0 0
BITMAP
10
28
44
00
7C
82
82
82
82
82
7C
ENDCHAR
STARTCHAR quotedblright
ENCODING -1
SWIDTH 562 0
DWIDTH 9 0
BBX 7 10 0 0
BITMAP
44
44
00
7C
82
82
82
82
82
7C
ENDCHAR
STARTCHAR bullet
ENCODING -1
SWIDTH 562 0
DWIDTH 9 0
BBX 7 11 0 0
BITMAP
20
10
08
00
7C
82
82
82
82
82
7C
ENDCHAR
STARTCHAR endash
ENCODING -1
SWIDTH 562 0
DWIDTH 9 0
BBX 7 11 0 0
BITMAP
10
28
44
00
82
82
82
82
82
86
7A
ENDCHAR
STARTCHAR emdash
ENCODING -1
SWIDTH 562 0
DWIDTH 9 0
BBX 7 11 0 0
BITMAP
20
10
08
00
82
82
82
82
82
86
7A
ENDCHAR
STARTCHAR tilde
ENCODING -1
SWIDTH 562 0
DWIDTH 9 0
BBX 7 13 0 -3
BITMAP
44
44
00
82
82
82
82
82
86
7A
02
02
7C
ENDCHAR
STARTCHAR trademark
ENCODING -1
SWIDTH 562 0
DWIDTH 9 0
BBX 7 12 0 0
BITMAP
44
44
00
7C
82
82
82
82
82
82
82
7C
ENDCHAR
STARTCHAR scaron
ENCODING -1
SWIDTH 562 0
DWIDTH 9 0
BBX 7 12 0 0
BITMAP
44
44
00
82
82
82
82
82
82
82
82
7C
ENDCHAR
STARTCHAR guilsinglright
ENCODING -1
SWIDTH 562 0
DWIDTH 9 0
BBX 7 10 0 0
BITMAP
10
10
7C
82
80
80
82
7C
10
10
ENDCHAR
STARTCHAR oe
ENCODING -1
SWIDTH 562 0
DWIDTH 9 0
BBX 7 10 0 0
BITMAP
38
44
40
40
F0
40
40
40
72
CC
ENDCHAR
STARTCHAR NameMe.157
ENCODING -1
SWIDTH 562 0
DWIDTH 9 0
BBX 7 10 0 0
BITMAP
82
82
44
28
10
7C
10
7C
10
10
ENDCHAR
STARTCHAR zcaron
ENCODING -1
SWIDTH 562 0
DWIDTH 9 0
BBX 6 10 0 0
BITMAP
F8
84
84
F8
80
88
9C
88
88
84
ENDCHAR
STARTCHAR Ydieresis
ENCODING -1
SWIDTH 562 0
DWIDTH 9 0
BBX 7 13 0 -3
BITMAP
0C
12
10
10
10
7C
10
10
10
10
10
90
60
ENDCHAR
ENDFONT
