STARTFONT 2.1
COMMENT 
COMMENT  Copyright 1984, 1987 Adobe Systems, Inc.
COMMENT  Portions Copyright 1988 Digital Equipment Corporation
COMMENT 
COMMENT  Adobe is a registered trademark of Adobe Systems, Inc.  Permission 
COMMENT  to use these trademarks is hereby granted only in association with the
COMMENT  images described in this file.
COMMENT 
COMMENT  Permission to use, copy, modify, and distribute this software and
COMMENT  its documentation for any purpose and without fee is hereby granted,
COMMENT  provided that the above copyright notices appear in all copies and
COMMENT  that both those copyright notices and this permission notice appear
COMMENT  in supporting documentation, and that the names of Adobe Systems and
COMMENT  Digital Equipment Corporation not be used in advertising or
COMMENT  publicity pertaining to distribution of the software without
COMMENT  specific, written prior permission.  Adobe Systems and Digital
COMMENT  Equipment Corporation make no representations about the suitability
COMMENT  of this software for any purpose.  It is provided "as is" without
COMMENT  express or implied warranty.
COMMENT 
COMMENT  ADOBE SYSTEMS AND DIGITAL EQUIPMENT CORPORATION DISCLAIM ALL
COMMENT  WARRANTIES WITH REGARD TO THIS SOFTWARE, INCLUDING ALL IMPLIED
COMMENT  WARRANTIES OF MERCHANTABILITY AND FITNESS, IN NO EVENT SHALL ADOBE
COMMENT  SYSTEMS AND DIGITAL EQUIPMENT CORPORATION BE LIABLE FOR ANY SPECIAL,
COMMENT  INDIRECT OR CONSEQUENTIAL DAMAGES OR ANY DAMAGES WHATSOEVER
COMMENT  RESULTING FROM LOSS OF USE, DATA OR PROFITS, WHETHER IN AN ACTION OF
COMMENT  CONTRACT, NEGLIGENCE OR OTHER TORTIOUS ACTION, ARISING OUT OF OR IN
COMMENT  CONNECTION WITH THE USE OR PERFORMANCE OF THIS SOFTWARE.
COMMENT
COMMENT
COMMENT Begin LogicalFontDescription
COMMENT END LogicalFontDescription
COMMENT ***** end of inserted font properties
FONT -Mathpad-MathSymbol-Medium-R-Normal--12-120-75-75-P-79-MATHPAD-FONTSPECIFIC
SIZE 12 75 75
FONTBOUNDINGBOX 14 16 -1 -4
STARTPROPERTIES 24
DEFAULT_CHAR 32
FONTNAME_REGISTRY ""
FAMILY_NAME "MathSymbol"
FOUNDRY "Mathpad"
WEIGHT_NAME "Medium"
SETWIDTH_NAME "Normal"
SLANT "R"
ADD_STYLE_NAME ""
PIXEL_SIZE 12
POINT_SIZE 120
RESOLUTION_X 75
RESOLUTION_Y 75
SPACING "P"
AVERAGE_WIDTH 79
CHARSET_REGISTRY "MATHPAD"
CHARSET_ENCODING "FONTSPECIFIC"
CHARSET_COLLECTIONS "FONTSPECIFIC"
FONT_DESCENT 3
FONT_ASCENT 9
CAP_HEIGHT 9
X_HEIGHT 6
FULL_NAME "MathSymbol"
DEVICE_FONT_NAME "mathsymbol"
COPYRIGHT "Copyright (c) 1992 Mathpad, Copyright (c) 1984 Adobe Systems, Inc., Portions Copyright 1988 Digital Equipment Corp."
ENDPROPERTIES
CHARS 223
STARTCHAR space
ENCODING 32
SWIDTH 250 0
DWIDTH 3 0
BBX 1 1 0 0
BITMAP
00
ENDCHAR
STARTCHAR bar
ENCODING 33
SWIDTH 333 0
DWIDTH 4 0
BBX 1 9 1 0
BITMAP
80
80
80
80
80
80
80
80
80
ENDCHAR
STARTCHAR numbersign
ENCODING 35
SWIDTH 549 0
DWIDTH 8 0
BBX 7 9 0 0
BITMAP
28
28
28
FE
28
FE
28
28
28
ENDCHAR
STARTCHAR half
ENCODING 37
SWIDTH 833 0
DWIDTH 10 0
BBX 9 9 0 0
BITMAP
c100
4100
4200
e400
0900
1280
2080
4100
4380
ENDCHAR
STARTCHAR quarter
ENCODING 38
SWIDTH 778 0
DWIDTH 10 0
BBX 9 9 0 0
BITMAP
c100
4100
4200
e400
0900
1300
2500
4780
4100
ENDCHAR
STARTCHAR openbrace
ENCODING 40
SWIDTH 480 0
DWIDTH 6 0
BBX 5 12 0 -2
BITMAP
18
20
60
a0
a0
a0
a0
a0
a0
60
20
18
ENDCHAR
STARTCHAR closebrace
ENCODING 41
SWIDTH 480 0
DWIDTH 6 0
BBX 5 12 0 -2
BITMAP
c0
20
30
28
28
28
28
28
28
30
20
c0
ENDCHAR
STARTCHAR bigdot
ENCODING 42
SWIDTH 500 0
DWIDTH 6 0
BBX 5 5 1 1
BITMAP
70
f8
f8
f8
70
ENDCHAR
STARTCHAR bigopendot
ENCODING 43
SWIDTH 549 0
DWIDTH 7 0
BBX 5 5 1 1
BITMAP
70
88
88
88
70
ENDCHAR
STARTCHAR openbracel
ENCODING 47
SWIDTH 467 0
DWIDTH 5 0
BBX 4 12 0 -2
BITMAP
30
50
90
90
90
90
90
90
90
90
50
30
ENDCHAR
STARTCHAR closebracel
ENCODING 48
SWIDTH 467 0
DWIDTH 5 0
BBX 4 12 0 -2
BITMAP
c0
a0
90
90
90
90
90
90
90
90
a0
c0
ENDCHAR
STARTCHAR openbracket
ENCODING 49
SWIDTH 500 0
DWIDTH 6 0
BBX 5 12 0 -2
BITMAP
f8
a0
a0
a0
a0
a0
a0
a0
a0
a0
a0
f8
ENDCHAR
STARTCHAR openbanana
ENCODING 16
SWIDTH 500 0
DWIDTH 7 0
BBX 6 12 0 -2
BITMAP
fc
88
90
90
a0
a0
a0
a0
90
90
88
fc
ENDCHAR
STARTCHAR closebracket
ENCODING 50
SWIDTH 500 0
DWIDTH 6 0
BBX 5 12 0 -2
BITMAP
f8
28
28
28
28
28
28
28
28
28
28
f8
ENDCHAR
STARTCHAR closebanana
ENCODING 17
SWIDTH 500 0
DWIDTH 7 0
BBX 6 12 0 -2
BITMAP
fc
44
24
24
14
14
14
14
24
24
44
fc
ENDCHAR
STARTCHAR bopenbracket
ENCODING 51
SWIDTH 540 0
DWIDTH 7 0
BBX 6 12 0 -2
BITMAP
bc
a0
a0
a0
a0
a0
a0
a0
a0
a0
a0
bc
ENDCHAR
STARTCHAR bclosebracket
ENCODING 52
SWIDTH 540 0
DWIDTH 7 0
BBX 6 12 0 -2
BITMAP
f4
14
14
14
14
14
14
14
14
14
14
f4
ENDCHAR
STARTCHAR lefttriangle
ENCODING 53
SWIDTH 500 0
DWIDTH 6 0
BBX 5 9 0 0
BITMAP
08
18
28
48
88
48
28
18
08
ENDCHAR
STARTCHAR ltriangleline
ENCODING 128
SWIDTH 500 0
DWIDTH 6 0
BBX 5 11 0 -2
BITMAP
08
18
28
48
88
48
28
18
08
00
F8
ENDCHAR
STARTCHAR righttriangle
ENCODING 54
SWIDTH 500 0
DWIDTH 6 0
BBX 5 9 0 0
BITMAP
80
c0
a0
90
88
90
a0
c0
80
ENDCHAR
STARTCHAR rtriangleline
ENCODING 129
SWIDTH 500 0
DWIDTH 6 0
BBX 5 11 0 -2
BITMAP
80
c0
a0
90
88
90
a0
c0
80
00
F8
ENDCHAR
STARTCHAR boolean
ENCODING 55
SWIDTH 640 0
DWIDTH 8 0
BBX 7 9 0 0
BITMAP
Fc
a2
a2
a2
bc
a2
a2
a2
fc
ENDCHAR
STARTCHAR posint
ENCODING 56
SWIDTH 640 0
DWIDTH 8 0
BBX 7 9 0 0
BITMAP
e2
a2
b2
b2
aa
aa
a6
a6
e2
ENDCHAR
STARTCHAR float
ENCODING 57
SWIDTH 640 0
DWIDTH  8 0
BBX 7 9 0 0
BITMAP
fc
a2
a2
a2
bc
b0
a8
a4
e2
ENDCHAR
STARTCHAR littleless
ENCODING 58
SWIDTH 320 0
DWIDTH 4 0
BBX 3 6 0 1
BITMAP
20
40
80
80
40
20
ENDCHAR
STARTCHAR littlegreater
ENCODING 59
SWIDTH 320 0
DWIDTH 4 0
BBX 3 6 0 1
BITMAP
80
40
20
20
40
80
ENDCHAR
STARTCHAR blackcross
ENCODING 63
SWIDTH 720 0
DWIDTH 9 0
BBX 8 8 0 0
BITMAP
7e
bd
db
ff
ff
db
bd
7e
ENDCHAR
STARTCHAR empty
ENCODING 91
SWIDTH 640 0
DWIDTH 8 0
BBX 7 11 1 -1
BITMAP
02
02
3c
4c
8a
92
a2
64
78
80
80
ENDCHAR
STARTCHAR therefore
ENCODING 92
SWIDTH 863 0
DWIDTH 9 0
BBX 7 6 1 0
BITMAP
10
10
00
00
82
82
ENDCHAR
STARTCHAR top
ENCODING 93
SWIDTH 640 0
DWIDTH 8 0
BBX 7 9 0 0
BITMAP
fe
10
10
10
10
10
10
10
10
ENDCHAR
STARTCHAR bottom
ENCODING 94
SWIDTH 658 0
DWIDTH 8 0
BBX 7 9 0 0
BITMAP
10
10
10
10
10
10
10
10
FE
ENDCHAR
STARTCHAR dbltop
ENCODING 153
SWIDTH 640 0
DWIDTH 8 0
BBX 7 9 0 0
BITMAP
fe
28
28
28
28
28
28
28
28
ENDCHAR
STARTCHAR dblbottom
ENCODING 154
SWIDTH 658 0
DWIDTH 8 0
BBX 7 9 0 0
BITMAP
28
28
28
28
28
28
28
28
FE
ENDCHAR
STARTCHAR underscore
ENCODING 95
SWIDTH 500 0
DWIDTH 6 0
BBX 6 1 0 -3
BITMAP
FC
ENDCHAR
STARTCHAR radicalex
ENCODING 96
SWIDTH 500 0
DWIDTH 6 0
BBX 7 1 0 11
BITMAP
FE
ENDCHAR
STARTCHAR lessless
ENCODING 123
SWIDTH 560 0
DWIDTH 7 0
BBX 6 5 0 1
BITMAP
24
48
90
48
24
ENDCHAR
STARTCHAR settimes
ENCODING 124
SWIDTH 720 0
DWIDTH 9 0
BBX 8 8 0 0
BITMAP
81
42
24
18
18
24
42
81
ENDCHAR
STARTCHAR greatergreater
ENCODING 125
SWIDTH 560 0
DWIDTH 7 0
BBX 6 5 0 1
BITMAP
90
48
24
48
90
ENDCHAR
STARTCHAR similar
ENCODING 126
SWIDTH 549 0
DWIDTH 8 0
BBX 7 3 0 2
BITMAP
62
92
8C
ENDCHAR
STARTCHAR similardot
ENCODING 130
SWIDTH 549 0
DWIDTH 8 0
BBX 7 5 0 2
BITMAP
10
00
62
92
8C
ENDCHAR
STARTCHAR lleadstonat
ENCODING 131
SWIDTH 800 0
DWIDTH 10 0
BBX 9 6 0 1
BITMAP
1000
0200
6100
9280
0D00
0200
ENDCHAR
STARTCHAR rleadstonat
ENCODING 132
SWIDTH 800 0
DWIDTH 10 0
BBX 9 6 0 1
BITMAP
0400
2000
5800
A480
4300
2000
ENDCHAR
STARTCHAR dblleadstonat
ENCODING 133
SWIDTH 960 0
DWIDTH 12 0
BBX 11 6 0 1
BITMAP
0400
2080
5840
A4A0
4340
2080
ENDCHAR
STARTCHAR lleadsto
ENCODING 147
SWIDTH 800 0
DWIDTH 10 0
BBX 9 5 0 1
BITMAP
0200
6100
9280
0D00
0200
ENDCHAR
STARTCHAR rleadsto
ENCODING 148
SWIDTH 800 0
DWIDTH 10 0
BBX 9 5 0 1
BITMAP
2000
5800
A480
4300
2000
ENDCHAR
STARTCHAR dblleadsto
ENCODING 149
SWIDTH 960 0
DWIDTH 12 0
BBX 11 5 0 1
BITMAP
2080
5840
A4A0
4340
2080
ENDCHAR
STARTCHAR uptriangle
ENCODING 134
SWIDTH 640 0
DWIDTH 8 0
BBX 7 5 0 1
BITMAP
10
28
44
82
FE
ENDCHAR
STARTCHAR downtriangle
ENCODING 135
SWIDTH 640 0
DWIDTH 8 0
BBX 7 5 0 1
BITMAP
FE
82
44
28
10
ENDCHAR
STARTCHAR filluptriangle
ENCODING 136
SWIDTH 640 0
DWIDTH 8 0
BBX 7 5 0 1
BITMAP
10
38
7C
FE
FE
ENDCHAR
STARTCHAR filldowntriangle
ENCODING 137
SWIDTH 640 0
DWIDTH 8 0
BBX 7 5 0 1
BITMAP
FE
FE
7C
38
10
ENDCHAR
STARTCHAR davidstar
ENCODING 150
SWIDTH 640 0
DWIDTH 8 0
BBX 7 7 0 1
BITMAP
10
28
FE
44
FE
28
10
ENDCHAR
STARTCHAR fivestar
ENCODING 155
SWIDTH 640 0
DWIDTH 8 0
BBX 7 7 0 1
BITMAP
10
10
D6
38
10
28
44
ENDCHAR
STARTCHAR harrowleft
ENCODING 138
SWIDTH 880 0
DWIDTH 11 0
BBX 10 5 0 1
BITMAP
2180
4040
FF80
4000
2000
ENDCHAR
STARTCHAR harrowright
ENCODING 139
SWIDTH 880 0
DWIDTH 11 0
BBX 10 5 0 1
BITMAP
6100
8080
7FC0
0080
0100
ENDCHAR
STARTCHAR harparrowleft
ENCODING 140
SWIDTH 720 0
DWIDTH 9 0
BBX 8 3 0 3
BITMAP
20
40
FF
ENDCHAR
STARTCHAR harparrowright
ENCODING 141
SWIDTH 720 0
DWIDTH 9 0
BBX 8 3 0 3
BITMAP
04
02
FF
ENDCHAR
STARTCHAR arrowdblleft
ENCODING 142
SWIDTH 880 0
DWIDTH 11 0
BBX 10 5 0 1
BITMAP
2400
4800
FFE0
4800
2400
ENDCHAR
STARTCHAR arrowdblright
ENCODING 143
SWIDTH 880 0
DWIDTH 11 0
BBX 10 5 0 1
BITMAP
0900
0480
FFE0
0480
0900
ENDCHAR
STARTCHAR lesssim
ENCODING 151
SWIDTH 549 0
DWIDTH 7 0
BBX 6 8 0 -1
BITMAP
0C
30
C0
30
0C
60
94
08
ENDCHAR
STARTCHAR bigbox
ENCODING 166
SWIDTH 640 0
DWIDTH 8 0
BBX 7 10 0 0
BITMAP
fe
82
82
82
82
82
82
82
82
fe
ENDCHAR
STARTCHAR lessequal
ENCODING 167
SWIDTH 753 0
DWIDTH 9 0
BBX 7 6 1 0
BITMAP
06
18
60
fe
00
fe
ENDCHAR
STARTCHAR less
ENCODING 168
SWIDTH 753 0
DWIDTH 9 0
BBX 7 4 1 1
BITMAP
06
18
60
fe
ENDCHAR
STARTCHAR greater
ENCODING 169
SWIDTH 753 0
DWIDTH 9 0
BBX 7 4 1 1
BITMAP
c0
30
0c
fe
ENDCHAR
STARTCHAR greaterequal
ENCODING 170
SWIDTH 753 0
DWIDTH 9 0
BBX 7 6 1 0
BITMAP
c0
30
0c
fe
00
fe
ENDCHAR
STARTCHAR arrowboth
ENCODING 171
SWIDTH 1042 0
DWIDTH 13 0
BBX 11 5 1 1
BITMAP
2080
4040
FFE0
4040
2080
ENDCHAR
STARTCHAR arrowleft
ENCODING 172
SWIDTH 720 0
DWIDTH 9 0
BBX 8 5 0 1
BITMAP
20
40
Ff
40
20
ENDCHAR
STARTCHAR arrowup
ENCODING 173
SWIDTH 603 0
DWIDTH 7 0
BBX 5 10 1 0
BITMAP
20
70
a8
20
20
20
20
20
20
20
ENDCHAR
STARTCHAR arrowright
ENCODING 174
SWIDTH 720 0
DWIDTH 9 0
BBX 8 5 0 1
BITMAP
04
02
ff
02
04
ENDCHAR
STARTCHAR arrowdown
ENCODING 175
SWIDTH 603 0
DWIDTH 7 0
BBX 5 9 1 0
BITMAP
20
20
20
20
20
20
a8
70
20
ENDCHAR
STARTCHAR greatersim
ENCODING 152
SWIDTH 549 0
DWIDTH 7 0
BBX 6 8 0 -1
BITMAP
C0
30
0C
30
C0
60
94
08
ENDCHAR
STARTCHAR defequal
ENCODING 189
SWIDTH 549 0
DWIDTH 7 0
BBX 5 6 1 1
BITMAP
20
50
88
f8
00
f8
ENDCHAR
STARTCHAR arrowhorizex
ENCODING 190
SWIDTH 720 0
DWIDTH 9 0
BBX 9 1 0 3
BITMAP
Ff80
ENDCHAR
STARTCHAR join
ENCODING 191
SWIDTH 658 0
DWIDTH 8 0
BBX 7 7 0 0
BITMAP
82
c6
aa
92
aa
c6
82
ENDCHAR
STARTCHAR leftjoin
ENCODING 144
SWIDTH 800 0
DWIDTH 10 0
BBX 9 9 0 -1
BITMAP
8080
c180
e280
d480
c880
d480
e280
c180
8080
ENDCHAR
STARTCHAR rightjoin
ENCODING 145
SWIDTH 800 0
DWIDTH 10 0
BBX 9 9 0 -1
BITMAP
8080
c180
a380
9580
8980
9580
a380
c180
8080
ENDCHAR
STARTCHAR circledot
ENCODING 210
SWIDTH 790 0
DWIDTH 10 0
BBX 9 9 0 0
BITMAP
1c00
6300
4100
8880
9c80
8880
4100
6300
1C00
ENDCHAR
STARTCHAR circleslash
ENCODING 211
SWIDTH 790 0
DWIDTH 10 0
BBX 9 9 0 0
BITMAP
1c00
6300
4300
8480
8880
9080
6100
6300
1C00
ENDCHAR
STARTCHAR bararrowright
ENCODING 212
SWIDTH 890 0
DWIDTH 11 0
BBX 10 5 0 1
BITMAP
1100
1180
ffc0
1180
1100
ENDCHAR
STARTCHAR diamond
ENCODING 224
SWIDTH 494 0
DWIDTH 8 0
BBX 7 7 0 0
BITMAP
10
28
44
82
44
28
10
ENDCHAR
STARTCHAR smallbar
ENCODING 225
SWIDTH 400 0
DWIDTH 5 0
BBX 4 10 0 0
BITMAP
f0
90
90
90
90
90
90
90
90
f0
ENDCHAR
STARTCHAR circleminus
ENCODING 226
SWIDTH 790 0
DWIDTH 10 0
BBX 9 9 0 0
BITMAP
1c00
6300
4100
8080
ff80
8080
4100
6300
1c00
ENDCHAR
STARTCHAR circleempty
ENCODING 227
SWIDTH 790 0
DWIDTH 10 0
BBX 9 9 0 0
BITMAP
1C00
6300
4100
8080
8080
8080
4100
6300
1C00
ENDCHAR
STARTCHAR circleequal
ENCODING 146
SWIDTH 790 0
DWIDTH 10 0
BBX 9 9 0 0
BITMAP
1C00
6300
4100
FF80
8080
FF80
4100
6300
1C00
ENDCHAR
STARTCHAR bararrowleft
ENCODING 228
SWIDTH 880 0
DWIDTH 11 0
BBX 10 5 0 1
BITMAP
2200
6200
ffc0
6200
2200
ENDCHAR
STARTCHAR sqsubseteq
ENCODING 230
SWIDTH 720 0
DWIDTH 9 0
BBX 8 8 0 -2
BITMAP
ff
80
80
80
80
ff
00
ff
ENDCHAR
STARTCHAR sqsubset
ENCODING 231
SWIDTH 720 0
DWIDTH 9 0
BBX 8 6 0 0
BITMAP
ff
80
80
80
80
ff
ENDCHAR
STARTCHAR sqsupseteq
ENCODING 232
SWIDTH 720 0
DWIDTH 9 0
BBX 8 8 0 -2
BITMAP
ff
01
01
01
01
ff
00
ff
ENDCHAR
STARTCHAR sqsupset
ENCODING 233
SWIDTH 720 0
DWIDTH 9 0
BBX 8 6 0 0
BITMAP
ff
01
01
01
01
ff
ENDCHAR
STARTCHAR sqcup
ENCODING 234
SWIDTH 560 0
DWIDTH 7 0
BBX 6 6 0 0
BITMAP
84
84
84
84
84
fc
ENDCHAR
STARTCHAR sqcap
ENCODING 235
SWIDTH 560 0
DWIDTH 7 0
BBX 6 6 0 0
BITMAP
fc
84
84
84
84
84
ENDCHAR
STARTCHAR vdash
ENCODING 236
SWIDTH 494 0
DWIDTH 6 0
BBX 5 7 0 0
BITMAP
80
80
80
f8
80
80
80
ENDCHAR
STARTCHAR models
ENCODING 237
SWIDTH 480 0
DWIDTH 6 0
BBX 5 7 0 0
BITMAP
80
80
f8
80
f8
80
80
ENDCHAR
STARTCHAR ddagger
ENCODING 238
SWIDTH 560 0
DWIDTH 7 0
BBX 5 10 1 0
BITMAP
20
20
f8
20
20
20
20
f8
20
20
ENDCHAR
STARTCHAR dagger
ENCODING 239
SWIDTH 560 0
DWIDTH 7 0
BBX 5 10 1 0
BITMAP
20
20
f8
20
20
20
20
20
20
20
ENDCHAR
STARTCHAR wock
ENCODING 240
SWIDTH 400 0
DWIDTH 5 0
BBX 3 3 1 3
BITMAP
a0
a0
e0
ENDCHAR
STARTCHAR twobars
ENCODING 241
SWIDTH 329 0
DWIDTH 4 0
BBX 3 10 0 0
BITMAP
a0
a0
a0
a0
a0
a0
a0
a0
a0
a0
ENDCHAR
STARTCHAR mapsto
ENCODING 242
SWIDTH 720 0
DWIDTH 9 0
BBX 8 5 0 1
BITMAP
84
86
ff
86
84
ENDCHAR
STARTCHAR bigone
ENCODING 243
SWIDTH 640 0
DWIDTH 8 0
BBX 6 10 1 0
BITMAP
38
68
e8
28
28
28
28
28
28
7c
ENDCHAR
STARTCHAR integral
ENCODING 244
SWIDTH 686 0
DWIDTH 9 0
BBX 5 12 1 -1
BITMAP
18
38
20
20
20
20
20
20
20
20
e0
c0
ENDCHAR
STARTCHAR dblarrowright
ENCODING 245
SWIDTH 800 0
DWIDTH 10 0
BBX 9 7 0 0
BITMAP
0800
0400
fe00
0180
fe00
0400
0800
ENDCHAR
STARTCHAR dblarrowleft
ENCODING 246
SWIDTH 800 0
DWIDTH 10 0
BBX 9 7 0 0
BITMAP
0800
1000
3f80
c000
3f80
1000
0800
ENDCHAR
STARTCHAR heartsuit
ENCODING 247
SWIDTH 800 0
DWIDTH 10 0
BBX 9 11 0 -1
BITMAP
6300
9480
8880
8080
8080
4100
4100
2200
1400
0800
0800
ENDCHAR
STARTCHAR prec
ENCODING 248
SWIDTH 560 0
DWIDTH 7 0
BBX 6 7 0 1
BITMAP
04
04
18
e0
18
04
04
ENDCHAR
STARTCHAR succ
ENCODING 249
SWIDTH 560 0
DWIDTH 7 0
BBX 6 7 0 1
BITMAP
80
80
60
1c
60
80
80
ENDCHAR
STARTCHAR bracketleft
ENCODING 250
SWIDTH 384 0
DWIDTH 4 0
BBX 3 14 0 -2
BITMAP
e0
80
80
80
80
80
80
80
80
80
80
80
80
e0
ENDCHAR
STARTCHAR bracketright
ENCODING 251
SWIDTH 384 0
DWIDTH 4 0
BBX 3 14 0 -2
BITMAP
e0
20
20
20
20
20
20
20
20
20
20
20
20
e0
ENDCHAR
STARTCHAR integer
ENCODING 252
SWIDTH 800 0
DWIDTH 10 0
BBX 9 9 0 0
BITMAP
ff80
0280
0500
0a00
1400
2800
5000
a000
ff80
ENDCHAR
STARTCHAR powertwo
ENCODING 253
SWIDTH 400 0
DWIDTH 5 0
BBX 4 5 0 6
BITMAP
60
90
20
40
f0
ENDCHAR
STARTCHAR powerthree
ENCODING 254
SWIDTH 400 0
DWIDTH 5 0
BBX 4 5 0 6
BITMAP
e0
10
60
10
e0
ENDCHAR
STARTCHAR quotedbl
ENCODING 34
SWIDTH 720 0
DWIDTH 9 0
BBX 9 9 0 0
BITMAP
8080
4100
4100
3e00
2200
1400
1400
0800
0800
ENDCHAR
STARTCHAR dollar
ENCODING 36
SWIDTH 560 0
DWIDTH 7 0
BBX 5 9 1 0
BITMAP
f8
08
08
08
f8
08
08
08
f8
ENDCHAR
STARTCHAR apostrophe
ENCODING 39
SWIDTH 480 0
DWIDTH 6 0
BBX 4 6 1 0
BITMAP
e0
10
f0
10
10
e0
ENDCHAR
STARTCHAR comma
ENCODING 44
SWIDTH 240 0
DWIDTH 3 0
BBX 2 3 0 -2
BITMAP
40
40
80
ENDCHAR
STARTCHAR minus
ENCODING 45
SWIDTH 560 0
DWIDTH 7 0
BBX 5 1 1 3
BITMAP
f8
ENDCHAR
STARTCHAR period
ENCODING 46
SWIDTH 240 0
DWIDTH 3 0
BBX 1 1 1 0
BITMAP
80
ENDCHAR
STARTCHAR less
ENCODING 60
SWIDTH 560 0
DWIDTH 7 0
BBX 6 5 0 1
BITMAP
0c
30
c0
30
0c
ENDCHAR
STARTCHAR equal
ENCODING 61
SWIDTH 560 0
DWIDTH 7 0
BBX 5 3 1 2
BITMAP
f8
00
f8
ENDCHAR
STARTCHAR greater
ENCODING 62
SWIDTH 560 0
DWIDTH 7 0
BBX 6 5 0 1
BITMAP
c0
30
0c
30
c0
ENDCHAR
STARTCHAR at
ENCODING 64
SWIDTH 560 0
DWIDTH 7 0
BBX 5 6 1 0
BITMAP
68
b0
00
f8
00
f8
ENDCHAR
STARTCHAR A
ENCODING 65
SWIDTH 720 0
DWIDTH 9 0
BBX 9 9 0 0
BITMAP
0800
1c00
1400
1400
2200
3e00
2200
4100
e380
ENDCHAR
STARTCHAR B
ENCODING 66
SWIDTH 640 0
DWIDTH 8 0
BBX 7 9 0 0
BITMAP
fc
46
42
46
7c
46
42
46
fc
ENDCHAR
STARTCHAR C
ENCODING 67
SWIDTH 720 0
DWIDTH 9 0
BBX 8 9 0 0
BITMAP
e7
42
24
18
18
24
24
42
e7
ENDCHAR
STARTCHAR D
ENCODING 68
SWIDTH 640 0
DWIDTH 8 0
BBX 7 9 0 0
BITMAP
10
10
28
28
44
44
44
82
fe
ENDCHAR
STARTCHAR E
ENCODING 69
SWIDTH 640 0
DWIDTH 8 0
BBX 7 9 0 0
BITMAP
fe
42
40
44
7c
44
40
42
fe
ENDCHAR
STARTCHAR F
ENCODING 70
SWIDTH 800 0
DWIDTH 10 0
BBX 9 9 0 0
BITMAP
1c00
0800
7f00
c980
8880
c980
7f00
0800
1c00
ENDCHAR
STARTCHAR G
ENCODING 71
SWIDTH 640 0
DWIDTH 8 0
BBX 7 9 0 0
BITMAP
fe
42
40
40
40
40
40
40
e0
ENDCHAR
STARTCHAR H
ENCODING 72
SWIDTH 720 0
DWIDTH 9 0
BBX 8 9 0 0
BITMAP
e7
42
42
42
7e
42
42
42
e7
ENDCHAR
STARTCHAR I
ENCODING 73
SWIDTH 320 0
DWIDTH 4 0
BBX 3 9 0 0
BITMAP
e0
40
40
40
40
40
40
40
e0
ENDCHAR
STARTCHAR J
ENCODING 74
SWIDTH 640 0
DWIDTH 8 0
BBX 8 9 0 0
BITMAP
04
0a
0a
66
a3
22
22
26
1c
ENDCHAR
STARTCHAR K
ENCODING 75
SWIDTH 720 0
DWIDTH 9 0
BBX 8 9 0 0
BITMAP
ee
44
48
50
70
48
44
42
e7
ENDCHAR
STARTCHAR L
ENCODING 76
SWIDTH 720 0
DWIDTH 9 0
BBX 9 9 0 0
BITMAP
0800
0800
1400
1400
2200
2200
4100
4100
e380
ENDCHAR
STARTCHAR M
ENCODING 77
SWIDTH 880 0
DWIDTH 11 0
BBX 11 9 0 0
BITMAP
e0e0
60c0
5140
5140
5140
4a40
4a40
4440
e4e0
ENDCHAR
STARTCHAR N
ENCODING 78
SWIDTH 720 0
DWIDTH 9 0
BBX 8 9 0 0
BITMAP
e7
62
52
52
4a
4a
46
46
e2
ENDCHAR
STARTCHAR O
ENCODING 79
SWIDTH 720 0
DWIDTH 9 0
BBX 8 9 0 0
BITMAP
3c
66
42
81
81
81
42
66
3c
ENDCHAR
STARTCHAR P
ENCODING 80
SWIDTH 720 0
DWIDTH 9 0
BBX 8 9 0 0
BITMAP
ff
42
42
42
42
42
42
42
e7
ENDCHAR
STARTCHAR Q
ENCODING 81
SWIDTH 720 0
DWIDTH 9 0
BBX 8 9 0 0
BITMAP
3c
66
42
a5
bd
a5
42
66
3c
ENDCHAR
STARTCHAR R
ENCODING 82
SWIDTH 560 0
DWIDTH 7 0
BBX 6 9 0 0
BITMAP
f8
4c
44
4c
78
40
40
40
e0
ENDCHAR
STARTCHAR S
ENCODING 83
SWIDTH 560 0
DWIDTH 7 0
BBX 7 9 0 0
BITMAP
fc
84
c0
60
30
20
40
82
fe
ENDCHAR
STARTCHAR T
ENCODING 84
SWIDTH 640 0
DWIDTH 8 0
BBX 7 9 0 0
BITMAP
fe
92
92
10
10
10
10
10
38
ENDCHAR
STARTCHAR U
ENCODING 85
SWIDTH 720 0
DWIDTH 9 0
BBX 9 9 0 0
BITMAP
e380
4100
2200
1400
0800
0800
0800
0800
1c00
ENDCHAR
STARTCHAR V
ENCODING 86
SWIDTH 560 0
DWIDTH 7 0
BBX 5 9 1 -3
BITMAP
78
80
80
80
c0
70
08
48
70
ENDCHAR
STARTCHAR W
ENCODING 87
SWIDTH 800 0
DWIDTH 10 0
BBX 10 9 0 0
BITMAP
1e00
3300
2100
4080
4080
4080
2100
9240
f3c0
ENDCHAR
STARTCHAR X
ENCODING 88
SWIDTH 640 0
DWIDTH 8 0
BBX 8 9 0 0
BITMAP
7e
42
00
24
3c
24
00
81
ff
ENDCHAR
STARTCHAR Y
ENCODING 89
SWIDTH 800 0
DWIDTH 10 0
BBX 9 9 0 0
BITMAP
dd80
4900
4900
6b00
3e00
0800
0800
0800
1c00
ENDCHAR
STARTCHAR Z
ENCODING 90
SWIDTH 640 0
DWIDTH 8 0
BBX 6 9 1 0
BITMAP
fc
84
08
10
20
20
40
84
fc
ENDCHAR
STARTCHAR a
ENCODING 97
SWIDTH 640 0
DWIDTH 8 0
BBX 7 6 1 0
BITMAP
74
d4
88
88
d4
66
ENDCHAR
STARTCHAR b
ENCODING 98
SWIDTH 560 0
DWIDTH 7 0
BBX 5 13 1 -3
BITMAP
70
88
88
88
b0
88
88
88
c8
b0
80
80
80
ENDCHAR
STARTCHAR c
ENCODING 99
SWIDTH 560 0
DWIDTH 7 0
BBX 7 9 0 -3
BITMAP
c6
ac
28
18
30
28
68
4a
c6
ENDCHAR
STARTCHAR d
ENCODING 100
SWIDTH 560 0
DWIDTH 7 0
BBX 5 10 1 0
BITMAP
70
98
80
40
70
88
88
88
88
70
ENDCHAR
STARTCHAR e
ENCODING 101
SWIDTH 480 0
DWIDTH 6 0
BBX 4 6 1 0
BITMAP
70
80
e0
80
90
70
ENDCHAR
STARTCHAR f
ENCODING 102
SWIDTH 640 0
DWIDTH 8 0
BBX 7 11 0 -3
BITMAP
10
10
38
54
92
92
54
38
10
10
10
ENDCHAR
STARTCHAR g
ENCODING 103
SWIDTH 560 0
DWIDTH 7 0
BBX 6 9 0 -3
BITMAP
c4
a4
24
24
28
18
10
30
20
ENDCHAR
STARTCHAR h
ENCODING 104
SWIDTH 640 0
DWIDTH 8 0
BBX 7 9 0 -3
BITMAP
6c
b2
22
22
22
22
02
02
02
ENDCHAR
STARTCHAR i
ENCODING 105
SWIDTH 240 0
DWIDTH 3 0
BBX 3 6 0 0
BITMAP
c0
40
40
40
40
60
ENDCHAR
STARTCHAR j
ENCODING 106
SWIDTH 640 0
DWIDTH 8 0
BBX 7 9 0 -3
BITMAP
18
54
92
92
54
38
10
10
10
ENDCHAR
STARTCHAR k
ENCODING 107
SWIDTH 560 0
DWIDTH 7 0
BBX 6 6 0 0
BITMAP
4c
d4
60
70
58
4c
ENDCHAR
STARTCHAR l
ENCODING 108
SWIDTH 560 0
DWIDTH 7 0
BBX 7 9 0 0
BITMAP
60
50
10
30
28
48
48
8a
86
ENDCHAR
STARTCHAR m
ENCODING 109
SWIDTH 640 0
DWIDTH 8 0
BBX 7 9 1 -3
BITMAP
88
88
88
88
9a
ec
80
80
c0
ENDCHAR
STARTCHAR n
ENCODING 110
SWIDTH 560 0
DWIDTH 7 0
BBX 6 6 0 0
BITMAP
cc
44
44
28
28
30
ENDCHAR
STARTCHAR o
ENCODING 111
SWIDTH 560 0
DWIDTH 7 0
BBX 5 6 1 0
BITMAP
70
88
88
88
88
70
ENDCHAR
STARTCHAR p
ENCODING 112
SWIDTH 560 0
DWIDTH 7 0
BBX 7 6 0 0
BITMAP
7e
a4
24
24
26
64
ENDCHAR
STARTCHAR q
ENCODING 113
SWIDTH 560 0
DWIDTH 7 0
BBX 5 9 1 0
BITMAP
70
88
88
88
f8
88
88
88
70
ENDCHAR
STARTCHAR r
ENCODING 114
SWIDTH 560 0
DWIDTH 7 0
BBX 5 9 1 -3
BITMAP
70
88
88
88
c8
b0
80
80
80
ENDCHAR
STARTCHAR s
ENCODING 115
SWIDTH 640 0
DWIDTH 8 0
BBX 6 6 1 0
BITMAP
7c
90
88
88
88
70
ENDCHAR
STARTCHAR t
ENCODING 116
SWIDTH 480 0
DWIDTH 6 0
BBX 5 6 0 0
BITMAP
78
a0
20
20
28
30
ENDCHAR
STARTCHAR u
ENCODING 117
SWIDTH 640 0
DWIDTH 8 0
BBX 7 6 0 0
BITMAP
64
a2
22
22
26
1c
ENDCHAR
STARTCHAR v
ENCODING 118
SWIDTH 720 0
DWIDTH 9 0
BBX 8 7 0 0
BITMAP
7f
a2
49
49
49
49
36
ENDCHAR
STARTCHAR w
ENCODING 119
SWIDTH 720 0
DWIDTH 9 0
BBX 7 6 1 0
BITMAP
44
92
92
92
92
6c
ENDCHAR
STARTCHAR x
ENCODING 120
SWIDTH 480 0
DWIDTH 6 0
BBX 5 14 1 -3
BITMAP
40
80
70
c0
80
f0
40
80
80
c0
70
08
48
70
ENDCHAR
STARTCHAR y
ENCODING 121
SWIDTH 720 0
DWIDTH 9 0
BBX 9 9 0 -3
BITMAP
8880
4900
4900
4900
6b00
3e00
0800
0800
0800
ENDCHAR
STARTCHAR z
ENCODING 122
SWIDTH 480 0
DWIDTH 6 0
BBX 5 13 1 -3
BITMAP
40
98
70
40
80
80
80
80
c0
70
08
48
70
ENDCHAR
STARTCHAR exclamdown
ENCODING 161
SWIDTH 640 0
DWIDTH 8 0
BBX 8 9 0 0
BITMAP
c6
49
2b
10
10
10
10
10
38
ENDCHAR
STARTCHAR cent
ENCODING 162
SWIDTH 240 0
DWIDTH 3 0
BBX 3 3 1 6
BITMAP
20
40
80
ENDCHAR
STARTCHAR sterling
ENCODING 163
SWIDTH 560 0
DWIDTH 7 0
BBX 6 7 0 0
BITMAP
0c
30
c0
30
0c
00
fc
ENDCHAR
STARTCHAR currency
ENCODING 164
SWIDTH 320 0
DWIDTH 4 0
BBX 5 9 -1 0
BITMAP
08
10
10
20
20
40
40
80
80
ENDCHAR
STARTCHAR yen
ENCODING 165
SWIDTH 720 0
DWIDTH 9 0
BBX 9 4 0 1
BITMAP
7700
9880
8c80
7700
ENDCHAR
STARTCHAR degree
ENCODING 176
SWIDTH 400 0
DWIDTH 5 0
BBX 4 4 0 5
BITMAP
60
90
90
60
ENDCHAR
STARTCHAR plusminus
ENCODING 177
SWIDTH 560 0
DWIDTH 7 0
BBX 5 7 1 0
BITMAP
20
20
f8
20
20
00
f8
ENDCHAR
STARTCHAR twosuperior
ENCODING 178
SWIDTH 400 0
DWIDTH 5 0
BBX 5 3 0 6
BITMAP
28
50
a0
ENDCHAR
STARTCHAR threesuperior
ENCODING 179
SWIDTH 560 0
DWIDTH 7 0
BBX 6 7 0 0
BITMAP
c0
30
0c
30
c0
00
fc
ENDCHAR
STARTCHAR acute
ENCODING 180
SWIDTH 560 0
DWIDTH 7 0
BBX 5 5 1 1
BITMAP
88
50
20
50
88
ENDCHAR
STARTCHAR mu
ENCODING 181
SWIDTH 720 0
DWIDTH 9 0
BBX 8 4 0 1
BITMAP
77
88
88
77
ENDCHAR
STARTCHAR paragraph
ENCODING 182
SWIDTH 480 0
DWIDTH 6 0
BBX 5 10 0 0
BITMAP
60
90
08
08
68
98
88
88
88
70
ENDCHAR
STARTCHAR periodcentered
ENCODING 183
SWIDTH 480 0
DWIDTH 6 0
BBX 4 4 1 1
BITMAP
60
f0
f0
60
ENDCHAR
STARTCHAR cedilla
ENCODING 184
SWIDTH 560 0
DWIDTH 7 0
BBX 5 5 1 1
BITMAP
20
00
f8
00
20
ENDCHAR
STARTCHAR onesuperior
ENCODING 185
SWIDTH 560 0
DWIDTH 7 0
BBX 5 7 1 0
BITMAP
08
10
f8
20
f8
40
80
ENDCHAR
STARTCHAR masculine
ENCODING 186
SWIDTH 560 0
DWIDTH 7 0
BBX 5 5 1 1
BITMAP
f8
00
f8
00
f8
ENDCHAR
STARTCHAR guillemotright
ENCODING 187
SWIDTH 560 0
DWIDTH 7 0
BBX 6 5 0 1
BITMAP
64
98
00
64
98
ENDCHAR
STARTCHAR onequarter
ENCODING 188
SWIDTH 880 0
DWIDTH 11 0
BBX 9 1 1 0
BITMAP
8880
ENDCHAR
STARTCHAR Agrave
ENCODING 192
SWIDTH 800 0
DWIDTH 10 0
BBX 7 9 1 0
BITMAP
88
ce
66
34
d4
9c
4c
66
e2
ENDCHAR
STARTCHAR Aacute
ENCODING 193
SWIDTH 720 0
DWIDTH 9 0
BBX 8 11 0 -1
BITMAP
3f
61
42
64
0c
06
03
01
61
b2
1c
ENDCHAR
STARTCHAR Acircumflex
ENCODING 194
SWIDTH 800 0
DWIDTH 10 0
BBX 9 10 0 0
BITMAP
6600
9900
9300
d600
5c00
1400
1200
1200
5200
b180
ENDCHAR
STARTCHAR Atilde
ENCODING 195
SWIDTH 800 0
DWIDTH 10 0
BBX 8 11 1 -3
BITMAP
10
26
4b
91
a1
ab
ca
64
b0
90
60
ENDCHAR
STARTCHAR Adiaeresis
ENCODING 196
SWIDTH 800 0
DWIDTH 10 0
BBX 9 9 0 0
BITMAP
1c00
6300
6300
9480
8880
9480
6300
6300
1c00
ENDCHAR
STARTCHAR Aring
ENCODING 197
SWIDTH 800 0
DWIDTH 10 0
BBX 9 9 0 0
BITMAP
1c00
6300
4900
8880
be80
8880
4900
6300
1c00
ENDCHAR
STARTCHAR AE
ENCODING 198
SWIDTH 800 0
DWIDTH 10 0
BBX 9 9 0 0
BITMAP
1c80
6300
4300
8480
8880
9080
6100
6300
9c00
ENDCHAR
STARTCHAR Ccedilla
ENCODING 199
SWIDTH 800 0
DWIDTH 10 0
BBX 8 6 1 0
BITMAP
3c
42
81
81
81
81
ENDCHAR
STARTCHAR Egrave
ENCODING 200
SWIDTH 800 0
DWIDTH 10 0
BBX 8 6 1 0
BITMAP
81
81
81
81
42
3c
ENDCHAR
STARTCHAR Eacute
ENCODING 201
SWIDTH 720 0
DWIDTH 9 0
BBX 8 6 1 0
BITMAP
fc
02
01
01
02
fc
ENDCHAR
STARTCHAR Ecircumflex
ENCODING 202
SWIDTH 720 0
DWIDTH 9 0
BBX 8 8 1 -2
BITMAP
fc
02
01
01
02
fc
00
ff
ENDCHAR
STARTCHAR Ediaeresis
ENCODING 203
SWIDTH 720 0
DWIDTH 9 0
BBX 8 8 0 -1
BITMAP
02
3f
44
88
88
50
3f
20
ENDCHAR
STARTCHAR Igrave
ENCODING 204
SWIDTH 720 0
DWIDTH 9 0
BBX 8 6 0 0
BITMAP
3f
40
80
80
40
3f
ENDCHAR
STARTCHAR Iacute
ENCODING 205
SWIDTH 720 0
DWIDTH 9 0
BBX 8 8 0 -2
BITMAP
3f
40
80
80
40
3f
00
ff
ENDCHAR
STARTCHAR Icircumflex
ENCODING 206
SWIDTH 640 0
DWIDTH 8 0
BBX 6 6 1 0
BITMAP
7c
80
fc
80
80
7c
ENDCHAR
STARTCHAR Idiaeresis
ENCODING 207
SWIDTH 640 0
DWIDTH 8 0
BBX 6 8 1 -1
BITMAP
04
7c
88
fc
90
a0
7c
40
ENDCHAR
STARTCHAR ETH
ENCODING 208
SWIDTH 800 0
DWIDTH 10 0
BBX 9 9 0 0
BITMAP
0080
0100
0200
0400
0800
1000
2000
4000
ff80
ENDCHAR
STARTCHAR Ntilde
ENCODING 209
SWIDTH 720 0
DWIDTH 9 0
BBX 8 9 0 0
BITMAP
ff
81
42
42
24
24
24
18
18
ENDCHAR
STARTCHAR Otilde
ENCODING 213
SWIDTH 800 0
DWIDTH 10 0
BBX 9 11 0 -1
BITMAP
ff80
4100
4100
4100
4100
4100
4100
4100
4100
4100
e380
ENDCHAR
STARTCHAR Odiaeresis
ENCODING 214
SWIDTH 560 0
DWIDTH 7 0
BBX 7 12 0 0
BITMAP
02
02
02
04
04
04
64
a8
28
28
10
10
ENDCHAR
STARTCHAR multiply
ENCODING 215
SWIDTH 240 0
DWIDTH 3 0
BBX 2 1 1 3
BITMAP
c0
ENDCHAR
STARTCHAR Ooblique
ENCODING 216
SWIDTH 720 0
DWIDTH 9 0
BBX 7 4 1 0
BITMAP
fe
02
02
02
ENDCHAR
STARTCHAR Ugrave
ENCODING 217
SWIDTH 640 0
DWIDTH 8 0
BBX 6 6 1 0
BITMAP
30
30
48
48
84
84
ENDCHAR
STARTCHAR Uacute
ENCODING 218
SWIDTH 640 0
DWIDTH 8 0
BBX 6 6 1 0
BITMAP
84
84
48
48
30
30
ENDCHAR
STARTCHAR Ucircumflex
ENCODING 219
SWIDTH 1040 0
DWIDTH 13 0
BBX 11 5 1 1
BITMAP
2080
7fc0
c060
7fc0
2080
ENDCHAR
STARTCHAR Udiaeresis
ENCODING 220
SWIDTH 960 0
DWIDTH 12 0
BBX 11 5 0 1
BITMAP
2000
7fe0
c000
7fe0
2000
ENDCHAR
STARTCHAR Yacute
ENCODING 221
SWIDTH 640 0
DWIDTH 8 0
BBX 5 12 1 -1
BITMAP
20
70
d8
50
50
50
50
50
50
50
50
50
ENDCHAR
STARTCHAR THORN
ENCODING 222
SWIDTH 960 0
DWIDTH 12 0
BBX 11 5 1 1
BITMAP
0080
ffc0
0060
ffc0
0080
ENDCHAR
STARTCHAR ssharp
ENCODING 223
SWIDTH 640 0
DWIDTH 8 0
BBX 5 12 1 0
BITMAP
50
50
50
50
50
50
50
50
50
d8
70
20
ENDCHAR
STARTCHAR aring
ENCODING 229
SWIDTH 720 0
DWIDTH 9 0
BBX 8 11 0 -1
BITMAP
fe
82
40
20
10
08
10
20
40
81
ff
ENDCHAR
STARTCHAR oint
ENCODING 156
SWIDTH 477 0
DWIDTH 6 0
BBX 5 14 1 -2
BITMAP
18
18
20
20
20
70
a8
a8
70
20
20
20
c0
c0
ENDCHAR
STARTCHAR ointlarge
ENCODING 157
SWIDTH 556 0
DWIDTH 11 0
BBX 10 28 1 -11
BITMAP
00c0
00c0
0180
0100
0100
0100
0100
0200
0200
0200
0e00
1300
2480
2480
2480
1500
0e00
0800
0800
0800
0800
1000
1000
1000
1000
2000
a000
c000
ENDCHAR
STARTCHAR dotlessi
ENCODING 158
SWIDTH 318 0
DWIDTH 4 0
BBX 2 5 1 0
BITMAP
80
c0
80
80
c0
ENDCHAR
STARTCHAR dotlessj
ENCODING 159
SWIDTH 397 0
DWIDTH 5 0
BBX 3 7 1 -2
BITMAP
60
60
20
40
40
40
80
ENDCHAR
ENDFONT
