STARTFONT 2.1
COMMENT 
COMMENT  Copyright 1984, 1987 Adobe Systems, Inc.
COMMENT  Portions Copyright 1988 Digital Equipment Corporation
COMMENT 
COMMENT  Adobe is a registered trademark of Adobe Systems, Inc.  Permission 
COMMENT  to use these trademarks is hereby granted only in association with the
COMMENT  images described in this file.
COMMENT 
COMMENT  Permission to use, copy, modify, and distribute this software and
COMMENT  its documentation for any purpose and without fee is hereby granted,
COMMENT  provided that the above copyright notices appear in all copies and
COMMENT  that both those copyright notices and this permission notice appear
COMMENT  in supporting documentation, and that the names of Adobe Systems and
COMMENT  Digital Equipment Corporation not be used in advertising or
COMMENT  publicity pertaining to distribution of the software without
COMMENT  specific, written prior permission.  Adobe Systems and Digital
COMMENT  Equipment Corporation make no representations about the suitability
COMMENT  of this software for any purpose.  It is provided "as is" without
COMMENT  express or implied warranty.
COMMENT 
COMMENT  ADOBE SYSTEMS AND DIGITAL EQUIPMENT CORPORATION DISCLAIM ALL
COMMENT  WARRANTIES WITH REGARD TO THIS SOFTWARE, INCLUDING ALL IMPLIED
COMMENT  WARRANTIES OF MERCHANTABILITY AND FITNESS, IN NO EVENT SHALL ADOBE
COMMENT  SYSTEMS AND DIGITAL EQUIPMENT CORPORATION BE LIABLE FOR ANY SPECIAL,
COMMENT  INDIRECT OR CONSEQUENTIAL DAMAGES OR ANY DAMAGES WHATSOEVER
COMMENT  RESULTING FROM LOSS OF USE, DATA OR PROFITS, WHETHER IN AN ACTION OF
COMMENT  CONTRACT, NEGLIGENCE OR OTHER TORTIOUS ACTION, ARISING OUT OF OR IN
COMMENT  CONNECTION WITH THE USE OR PERFORMANCE OF THIS SOFTWARE.
COMMENT
COMMENT
COMMENT Begin LogicalFontDescription
COMMENT END LogicalFontDescription
COMMENT ***** end of inserted font properties
COMMENT  FONT -Mathpad-MathSymbol-Medium-R-Normal--12-120-75-75-P-77-MATHPAD-FONTSPECIFIC
FONT -Mathpad-MathSymbol-Medium-R-Normal--10-100-75-75-P-67-MATHPAD-FONTSPECIFIC
SIZE 10 75 75
FONTBOUNDINGBOX 11 13 -1 -3
STARTPROPERTIES 24
DEFAULT_CHAR 32
FONTNAME_REGISTRY ""
FOUNDRY "Mathpad"
FAMILY_NAME "MathSymbol"
WEIGHT_NAME "Medium"
SLANT "R"
SETWIDTH_NAME "Normal"
ADD_STYLE_NAME ""
PIXEL_SIZE 10
POINT_SIZE 100
RESOLUTION_X 75
RESOLUTION_Y 75
SPACING "P"
AVERAGE_WIDTH 67
CHARSET_REGISTRY "MATHPAD"
CHARSET_ENCODING "FONTSPECIFIC"
CHARSET_COLLECTIONS "FONTSPECIFIC"
FONT_ASCENT 8
FONT_DESCENT 3
FULL_NAME "MathSymbol"
DEVICE_FONT_NAME "mathsymbol"
CAP_HEIGHT 8
X_HEIGHT 5
COPYRIGHT "Copyright (c) 1992 Mathpad, Copyright (c) 1984 Adobe Systems, Inc., Portions Copyright 1988 Digital Equipment Corp."
ENDPROPERTIES
CHARS 223
STARTCHAR openbanana
ENCODING 16
SWIDTH 417 0
DWIDTH 6 0
BBX 5 10 0 -2
BITMAP
f8
90
90
a0
a0
a0
90
90
90
f8
ENDCHAR
STARTCHAR closebanana
ENCODING 17
SWIDTH 417 0
DWIDTH 6 0
BBX 5 10 0 -2
BITMAP
f8
28
28
18
18
18
28
28
48
f8
ENDCHAR
STARTCHAR space
ENCODING 32
SWIDTH 208 0
DWIDTH 3 0
BBX 1 1 0 0
BITMAP
00
ENDCHAR
STARTCHAR bar
ENCODING 33
SWIDTH 278 0
DWIDTH 3 0
BBX 1 8 1 0
BITMAP
80
80
80
80
80
80
80
80
ENDCHAR
STARTCHAR quotedbl
ENCODING 34
SWIDTH 672 0
DWIDTH 7 0
BBX 7 7 0 0
BITMAP
82
44
7c
28
28
10
10
ENDCHAR
STARTCHAR numbersign
ENCODING 35
SWIDTH 458 0
DWIDTH 7 0
BBX 6 8 0 0
BITMAP
48
48
fc
48
48
fc
48
48
ENDCHAR
STARTCHAR dollar
ENCODING 36
SWIDTH 576 0
DWIDTH 6 0
BBX 5 7 0 0
BITMAP
f8
08
08
78
08
08
f8
ENDCHAR
STARTCHAR half
ENCODING 37
SWIDTH 694 0
DWIDTH 8 0
BBX 8 8 0 0
BITMAP
c2
42
44
e8
12
25
42
47
ENDCHAR
STARTCHAR quarter
ENCODING 38
SWIDTH 648 0
DWIDTH 8 0
BBX 8 8 0 0
BITMAP
c2
42
44
e8
12
26
4f
42
ENDCHAR
STARTCHAR apostrophe
ENCODING 39
SWIDTH 480 0
DWIDTH 5 0
BBX 4 5 0 0
BITMAP
e0
10
70
10
e0
ENDCHAR
STARTCHAR openbrace
ENCODING 40
SWIDTH 400 0
DWIDTH 5 0
BBX 4 10 0 -2
BITMAP
10
20
60
a0
a0
a0
a0
60
20
10
ENDCHAR
STARTCHAR closebrace
ENCODING 41
SWIDTH 400 0
DWIDTH 5 0
BBX 4 10 0 -2
BITMAP
80
40
60
50
50
50
50
60
40
80
ENDCHAR
STARTCHAR bigdot
ENCODING 42
SWIDTH 417 0
DWIDTH 5 0
BBX 4 4 1 1
BITMAP
60
f0
f0
60
ENDCHAR
STARTCHAR bigopendot
ENCODING 43
SWIDTH 458 0
DWIDTH 6 0
BBX 4 4 1 1
BITMAP
60
90
90
60
ENDCHAR
STARTCHAR comma
ENCODING 44
SWIDTH 192 0
DWIDTH 2 0
BBX 2 3 0 -2
BITMAP
40
40
80
ENDCHAR
STARTCHAR minus
ENCODING 45
SWIDTH 576 0
DWIDTH 6 0
BBX 5 1 0 2
BITMAP
f8
ENDCHAR
STARTCHAR period
ENCODING 46
SWIDTH 192 0
DWIDTH 2 0
BBX 1 2 0 0
BITMAP
80
80
ENDCHAR
STARTCHAR openbracel
ENCODING 47
SWIDTH 389 0
DWIDTH 4 0
BBX 3 10 0 -2
BITMAP
20
60
a0
a0
a0
a0
a0
a0
60
20
ENDCHAR
STARTCHAR closebracel
ENCODING 48
SWIDTH 389 0
DWIDTH 4 0
BBX 3 10 0 -2
BITMAP
80
c0
a0
a0
a0
a0
a0
a0
c0
80
ENDCHAR
STARTCHAR openbracket
ENCODING 49
SWIDTH 417 0
DWIDTH 5 0
BBX 4 10 0 -2
BITMAP
f0
a0
a0
a0
a0
a0
a0
a0
a0
f0
ENDCHAR
STARTCHAR closebracket
ENCODING 50
SWIDTH 417 0
DWIDTH 5 0
BBX 4 10 0 -2
BITMAP
f0
50
50
50
50
50
50
50
50
f0
ENDCHAR
STARTCHAR bopenbracket
ENCODING 51
SWIDTH 450 0
DWIDTH 6 0
BBX 5 10 0 -2
BITMAP
b8
a0
a0
a0
a0
a0
a0
a0
a0
b8
ENDCHAR
STARTCHAR bclosebracket
ENCODING 52
SWIDTH 450 0
DWIDTH 6 0
BBX 5 10 0 -2
BITMAP
e8
28
28
28
28
28
28
28
28
e8
ENDCHAR
STARTCHAR lefttriangle
ENCODING 53
SWIDTH 417 0
DWIDTH 5 0
BBX 4 7 0 0
BITMAP
10
30
50
90
50
30
10
ENDCHAR
STARTCHAR righttriangle
ENCODING 54
SWIDTH 417 0
DWIDTH 5 0
BBX 4 7 0 0
BITMAP
80
c0
a0
90
a0
c0
80
ENDCHAR
STARTCHAR boolean
ENCODING 55
SWIDTH 533 0
DWIDTH 7 0
BBX 6 8 0 0
BITMAP
f8
a4
a4
a4
b8
a4
a4
f8
ENDCHAR
STARTCHAR posint
ENCODING 56
SWIDTH 533 0
DWIDTH 7 0
BBX 6 8 0 0
BITMAP
e4
b4
b4
b4
ac
ac
ac
e4
ENDCHAR
STARTCHAR float
ENCODING 57
SWIDTH 533 0
DWIDTH 7 0
BBX 6 8 0 0
BITMAP
f8
a4
a4
a4
b8
b0
a8
e4
ENDCHAR
STARTCHAR littleless
ENCODING 58
SWIDTH 267 0
DWIDTH 3 0
BBX 3 5 0 1
BITMAP
20
40
80
40
20
ENDCHAR
STARTCHAR littlegreater
ENCODING 59
SWIDTH 267 0
DWIDTH 3 0
BBX 3 5 0 1
BITMAP
80
40
20
40
80
ENDCHAR
STARTCHAR less
ENCODING 60
SWIDTH 672 0
DWIDTH 7 0
BBX 6 5 0 0
BITMAP
0c
30
c0
30
0c
ENDCHAR
STARTCHAR equal
ENCODING 61
SWIDTH 576 0
DWIDTH 6 0
BBX 5 3 0 1
BITMAP
f8
00
f8
ENDCHAR
STARTCHAR greater
ENCODING 62
SWIDTH 576 0
DWIDTH 6 0
BBX 6 5 0 0
BITMAP
c0
30
0c
30
c0
ENDCHAR
STARTCHAR blackcross
ENCODING 63
SWIDTH 600 0
DWIDTH 8 0
BBX 7 7 0 0
BITMAP
7c
ba
d6
ee
d6
ba
7c
ENDCHAR
STARTCHAR at
ENCODING 64
SWIDTH 576 0
DWIDTH 6 0
BBX 5 6 0 0
BITMAP
68
b0
00
f8
00
f8
ENDCHAR
STARTCHAR A
ENCODING 65
SWIDTH 768 0
DWIDTH 8 0
BBX 7 7 0 0
BITMAP
10
38
28
28
7c
44
ee
ENDCHAR
STARTCHAR B
ENCODING 66
SWIDTH 576 0
DWIDTH 6 0
BBX 5 7 0 0
BITMAP
f0
48
48
70
48
48
f0
ENDCHAR
STARTCHAR C
ENCODING 67
SWIDTH 768 0
DWIDTH 8 0
BBX 7 7 0 0
BITMAP
ee
44
28
10
28
44
ee
ENDCHAR
STARTCHAR D
ENCODING 68
SWIDTH 672 0
DWIDTH 7 0
BBX 6 7 0 0
BITMAP
30
30
58
48
8c
84
fc
ENDCHAR
STARTCHAR E
ENCODING 69
SWIDTH 576 0
DWIDTH 6 0
BBX 5 7 0 0
BITMAP
f8
48
40
70
40
48
f8
ENDCHAR
STARTCHAR F
ENCODING 70
SWIDTH 768 0
DWIDTH 8 0
BBX 7 7 0 0
BITMAP
38
10
7c
92
7c
10
38
ENDCHAR
STARTCHAR G
ENCODING 71
SWIDTH 576 0
DWIDTH 6 0
BBX 5 7 0 0
BITMAP
f8
48
40
40
40
40
e0
ENDCHAR
STARTCHAR H
ENCODING 72
SWIDTH 768 0
DWIDTH 8 0
BBX 7 7 0 0
BITMAP
ee
44
44
7c
44
44
ee
ENDCHAR
STARTCHAR I
ENCODING 73
SWIDTH 288 0
DWIDTH 3 0
BBX 3 7 0 0
BITMAP
e0
40
40
40
40
40
e0
ENDCHAR
STARTCHAR J
ENCODING 74
SWIDTH 672 0
DWIDTH 7 0
BBX 6 7 0 0
BITMAP
30
28
98
4c
48
48
30
ENDCHAR
STARTCHAR K
ENCODING 75
SWIDTH 672 0
DWIDTH 7 0
BBX 6 7 0 0
BITMAP
ec
48
50
60
50
48
ec
ENDCHAR
STARTCHAR L
ENCODING 76
SWIDTH 672 0
DWIDTH 7 0
BBX 7 7 0 0
BITMAP
10
10
28
28
44
44
ee
ENDCHAR
STARTCHAR M
ENCODING 77
SWIDTH 960 0
DWIDTH 10 0
BBX 9 7 0 0
BITMAP
e380
6300
5500
5500
5d00
4900
eb80
ENDCHAR
STARTCHAR N
ENCODING 78
SWIDTH 768 0
DWIDTH 8 0
BBX 7 7 0 0
BITMAP
ee
64
54
54
4c
4c
e4
ENDCHAR
STARTCHAR O
ENCODING 79
SWIDTH 672 0
DWIDTH 7 0
BBX 6 7 0 0
BITMAP
78
cc
84
84
84
cc
78
ENDCHAR
STARTCHAR P
ENCODING 80
SWIDTH 768 0
DWIDTH 8 0
BBX 7 7 0 0
BITMAP
fe
44
44
44
44
44
ee
ENDCHAR
STARTCHAR Q
ENCODING 81
SWIDTH 672 0
DWIDTH 7 0
BBX 6 7 0 0
BITMAP
78
cc
84
b4
84
cc
78
ENDCHAR
STARTCHAR R
ENCODING 82
SWIDTH 576 0
DWIDTH 6 0
BBX 5 7 0 0
BITMAP
f0
48
48
70
40
40
e0
ENDCHAR
STARTCHAR S
ENCODING 83
SWIDTH 576 0
DWIDTH 6 0
BBX 5 7 0 0
BITMAP
f8
88
40
20
40
88
f8
ENDCHAR
STARTCHAR T
ENCODING 84
SWIDTH 576 0
DWIDTH 6 0
BBX 5 7 0 0
BITMAP
f8
a8
20
20
20
20
70
ENDCHAR
STARTCHAR U
ENCODING 85
SWIDTH 768 0
DWIDTH 8 0
BBX 7 7 0 0
BITMAP
ee
44
28
38
10
10
38
ENDCHAR
STARTCHAR V
ENCODING 86
SWIDTH 480 0
DWIDTH 5 0
BBX 4 7 0 -2
BITMAP
70
80
80
80
60
10
60
ENDCHAR
STARTCHAR W
ENCODING 87
SWIDTH 864 0
DWIDTH 9 0
BBX 8 7 0 0
BITMAP
3c
66
42
42
66
a5
e7
ENDCHAR
STARTCHAR X
ENCODING 88
SWIDTH 672 0
DWIDTH 7 0
BBX 6 7 0 0
BITMAP
78
48
00
30
00
84
fc
ENDCHAR
STARTCHAR Y
ENCODING 89
SWIDTH 864 0
DWIDTH 9 0
BBX 9 7 0 0
BITMAP
dd80
4900
4900
3e00
0800
0800
1c00
ENDCHAR
STARTCHAR Z
ENCODING 90
SWIDTH 576 0
DWIDTH 6 0
BBX 5 7 0 0
BITMAP
f8
88
10
20
40
88
f8
ENDCHAR
STARTCHAR empty
ENCODING 91
SWIDTH 533 0
DWIDTH 7 0
BBX 6 9 1 -1
BITMAP
04
38
48
94
a4
48
70
80
80
ENDCHAR
STARTCHAR therefore
ENCODING 92
SWIDTH 719 0
DWIDTH 8 0
BBX 6 5 1 0
BITMAP
20
20
00
84
84
ENDCHAR
STARTCHAR top
ENCODING 93
SWIDTH 533 0
DWIDTH 7 0
BBX 6 8 0 0
BITMAP
fc
10
10
10
10
10
10
10
ENDCHAR
STARTCHAR bottom
ENCODING 94
SWIDTH 548 0
DWIDTH 7 0
BBX 6 8 0 0
BITMAP
10
10
10
10
10
10
10
fc
ENDCHAR
STARTCHAR underscore
ENCODING 95
SWIDTH 417 0
DWIDTH 5 0
BBX 5 1 0 -3
BITMAP
f8
ENDCHAR
STARTCHAR radicalex
ENCODING 96
SWIDTH 417 0
DWIDTH 5 0
BBX 6 1 0 9
BITMAP
fc
ENDCHAR
STARTCHAR a
ENCODING 97
SWIDTH 672 0
DWIDTH 7 0
BBX 6 5 0 0
BITMAP
68
a8
90
94
68
ENDCHAR
STARTCHAR b
ENCODING 98
SWIDTH 480 0
DWIDTH 5 0
BBX 4 10 0 -2
BITMAP
60
90
90
a0
90
90
d0
a0
80
80
ENDCHAR
STARTCHAR c
ENCODING 99
SWIDTH 576 0
DWIDTH 6 0
BBX 5 7 0 -2
BITMAP
c8
50
50
20
50
50
98
ENDCHAR
STARTCHAR d
ENCODING 100
SWIDTH 480 0
DWIDTH 5 0
BBX 4 8 0 0
BITMAP
60
90
40
60
90
90
90
60
ENDCHAR
STARTCHAR e
ENCODING 101
SWIDTH 480 0
DWIDTH 5 0
BBX 4 5 0 0
BITMAP
60
90
c0
90
60
ENDCHAR
STARTCHAR f
ENCODING 102
SWIDTH 576 0
DWIDTH 6 0
BBX 5 9 0 -2
BITMAP
20
20
70
a8
a8
a8
70
20
20
ENDCHAR
STARTCHAR g
ENCODING 103
SWIDTH 576 0
DWIDTH 6 0
BBX 5 7 0 -2
BITMAP
c8
a8
28
30
10
20
20
ENDCHAR
STARTCHAR h
ENCODING 104
SWIDTH 576 0
DWIDTH 6 0
BBX 5 7 0 -2
BITMAP
58
e8
48
48
48
08
08
ENDCHAR
STARTCHAR i
ENCODING 105
SWIDTH 384 0
DWIDTH 4 0
BBX 3 5 0 0
BITMAP
c0
40
40
40
60
ENDCHAR
STARTCHAR j
ENCODING 106
SWIDTH 576 0
DWIDTH 6 0
BBX 5 7 0 -2
BITMAP
30
a8
a8
a8
70
20
20
ENDCHAR
STARTCHAR k
ENCODING 107
SWIDTH 576 0
DWIDTH 6 0
BBX 5 5 0 0
BITMAP
48
d8
60
50
48
ENDCHAR
STARTCHAR l
ENCODING 108
SWIDTH 576 0
DWIDTH 6 0
BBX 6 8 0 0
BITMAP
c0
a0
20
20
50
50
94
88
ENDCHAR
STARTCHAR m
ENCODING 109
SWIDTH 576 0
DWIDTH 6 0
BBX 5 7 0 -2
BITMAP
90
90
90
90
e8
80
c0
ENDCHAR
STARTCHAR n
ENCODING 110
SWIDTH 576 0
DWIDTH 6 0
BBX 5 5 0 0
BITMAP
88
88
50
50
20
ENDCHAR
STARTCHAR o
ENCODING 111
SWIDTH 480 0
DWIDTH 5 0
BBX 4 5 0 0
BITMAP
60
90
90
90
60
ENDCHAR
STARTCHAR p
ENCODING 112
SWIDTH 576 0
DWIDTH 6 0
BBX 5 5 0 0
BITMAP
f8
50
50
58
d0
ENDCHAR
STARTCHAR q
ENCODING 113
SWIDTH 480 0
DWIDTH 5 0
BBX 4 7 0 0
BITMAP
60
90
90
f0
90
90
60
ENDCHAR
STARTCHAR r
ENCODING 114
SWIDTH 480 0
DWIDTH 5 0
BBX 4 8 0 -3
BITMAP
60
90
90
90
e0
80
80
80
ENDCHAR
STARTCHAR s
ENCODING 115
SWIDTH 576 0
DWIDTH 6 0
BBX 5 5 0 0
BITMAP
78
90
90
90
60
ENDCHAR
STARTCHAR t
ENCODING 116
SWIDTH 480 0
DWIDTH 5 0
BBX 4 5 0 0
BITMAP
f0
40
40
50
60
ENDCHAR
STARTCHAR u
ENCODING 117
SWIDTH 576 0
DWIDTH 6 0
BBX 5 5 0 0
BITMAP
50
c8
48
48
30
ENDCHAR
STARTCHAR v
ENCODING 118
SWIDTH 768 0
DWIDTH 8 0
BBX 7 6 0 0
BITMAP
fe
44
82
92
92
6c
ENDCHAR
STARTCHAR w
ENCODING 119
SWIDTH 768 0
DWIDTH 8 0
BBX 7 5 0 0
BITMAP
44
82
92
92
6c
ENDCHAR
STARTCHAR x
ENCODING 120
SWIDTH 480 0
DWIDTH 5 0
BBX 4 10 0 -2
BITMAP
80
b0
40
70
80
80
80
60
10
70
ENDCHAR
STARTCHAR y
ENCODING 121
SWIDTH 672 0
DWIDTH 7 0
BBX 7 7 0 -2
BITMAP
92
54
54
54
38
10
10
ENDCHAR
STARTCHAR z
ENCODING 122
SWIDTH 480 0
DWIDTH 5 0
BBX 4 10 0 -2
BITMAP
80
b0
60
80
80
80
80
60
10
70
ENDCHAR
STARTCHAR lessless
ENCODING 123
SWIDTH 467 0
DWIDTH 6 0
BBX 5 5 0 0
BITMAP
28
50
a0
50
28
ENDCHAR
STARTCHAR settimes
ENCODING 124
SWIDTH 600 0
DWIDTH 8 0
BBX 7 7 0 0
BITMAP
82
44
28
10
28
44
82
ENDCHAR
STARTCHAR greatergreater
ENCODING 125
SWIDTH 467 0
DWIDTH 6 0
BBX 5 5 0 0
BITMAP
a0
50
28
50
a0
ENDCHAR
STARTCHAR similar
ENCODING 126
SWIDTH 458 0
DWIDTH 7 0
BBX 6 2 0 2
BITMAP
64
98
ENDCHAR
STARTCHAR ltriangleline
ENCODING 128
SWIDTH 417 0
DWIDTH 5 0
BBX 4 9 0 -2
BITMAP
10
30
50
90
50
30
10
00
f0
ENDCHAR
STARTCHAR rtriangleline
ENCODING 129
SWIDTH 417 0
DWIDTH 5 0
BBX 4 9 0 -2
BITMAP
80
c0
a0
90
a0
c0
80
00
f0
ENDCHAR
STARTCHAR similardot
ENCODING 130
SWIDTH 458 0
DWIDTH 7 0
BBX 6 4 0 2
BITMAP
10
00
64
98
ENDCHAR
STARTCHAR lleadstonat
ENCODING 131
SWIDTH 667 0
DWIDTH 8 0
BBX 7 5 0 1
BITMAP
10
04
62
9e
04
ENDCHAR
STARTCHAR rleadstonat
ENCODING 132
SWIDTH 667 0
DWIDTH 8 0
BBX 8 5 0 1
BITMAP
08
20
59
a6
40
ENDCHAR
STARTCHAR dblleadstonat
ENCODING 133
SWIDTH 800 0
DWIDTH 10 0
BBX 9 5 0 1
BITMAP
0800
2100
5980
e680
4100
ENDCHAR
STARTCHAR uptriangle
ENCODING 134
SWIDTH 533 0
DWIDTH 7 0
BBX 7 4 0 1
BITMAP
10
28
44
fe
ENDCHAR
STARTCHAR downtriangle
ENCODING 135
SWIDTH 533 0
DWIDTH 7 0
BBX 7 4 0 1
BITMAP
fe
44
28
10
ENDCHAR
STARTCHAR filluptriangle
ENCODING 136
SWIDTH 533 0
DWIDTH 7 0
BBX 6 4 0 1
BITMAP
10
38
7c
fc
ENDCHAR
STARTCHAR filldowntriangle
ENCODING 137
SWIDTH 533 0
DWIDTH 7 0
BBX 6 4 0 1
BITMAP
fc
7c
38
10
ENDCHAR
STARTCHAR harrowleft
ENCODING 138
SWIDTH 733 0
DWIDTH 9 0
BBX 8 5 0 0
BITMAP
22
41
fe
40
20
ENDCHAR
STARTCHAR harrowright
ENCODING 139
SWIDTH 733 0
DWIDTH 9 0
BBX 8 5 0 0
BITMAP
44
82
7f
02
04
ENDCHAR
STARTCHAR harparrowleft
ENCODING 140
SWIDTH 600 0
DWIDTH 8 0
BBX 7 3 0 3
BITMAP
20
40
fe
ENDCHAR
STARTCHAR harparrowright
ENCODING 141
SWIDTH 600 0
DWIDTH 8 0
BBX 7 3 0 3
BITMAP
08
04
fe
ENDCHAR
STARTCHAR arrowdblleft
ENCODING 142
SWIDTH 733 0
DWIDTH 9 0
BBX 8 5 0 0
BITMAP
28
50
ff
50
28
ENDCHAR
STARTCHAR arrowdblright
ENCODING 143
SWIDTH 733 0
DWIDTH 9 0
BBX 8 5 0 0
BITMAP
14
0a
ff
0a
14
ENDCHAR
STARTCHAR leftjoin
ENCODING 144
SWIDTH 640 0
DWIDTH 8 0
BBX 7 6 0 0
BITMAP
c2
e6
da
da
e6
c2
ENDCHAR
STARTCHAR rightjoin
ENCODING 145
SWIDTH 640 0
DWIDTH 8 0
BBX 7 6 0 0
BITMAP
86
ce
b6
b6
ce
86
ENDCHAR
STARTCHAR circleequal
ENCODING 146
SWIDTH 658 0
DWIDTH 8 0
BBX 8 8 0 0
BITMAP
18
66
7e
81
81
7e
66
18
ENDCHAR
STARTCHAR lleadsto
ENCODING 147
SWIDTH 667 0
DWIDTH 8 0
BBX 8 5 0 0
BITMAP
04
62
9f
02
04
ENDCHAR
STARTCHAR rleadsto
ENCODING 148
SWIDTH 667 0
DWIDTH 8 0
BBX 8 5 0 0
BITMAP
20
59
e6
40
20
ENDCHAR
STARTCHAR dblleadsto
ENCODING 149
SWIDTH 800 0
DWIDTH 10 0
BBX 10 5 0 0
BITMAP
2100
5080
e9c0
4680
2100
ENDCHAR
STARTCHAR davidstar
ENCODING 150
SWIDTH 533 0
DWIDTH 7 0
BBX 6 5 0 1
BITMAP
30
fc
48
fc
30
ENDCHAR
STARTCHAR lesssim
ENCODING 151
SWIDTH 458 0
DWIDTH 6 0
BBX 5 7 0 -1
BITMAP
08
30
c0
30
48
a8
10
ENDCHAR
STARTCHAR greatersim
ENCODING 152
SWIDTH 458 0
DWIDTH 6 0
BBX 5 7 0 0
BITMAP
80
60
18
60
c0
a8
10
ENDCHAR
STARTCHAR dbltop
ENCODING 153
SWIDTH 533 0
DWIDTH 7 0
BBX 7 8 0 0
BITMAP
fe
28
28
28
28
28
28
28
ENDCHAR
STARTCHAR dblbottom
ENCODING 154
SWIDTH 548 0
DWIDTH 7 0
BBX 6 8 0 0
BITMAP
28
28
28
28
28
28
28
fc
ENDCHAR
STARTCHAR fivestar
ENCODING 155
SWIDTH 533 0
DWIDTH 7 0
BBX 6 6 0 1
BITMAP
20
20
f8
20
50
88
ENDCHAR
STARTCHAR exclamdown
ENCODING 161
SWIDTH 672 0
DWIDTH 7 0
BBX 6 7 0 0
BITMAP
8c
d4
70
20
20
20
70
ENDCHAR
STARTCHAR cent
ENCODING 162
SWIDTH 288 0
DWIDTH 3 0
BBX 3 3 0 5
BITMAP
20
40
80
ENDCHAR
STARTCHAR sterling
ENCODING 163
SWIDTH 576 0
DWIDTH 6 0
BBX 5 7 0 0
BITMAP
08
30
c0
30
08
00
f8
ENDCHAR
STARTCHAR currency
ENCODING 164
SWIDTH 288 0
DWIDTH 3 0
BBX 4 7 -1 0
BITMAP
10
10
20
20
40
40
80
ENDCHAR
STARTCHAR yen
ENCODING 165
SWIDTH 672 0
DWIDTH 7 0
BBX 7 3 0 1
BITMAP
6c
92
6c
ENDCHAR
STARTCHAR bigbox
ENCODING 166
SWIDTH 533 0
DWIDTH 7 0
BBX 6 8 0 0
BITMAP
fc
84
84
84
84
84
84
fc
ENDCHAR
STARTCHAR lessequal
ENCODING 167
SWIDTH 628 0
DWIDTH 8 0
BBX 6 5 1 0
BITMAP
0c
30
fc
00
fc
ENDCHAR
STARTCHAR less
ENCODING 168
SWIDTH 628 0
DWIDTH 8 0
BBX 6 3 1 1
BITMAP
0c
30
fc
ENDCHAR
STARTCHAR greater
ENCODING 169
SWIDTH 628 0
DWIDTH 8 0
BBX 6 3 1 1
BITMAP
c0
30
fc
ENDCHAR
STARTCHAR greaterequal
ENCODING 170
SWIDTH 628 0
DWIDTH 8 0
BBX 6 5 1 0
BITMAP
c0
30
fc
00
fc
ENDCHAR
STARTCHAR arrowboth
ENCODING 171
SWIDTH 868 0
DWIDTH 11 0
BBX 9 5 1 0
BITMAP
2100
4100
ff80
4100
2100
ENDCHAR
STARTCHAR arrowleft
ENCODING 172
SWIDTH 600 0
DWIDTH 8 0
BBX 7 5 0 0
BITMAP
20
40
fe
40
20
ENDCHAR
STARTCHAR arrowup
ENCODING 173
SWIDTH 503 0
DWIDTH 6 0
BBX 5 8 1 0
BITMAP
20
70
a8
20
20
20
20
20
ENDCHAR
STARTCHAR arrowright
ENCODING 174
SWIDTH 600 0
DWIDTH 8 0
BBX 7 5 0 0
BITMAP
08
04
fe
04
08
ENDCHAR
STARTCHAR arrowdown
ENCODING 175
SWIDTH 503 0
DWIDTH 6 0
BBX 5 8 1 0
BITMAP
20
20
20
20
20
a8
70
20
ENDCHAR
STARTCHAR degree
ENCODING 176
SWIDTH 384 0
DWIDTH 4 0
BBX 3 4 0 3
BITMAP
40
a0
a0
40
ENDCHAR
STARTCHAR plusminus
ENCODING 177
SWIDTH 576 0
DWIDTH 6 0
BBX 5 7 0 0
BITMAP
20
20
f8
20
20
00
f8
ENDCHAR
STARTCHAR twosuperior
ENCODING 178
SWIDTH 384 0
DWIDTH 4 0
BBX 5 3 0 5
BITMAP
28
50
a0
ENDCHAR
STARTCHAR threesuperior
ENCODING 179
SWIDTH 576 0
DWIDTH 6 0
BBX 5 7 0 0
BITMAP
80
60
18
60
80
00
f8
ENDCHAR
STARTCHAR acute
ENCODING 180
SWIDTH 576 0
DWIDTH 6 0
BBX 5 5 0 0
BITMAP
88
50
20
50
88
ENDCHAR
STARTCHAR mu
ENCODING 181
SWIDTH 672 0
DWIDTH 7 0
BBX 6 3 0 1
BITMAP
6c
90
6c
ENDCHAR
STARTCHAR paragraph
ENCODING 182
SWIDTH 480 0
DWIDTH 5 0
BBX 4 8 0 0
BITMAP
60
90
10
70
90
90
90
60
ENDCHAR
STARTCHAR periodcentered
ENCODING 183
SWIDTH 480 0
DWIDTH 5 0
BBX 4 3 0 1
BITMAP
60
f0
60
ENDCHAR
STARTCHAR cedilla
ENCODING 184
SWIDTH 576 0
DWIDTH 6 0
BBX 5 5 0 0
BITMAP
20
00
f8
00
20
ENDCHAR
STARTCHAR onesuperior
ENCODING 185
SWIDTH 576 0
DWIDTH 6 0
BBX 5 5 0 0
BITMAP
10
f8
20
f8
40
ENDCHAR
STARTCHAR masculine
ENCODING 186
SWIDTH 576 0
DWIDTH 6 0
BBX 5 5 0 0
BITMAP
f8
00
f8
00
f8
ENDCHAR
STARTCHAR guillemotright
ENCODING 187
SWIDTH 576 0
DWIDTH 6 0
BBX 5 5 0 0
BITMAP
68
b0
00
68
b0
ENDCHAR
STARTCHAR onequarter
ENCODING 188
SWIDTH 864 0
DWIDTH 9 0
BBX 7 1 1 0
BITMAP
92
ENDCHAR
STARTCHAR defequal
ENCODING 189
SWIDTH 458 0
DWIDTH 6 0
BBX 5 6 1 0
BITMAP
20
50
88
f8
00
f8
ENDCHAR
STARTCHAR arrowhorizex
ENCODING 190
SWIDTH 600 0
DWIDTH 8 0
BBX 8 1 0 3
BITMAP
ff
ENDCHAR
STARTCHAR join
ENCODING 191
SWIDTH 548 0
DWIDTH 7 0
BBX 6 6 0 0
BITMAP
84
cc
b4
b4
cc
84
ENDCHAR
STARTCHAR Agrave
ENCODING 192
SWIDTH 768 0
DWIDTH 8 0
BBX 7 7 0 0
BITMAP
cc
66
34
5c
4c
26
62
ENDCHAR
STARTCHAR Aacute
ENCODING 193
SWIDTH 672 0
DWIDTH 7 0
BBX 6 9 0 -1
BITMAP
7c
84
c8
18
0c
04
44
e8
30
ENDCHAR
STARTCHAR Acircumflex
ENCODING 194
SWIDTH 768 0
DWIDTH 8 0
BBX 8 8 0 0
BITMAP
6c
92
92
5c
14
12
52
a3
ENDCHAR
STARTCHAR Atilde
ENCODING 195
SWIDTH 864 0
DWIDTH 9 0
BBX 7 8 1 -2
BITMAP
10
20
4c
56
62
6a
ac
c0
ENDCHAR
STARTCHAR Adiaeresis
ENCODING 196
SWIDTH 768 0
DWIDTH 8 0
BBX 7 7 0 0
BITMAP
38
44
aa
92
aa
44
38
ENDCHAR
STARTCHAR Aring
ENCODING 197
SWIDTH 768 0
DWIDTH 8 0
BBX 7 7 0 0
BITMAP
38
44
92
ba
92
44
38
ENDCHAR
STARTCHAR AE
ENCODING 198
SWIDTH 768 0
DWIDTH 8 0
BBX 7 9 0 -1
BITMAP
02
3c
4c
8a
92
a2
64
78
80
ENDCHAR
STARTCHAR Ccedilla
ENCODING 199
SWIDTH 768 0
DWIDTH 8 0
BBX 7 5 0 0
BITMAP
38
44
82
82
82
ENDCHAR
STARTCHAR Egrave
ENCODING 200
SWIDTH 768 0
DWIDTH 8 0
BBX 7 5 0 0
BITMAP
82
82
82
44
38
ENDCHAR
STARTCHAR Eacute
ENCODING 201
SWIDTH 672 0
DWIDTH 7 0
BBX 7 5 0 0
BITMAP
f8
04
02
04
f8
ENDCHAR
STARTCHAR Ecircumflex
ENCODING 202
SWIDTH 672 0
DWIDTH 7 0
BBX 7 7 0 -2
BITMAP
f8
04
02
04
f8
00
fe
ENDCHAR
STARTCHAR Ediaeresis
ENCODING 203
SWIDTH 672 0
DWIDTH 7 0
BBX 7 7 0 -1
BITMAP
04
3e
48
88
50
3e
20
ENDCHAR
STARTCHAR Igrave
ENCODING 204
SWIDTH 672 0
DWIDTH 7 0
BBX 7 5 0 0
BITMAP
3e
40
80
40
3e
ENDCHAR
STARTCHAR Iacute
ENCODING 205
SWIDTH 672 0
DWIDTH 7 0
BBX 7 7 0 -2
BITMAP
3e
40
80
40
3e
00
fe
ENDCHAR
STARTCHAR Icircumflex
ENCODING 206
SWIDTH 672 0
DWIDTH 7 0
BBX 5 5 1 0
BITMAP
78
80
f8
80
78
ENDCHAR
STARTCHAR Idiaeresis
ENCODING 207
SWIDTH 672 0
DWIDTH 7 0
BBX 5 7 1 -1
BITMAP
08
78
90
f8
a0
78
40
ENDCHAR
STARTCHAR ETH
ENCODING 208
SWIDTH 768 0
DWIDTH 8 0
BBX 7 7 0 0
BITMAP
02
04
08
10
20
40
fe
ENDCHAR
STARTCHAR Ntilde
ENCODING 209
SWIDTH 672 0
DWIDTH 7 0
BBX 6 7 0 0
BITMAP
fc
84
84
48
48
30
30
ENDCHAR
STARTCHAR circledot
ENCODING 210
SWIDTH 658 0
DWIDTH 8 0
BBX 8 8 0 0
BITMAP
18
66
42
99
99
42
66
18
ENDCHAR
STARTCHAR circleslash
ENCODING 211
SWIDTH 658 0
DWIDTH 8 0
BBX 8 8 0 0
BITMAP
18
66
46
89
91
62
66
18
ENDCHAR
STARTCHAR bararrowright
ENCODING 212
SWIDTH 742 0
DWIDTH 9 0
BBX 8 5 0 0
BITMAP
24
22
ff
22
24
ENDCHAR
STARTCHAR Otilde
ENCODING 213
SWIDTH 864 0
DWIDTH 9 0
BBX 8 9 0 -1
BITMAP
ff
42
42
42
42
42
42
42
e7
ENDCHAR
STARTCHAR Odiaeresis
ENCODING 214
SWIDTH 576 0
DWIDTH 6 0
BBX 6 10 0 0
BITMAP
04
04
08
08
48
d0
50
50
20
20
ENDCHAR
STARTCHAR multiply
ENCODING 215
SWIDTH 288 0
DWIDTH 3 0
BBX 1 1 1 2
BITMAP
80
ENDCHAR
STARTCHAR Ooblique
ENCODING 216
SWIDTH 672 0
DWIDTH 7 0
BBX 6 3 0 0
BITMAP
fc
04
04
ENDCHAR
STARTCHAR Ugrave
ENCODING 217
SWIDTH 576 0
DWIDTH 6 0
BBX 5 5 0 0
BITMAP
20
50
50
88
88
ENDCHAR
STARTCHAR Uacute
ENCODING 218
SWIDTH 576 0
DWIDTH 6 0
BBX 5 5 0 0
BITMAP
88
88
50
50
20
ENDCHAR
STARTCHAR Ucircumflex
ENCODING 219
SWIDTH 1056 0
DWIDTH 11 0
BBX 10 5 0 0
BITMAP
2100
7f80
8040
7f80
2100
ENDCHAR
STARTCHAR Udiaeresis
ENCODING 220
SWIDTH 960 0
DWIDTH 10 0
BBX 9 5 0 0
BITMAP
2000
7f80
8000
7f80
2000
ENDCHAR
STARTCHAR Yacute
ENCODING 221
SWIDTH 576 0
DWIDTH 6 0
BBX 5 10 0 0
BITMAP
20
70
d8
50
50
50
50
50
50
50
ENDCHAR
STARTCHAR THORN
ENCODING 222
SWIDTH 960 0
DWIDTH 10 0
BBX 9 5 0 0
BITMAP
0200
ff00
0080
ff00
0200
ENDCHAR
STARTCHAR ssharp
ENCODING 223
SWIDTH 576 0
DWIDTH 6 0
BBX 5 10 0 0
BITMAP
50
50
50
50
50
50
50
d8
50
20
ENDCHAR
STARTCHAR diamond
ENCODING 224
SWIDTH 412 0
DWIDTH 7 0
BBX 6 5 0 0
BITMAP
30
48
84
48
30
ENDCHAR
STARTCHAR smallbar
ENCODING 225
SWIDTH 333 0
DWIDTH 4 0
BBX 3 8 0 0
BITMAP
f0
90
90
90
90
90
90
f0
ENDCHAR
STARTCHAR circleminus
ENCODING 226
SWIDTH 658 0
DWIDTH 8 0
BBX 8 8 0 0
BITMAP
18
66
42
81
ff
42
66
18
ENDCHAR
STARTCHAR circleempty
ENCODING 227
SWIDTH 658 0
DWIDTH 8 0
BBX 8 8 0 0
BITMAP
18
66
42
81
81
42
66
18
ENDCHAR
STARTCHAR bararrowleft
ENCODING 228
SWIDTH 733 0
DWIDTH 9 0
BBX 8 5 0 0
BITMAP
24
44
ff
44
24
ENDCHAR
STARTCHAR aring
ENCODING 229
SWIDTH 672 0
DWIDTH 7 0
BBX 6 9 0 -1
BITMAP
fc
84
40
20
10
20
40
84
fc
ENDCHAR
STARTCHAR sqsubseteq
ENCODING 230
SWIDTH 600 0
DWIDTH 8 0
BBX 7 7 0 -2
BITMAP
fe
80
80
80
fe
00
fe
ENDCHAR
STARTCHAR sqsubset
ENCODING 231
SWIDTH 600 0
DWIDTH 8 0
BBX 7 5 0 0
BITMAP
fe
80
80
80
fe
ENDCHAR
STARTCHAR sqsupseteq
ENCODING 232
SWIDTH 600 0
DWIDTH 8 0
BBX 7 7 0 -2
BITMAP
fe
02
02
02
fe
00
fe
ENDCHAR
STARTCHAR sqsupset
ENCODING 233
SWIDTH 600 0
DWIDTH 8 0
BBX 7 5 0 0
BITMAP
fe
02
02
02
fe
ENDCHAR
STARTCHAR sqcup
ENCODING 234
SWIDTH 467 0
DWIDTH 6 0
BBX 5 5 0 0
BITMAP
88
88
88
88
f8
ENDCHAR
STARTCHAR sqcap
ENCODING 235
SWIDTH 467 0
DWIDTH 6 0
BBX 5 5 0 0
BITMAP
f8
88
88
88
88
ENDCHAR
STARTCHAR vdash
ENCODING 236
SWIDTH 412 0
DWIDTH 5 0
BBX 4 6 0 0
BITMAP
80
80
80
f0
80
80
ENDCHAR
STARTCHAR models
ENCODING 237
SWIDTH 400 0
DWIDTH 5 0
BBX 4 6 0 0
BITMAP
80
80
f0
80
f0
80
ENDCHAR
STARTCHAR ddagger
ENCODING 238
SWIDTH 467 0
DWIDTH 6 0
BBX 5 8 1 0
BITMAP
20
f8
20
20
20
f8
20
20
ENDCHAR
STARTCHAR dagger
ENCODING 239
SWIDTH 467 0
DWIDTH 6 0
BBX 5 8 1 0
BITMAP
20
f8
20
20
20
20
20
20
ENDCHAR
STARTCHAR wock
ENCODING 240
SWIDTH 333 0
DWIDTH 4 0
BBX 2 2 1 3
BITMAP
a0
a0
ENDCHAR
STARTCHAR twobars
ENCODING 241
SWIDTH 274 0
DWIDTH 3 0
BBX 3 8 0 0
BITMAP
a0
a0
a0
a0
a0
a0
a0
a0
ENDCHAR
STARTCHAR mapsto
ENCODING 242
SWIDTH 600 0
DWIDTH 8 0
BBX 7 5 0 0
BITMAP
88
84
fe
84
88
ENDCHAR
STARTCHAR bigone
ENCODING 243
SWIDTH 533 0
DWIDTH 7 0
BBX 5 8 1 0
BITMAP
70
d0
50
50
50
50
50
f8
ENDCHAR
STARTCHAR integral
ENCODING 244
SWIDTH 572 0
DWIDTH 8 0
BBX 4 10 1 -1
BITMAP
30
30
20
20
20
20
20
20
e0
c0
ENDCHAR
STARTCHAR dblarrowright
ENCODING 245
SWIDTH 667 0
DWIDTH 8 0
BBX 6 6 0 0
BITMAP
10
08
fc
fc
08
10
ENDCHAR
STARTCHAR dblarrowleft
ENCODING 246
SWIDTH 667 0
DWIDTH 8 0
BBX 8 6 0 0
BITMAP
10
20
ff
ff
20
10
ENDCHAR
STARTCHAR heartsuit
ENCODING 247
SWIDTH 667 0
DWIDTH 8 0
BBX 8 9 0 -1
BITMAP
66
99
81
81
42
24
24
18
18
ENDCHAR
STARTCHAR prec
ENCODING 248
SWIDTH 467 0
DWIDTH 6 0
BBX 5 5 0 1
BITMAP
08
10
e0
10
08
ENDCHAR
STARTCHAR succ
ENCODING 249
SWIDTH 467 0
DWIDTH 6 0
BBX 5 5 0 1
BITMAP
80
40
38
40
80
ENDCHAR
STARTCHAR bracketleft
ENCODING 250
SWIDTH 320 0
DWIDTH 3 0
BBX 3 12 0 -2
BITMAP
e0
80
80
80
80
80
80
80
80
80
80
e0
ENDCHAR
STARTCHAR bracketright
ENCODING 251
SWIDTH 320 0
DWIDTH 3 0
BBX 3 12 0 -2
BITMAP
e0
20
20
20
20
20
20
20
20
20
20
e0
ENDCHAR
STARTCHAR integer
ENCODING 252
SWIDTH 667 0
DWIDTH 8 0
BBX 8 8 0 0
BITMAP
ff
05
0a
14
28
50
a0
ff
ENDCHAR
STARTCHAR powertwo
ENCODING 253
SWIDTH 333 0
DWIDTH 4 0
BBX 3 5 0 4
BITMAP
c0
20
40
80
e0
ENDCHAR
STARTCHAR powerthree
ENCODING 254
SWIDTH 333 0
DWIDTH 4 0
BBX 3 5 0 4
BITMAP
c0
20
40
20
c0
ENDCHAR
STARTCHAR oint
ENCODING 156
SWIDTH 476 0
DWIDTH 5 0
BBX 5 12 1 -2
BITMAP
10
30
20
20
30
68
68
30
20
20
c0
c0
ENDCHAR
STARTCHAR ointlarge
ENCODING 157
SWIDTH 572 0
DWIDTH 9 0
BBX 8 23 1 -8
BITMAP
01
03
02
02
04
04
04
04
1e
29
29
29
29
1e
10
10
10
10
10
20
20
a0
c0
ENDCHAR
STARTCHAR dotlessi
ENCODING 158
SWIDTH 286 0
DWIDTH 3 0
BBX 1 4 1 0
BITMAP
80
80
80
80
ENDCHAR
STARTCHAR dotlessj
ENCODING 159
SWIDTH 381 0
DWIDTH 4 0
BBX 2 6 1 -2
BITMAP
80
40
80
80
80
80
ENDCHAR
ENDFONT
