STARTFONT 2.1
COMMENT 
COMMENT  Copyright 1984, 1987 Adobe Systems, Inc.
COMMENT  Portions Copyright 1988 Digital Equipment Corporation
COMMENT 
COMMENT  Adobe is a registered trademark of Adobe Systems, Inc.  Permission 
COMMENT  to use these trademarks is hereby granted only in association with the
COMMENT  images described in this file.
COMMENT 
COMMENT  Permission to use, copy, modify, and distribute this software and
COMMENT  its documentation for any purpose and without fee is hereby granted,
COMMENT  provided that the above copyright notices appear in all copies and
COMMENT  that both those copyright notices and this permission notice appear
COMMENT  in supporting documentation, and that the names of Adobe Systems and
COMMENT  Digital Equipment Corporation not be used in advertising or
COMMENT  publicity pertaining to distribution of the software without
COMMENT  specific, written prior permission.  Adobe Systems and Digital
COMMENT  Equipment Corporation make no representations about the suitability
COMMENT  of this software for any purpose.  It is provided "as is" without
COMMENT  express or implied warranty.
COMMENT 
COMMENT  ADOBE SYSTEMS AND DIGITAL EQUIPMENT CORPORATION DISCLAIM ALL
COMMENT  WARRANTIES WITH REGARD TO THIS SOFTWARE, INCLUDING ALL IMPLIED
COMMENT  WARRANTIES OF MERCHANTABILITY AND FITNESS, IN NO EVENT SHALL ADOBE
COMMENT  SYSTEMS AND DIGITAL EQUIPMENT CORPORATION BE LIABLE FOR ANY SPECIAL,
COMMENT  INDIRECT OR CONSEQUENTIAL DAMAGES OR ANY DAMAGES WHATSOEVER
COMMENT  RESULTING FROM LOSS OF USE, DATA OR PROFITS, WHETHER IN AN ACTION OF
COMMENT  CONTRACT, NEGLIGENCE OR OTHER TORTIOUS ACTION, ARISING OUT OF OR IN
COMMENT  CONNECTION WITH THE USE OR PERFORMANCE OF THIS SOFTWARE.
COMMENT 
COMMENT 
COMMENT Begin LogicalFontDescription
COMMENT END LogicalFontDescription
COMMENT ***** end of inserted font properties
COMMENT  FONT -Mathpad-MathSymbol-Medium-R-Normal--18-180-75-75-P-120-MATHPAD-FONTSPECIFIC
FONT -Mathpad-MathSymbol-Medium-R-Normal--24-240-75-75-P-161-MATHPAD-FONTSPECIFIC
SIZE 24 75 75
FONTBOUNDINGBOX 27 31 -3 -7
STARTPROPERTIES 24
DEFAULT_CHAR 32
FONTNAME_REGISTRY ""
FOUNDRY "Mathpad"
FAMILY_NAME "MathSymbol"
WEIGHT_NAME "Medium"
SLANT "R"
SETWIDTH_NAME "Normal"
ADD_STYLE_NAME ""
PIXEL_SIZE 24
POINT_SIZE 240
RESOLUTION_X 75
RESOLUTION_Y 75
SPACING "P"
AVERAGE_WIDTH 161
CHARSET_REGISTRY "MATHPAD"
CHARSET_ENCODING "FONTSPECIFIC"
CHARSET_COLLECTIONS "FONTSPECIFIC"
FONT_ASCENT 19
FONT_DESCENT 7
FULL_NAME "MathSymbol"
DEVICE_FONT_NAME "mathsymbol"
CAP_HEIGHT 19
X_HEIGHT 12
COPYRIGHT "Copyright (c) 1993 Mathpad, Copyright (c) 1984 Adobe Systems, Inc., Portions Copyright 1988 Digital Equipment Corp."
ENDPROPERTIES
CHARS 223
STARTCHAR openbanana
ENCODING 16
SWIDTH 1000 0
DWIDTH 12 0
BBX 11 24 0 -4
BITMAP
ffc0
ffc0
c180
c180
c380
c700
c700
c700
c700
ce00
ce00
cc00
cc00
ce00
c600
c700
c700
c700
c300
c180
c180
ffc0
ffc0
ffc0
ENDCHAR
STARTCHAR closebanana
ENCODING 17
SWIDTH 1000 0
DWIDTH 12 0
BBX 11 24 0 -4
BITMAP
ffc0
ffc0
70c0
70c0
70c0
38c0
38c0
18c0
18c0
0cc0
0cc0
0cc0
0cc0
0cc0
08c0
18c0
18c0
38c0
30c0
70c0
70c0
ffc0
ffc0
ffc0
ENDCHAR
STARTCHAR space
ENCODING 32
SWIDTH 500 0
DWIDTH 7 0
BBX 3 3 0 0
BITMAP
00
00
00
ENDCHAR
STARTCHAR bar
ENCODING 33
SWIDTH 667 0
DWIDTH 8 0
BBX 2 19 3 0
BITMAP
c0
c0
c0
c0
c0
c0
c0
c0
c0
c0
c0
c0
c0
c0
c0
c0
c0
00
00
ENDCHAR
STARTCHAR quotedbl
ENCODING 34
SWIDTH 680 0
DWIDTH 17 0
BBX 15 17 1 0
BITMAP
c006
c006
600c
600c
3ff8
3ff8
3018
1830
1830
0c60
0c60
0c60
06c0
06c0
0380
0380
0380
ENDCHAR
STARTCHAR numbersign
ENCODING 35
SWIDTH 1099 0
DWIDTH 16 0
BBX 15 19 0 0
BITMAP
0c60
0c60
0c60
0c60
0c60
0c60
7ffc
7ffc
0c60
0c60
0c60
7ffc
7ffc
0c60
0c60
0c60
0c60
0c60
0c60
ENDCHAR
STARTCHAR dollar
ENCODING 36
SWIDTH 520 0
DWIDTH 13 0
BBX 11 17 1 0
BITMAP
ffe0
ffe0
0060
0060
0060
0060
0060
ffe0
ffe0
0060
0060
0060
0060
0060
0060
ffe0
ffe0
ENDCHAR
STARTCHAR half
ENCODING 37
SWIDTH 1667 0
DWIDTH 20 0
BBX 19 19 0 0
BITMAP
100000
300080
700180
300300
300600
300c00
301800
783000
006000
00c000
018700
030f80
060980
0c0180
180300
300600
600f80
000000
000000
ENDCHAR
STARTCHAR quarter
ENCODING 38
SWIDTH 1556 0
DWIDTH 20 0
BBX 19 19 0 0
BITMAP
100000
300080
700180
300300
300600
300c00
301800
783000
006000
00c000
018600
030e00
061e00
0c3600
186600
307f00
600600
000000
000000
ENDCHAR
STARTCHAR apostrophe
ENCODING 39
SWIDTH 440 0
DWIDTH 11 0
BBX 8 13 2 0
BITMAP
f0
3c
0e
07
03
03
7f
03
03
07
0e
3c
f0
ENDCHAR
STARTCHAR openbrace
ENCODING 40
SWIDTH 960 0
DWIDTH 12 0
BBX 11 25 0 -4
BITMAP
00c0
03c0
0700
0f00
1b00
3300
7300
6300
e300
e300
c300
c300
c300
e300
e300
6300
7300
3300
1b00
0f00
0700
03c0
00c0
0000
0000
ENDCHAR
STARTCHAR closebrace
ENCODING 41
SWIDTH 960 0
DWIDTH 12 0
BBX 11 25 0 -4
BITMAP
c000
f000
3800
3c00
3600
3300
3380
3180
31c0
31c0
30c0
30c0
30c0
31c0
31c0
3180
3380
3300
3600
3c00
3800
f000
c000
0000
0000
ENDCHAR
STARTCHAR bigdot
ENCODING 42
SWIDTH 1000 0
DWIDTH 12 0
BBX 8 8 3 4
BITMAP
3c
7e
ff
ff
ff
ff
7e
3c
ENDCHAR
STARTCHAR bigopendot
ENCODING 43
SWIDTH 1099 0
DWIDTH 15 0
BBX 8 8 3 4
BITMAP
3c
7e
c3
c3
c3
c3
7e
3c
ENDCHAR
STARTCHAR comma
ENCODING 44
SWIDTH 240 0
DWIDTH 6 0
BBX 3 6 1 -4
BITMAP
60
60
60
60
c0
80
ENDCHAR
STARTCHAR minus
ENCODING 45
SWIDTH 520 0
DWIDTH 13 0
BBX 11 2 1 6
BITMAP
ffe0
ffe0
ENDCHAR
STARTCHAR period
ENCODING 46
SWIDTH 240 0
DWIDTH 6 0
BBX 2 3 2 0
BITMAP
c0
c0
c0
ENDCHAR
STARTCHAR openbracel
ENCODING 47
SWIDTH 935 0
DWIDTH 11 0
BBX 8 25 0 -4
BITMAP
0f
1f
3f
33
73
73
e3
e3
e3
e3
e3
e3
e3
e3
e3
e3
e3
73
73
33
3f
1f
0f
00
00
ENDCHAR
STARTCHAR closebracel
ENCODING 48
SWIDTH 935 0
DWIDTH 11 0
BBX 8 25 0 -4
BITMAP
f0
f8
fc
cc
ce
ce
c7
c7
c7
c7
c7
c7
c7
c7
c7
c7
c7
ce
ce
cc
fc
f8
f0
00
00
ENDCHAR
STARTCHAR openbracket
ENCODING 49
SWIDTH 1000 0
DWIDTH 12 0
BBX 11 25 0 -4
BITMAP
ffc0
ffc0
cc00
cc00
cc00
cc00
cc00
cc00
cc00
cc00
cc00
cc00
cc00
cc00
cc00
cc00
cc00
cc00
cc00
cc00
cc00
ffc0
ffc0
0000
0000
ENDCHAR
STARTCHAR closebracket
ENCODING 50
SWIDTH 1000 0
DWIDTH 12 0
BBX 11 25 0 -4
BITMAP
ffc0
ffc0
0cc0
0cc0
0cc0
0cc0
0cc0
0cc0
0cc0
0cc0
0cc0
0cc0
0cc0
0cc0
0cc0
0cc0
0cc0
0cc0
0cc0
0cc0
0cc0
ffc0
ffc0
0000
0000
ENDCHAR
STARTCHAR bopenbracket
ENCODING 51
SWIDTH 1080 0
DWIDTH 15 0
BBX 12 25 0 -4
BITMAP
cff0
cff0
cc00
cc00
cc00
cc00
cc00
cc00
cc00
cc00
cc00
cc00
cc00
cc00
cc00
cc00
cc00
cc00
cc00
cc00
cc00
cff0
cff0
0000
0000
ENDCHAR
STARTCHAR bclosebracket
ENCODING 52
SWIDTH 1080 0
DWIDTH 15 0
BBX 12 25 0 -4
BITMAP
ff30
ff30
0330
0330
0330
0330
0330
0330
0330
0330
0330
0330
0330
0330
0330
0330
0330
0330
0330
0330
0330
ff30
ff30
0000
0000
ENDCHAR
STARTCHAR lefttriangle
ENCODING 53
SWIDTH 1000 0
DWIDTH 12 0
BBX 11 19 0 0
BITMAP
00c0
01c0
03c0
07c0
0ec0
1cc0
38c0
70c0
e0c0
c0c0
e0c0
70c0
38c0
1cc0
0ec0
07c0
03c0
01c0
00c0
ENDCHAR
STARTCHAR righttriangle
ENCODING 54
SWIDTH 1000 0
DWIDTH 12 0
BBX 11 19 0 0
BITMAP
c000
e000
f000
f800
dc00
ce00
c700
c380
c1c0
c0c0
c1c0
c380
c700
ce00
dc00
f800
f000
e000
c000
ENDCHAR
STARTCHAR boolean
ENCODING 55
SWIDTH 1280 0
DWIDTH 16 0
BBX 15 19 0 0
BITMAP
fff0
fff8
cc1c
cc0c
cc0c
cc0c
cc18
cff0
cff0
cc18
cc0c
cc0c
cc0c
cc0c
cc1c
fff8
fff0
0000
0000
ENDCHAR
STARTCHAR posint
ENCODING 56
SWIDTH 1280 0
DWIDTH 16 0
BBX 15 19 0 0
BITMAP
fc0c
fe0c
ce0c
cf0c
cf0c
cf8c
cd8c
cdcc
cccc
ccec
cc6c
cc7c
cc3c
cc3c
cc1c
fc1c
fc0c
0000
0000
ENDCHAR
STARTCHAR float
ENCODING 57
SWIDTH 1280 0
DWIDTH 16 0
BBX 15 19 0 0
BITMAP
fff0
fff8
cc1c
cc0c
cc0c
cc0c
cc0c
cc1c
cff8
cff8
cce0
cce0
cc70
cc70
cc38
fc38
fc1c
0000
0000
ENDCHAR
STARTCHAR littleless
ENCODING 58
SWIDTH 640 0
DWIDTH 8 0
BBX 7 12 0 2
BITMAP
04
0c
1c
38
70
e0
e0
70
38
1c
0c
04
ENDCHAR
STARTCHAR littlegreater
ENCODING 59
SWIDTH 640 0
DWIDTH 8 0
BBX 7 12 0 2
BITMAP
80
c0
e0
70
38
1c
1c
38
70
e0
c0
80
ENDCHAR
STARTCHAR less
ENCODING 60
SWIDTH 520 0
DWIDTH 13 0
BBX 12 12 0 1
BITMAP
0070
01e0
0780
1e00
7800
e000
e000
7800
1e00
0780
01e0
0070
ENDCHAR
STARTCHAR equal
ENCODING 61
SWIDTH 480 0
DWIDTH 12 0
BBX 10 6 1 4
BITMAP
ffc0
ffc0
0000
0000
ffc0
ffc0
ENDCHAR
STARTCHAR greater
ENCODING 62
SWIDTH 520 0
DWIDTH 13 0
BBX 12 12 0 1
BITMAP
e000
7800
1e00
0780
01e0
0070
0070
01e0
0780
1e00
7800
e000
ENDCHAR
STARTCHAR blackcross
ENCODING 63
SWIDTH 1440 0
DWIDTH 19 0
BBX 16 16 0 0
BITMAP
1ff8
8ff1
c7e3
e3c7
f18f
f81f
fc3f
fc3f
f81f
f18f
e3c7
c7e3
8ff1
1ff8
0000
0000
ENDCHAR
STARTCHAR at
ENCODING 64
SWIDTH 520 0
DWIDTH 13 0
BBX 11 12 1 1
BITMAP
3820
7c60
c7c0
8380
0000
0000
ffe0
ffe0
0000
0000
ffe0
ffe0
ENDCHAR
STARTCHAR A
ENCODING 65
SWIDTH 720 0
DWIDTH 18 0
BBX 17 17 0 0
BITMAP
008000
01c000
01c000
014000
036000
026000
023000
063000
043000
0c1800
081800
0ffc00
180c00
100c00
300600
300600
f80f80
ENDCHAR
STARTCHAR B
ENCODING 66
SWIDTH 600 0
DWIDTH 15 0
BBX 13 17 1 0
BITMAP
ffc0
30e0
3070
3030
3030
3030
3030
3060
3fc0
3070
3038
3018
3018
3018
3038
3070
ffc0
ENDCHAR
STARTCHAR C
ENCODING 67
SWIDTH 720 0
DWIDTH 18 0
BBX 17 17 1 0
BITMAP
f81f80
700e00
380c00
1c1800
0c3000
066000
07c000
038000
018000
03c000
06e000
0c7000
083800
181800
301c00
700e00
f81f80
ENDCHAR
STARTCHAR D
ENCODING 68
SWIDTH 600 0
DWIDTH 15 0
BBX 16 17 0 0
BITMAP
0300
0300
0780
0480
04c0
0cc0
0860
0860
1830
1030
3018
2018
200c
600c
4006
c006
ffff
ENDCHAR
STARTCHAR E
ENCODING 69
SWIDTH 600 0
DWIDTH 15 0
BBX 13 17 1 0
BITMAP
fff0
3030
3010
3000
3000
3000
3020
3020
3fe0
3020
3020
3000
3000
3008
3008
3018
fff8
ENDCHAR
STARTCHAR F
ENCODING 70
SWIDTH 760 0
DWIDTH 19 0
BBX 16 17 1 0
BITMAP
07e0
0180
0180
0ff0
399c
6186
e187
c183
c183
c183
e187
6186
399c
0ff0
0180
0180
07e0
ENDCHAR
STARTCHAR G
ENCODING 71
SWIDTH 600 0
DWIDTH 15 0
BBX 13 17 1 0
BITMAP
fff8
3018
3008
3008
3000
3000
3000
3000
3000
3000
3000
3000
3000
3000
3000
3000
fc00
ENDCHAR
STARTCHAR H
ENCODING 72
SWIDTH 720 0
DWIDTH 18 0
BBX 16 17 1 0
BITMAP
fc3f
300c
300c
300c
300c
300c
300c
300c
3ffc
300c
300c
300c
300c
300c
300c
300c
fc3f
ENDCHAR
STARTCHAR I
ENCODING 73
SWIDTH 320 0
DWIDTH 8 0
BBX 6 17 1 0
BITMAP
fc
30
30
30
30
30
30
30
30
30
30
30
30
30
30
30
fc
ENDCHAR
STARTCHAR J
ENCODING 74
SWIDTH 640 0
DWIDTH 16 0
BBX 14 17 1 0
BITMAP
03c0
06e0
0460
0660
0330
71b0
f8f0
983c
1830
1830
3030
3030
3030
3060
3860
1cc0
0f80
ENDCHAR
STARTCHAR K
ENCODING 75
SWIDTH 680 0
DWIDTH 17 0
BBX 15 17 1 0
BITMAP
fc7c
3030
3060
30c0
3180
3300
3600
3e00
3f00
3380
3180
31c0
30e0
3070
3038
301c
fc3e
ENDCHAR
STARTCHAR L
ENCODING 76
SWIDTH 680 0
DWIDTH 17 0
BBX 15 17 1 0
BITMAP
0300
0300
0780
0480
04c0
04c0
0cc0
0860
0860
1860
1030
1030
3030
2018
2018
601c
f83e
ENDCHAR
STARTCHAR M
ENCODING 77
SWIDTH 880 0
DWIDTH 22 0
BBX 20 17 1 0
BITMAP
f001f0
3801c0
3803c0
3c02c0
2c02c0
2e06c0
2604c0
270cc0
2308c0
2388c0
2198c0
21d0c0
20d0c0
20f0c0
2060c0
2060c0
f803f0
ENDCHAR
STARTCHAR N
ENCODING 78
SWIDTH 720 0
DWIDTH 18 0
BBX 16 17 1 0
BITMAP
f01f
3804
3804
2c04
2e04
2604
2304
2304
2184
21c4
20c4
2064
2064
2034
203c
201c
f80c
ENDCHAR
STARTCHAR O
ENCODING 79
SWIDTH 720 0
DWIDTH 18 0
BBX 16 17 1 0
BITMAP
07e0
1c38
300c
6006
6006
c003
c003
c003
c003
c003
c003
c003
6006
6006
300c
1c38
07e0
ENDCHAR
STARTCHAR P
ENCODING 80
SWIDTH 720 0
DWIDTH 18 0
BBX 16 17 1 0
BITMAP
ffff
300c
300c
300c
300c
300c
300c
300c
300c
300c
300c
300c
300c
300c
300c
300c
fc3f
ENDCHAR
STARTCHAR Q
ENCODING 81
SWIDTH 720 0
DWIDTH 18 0
BBX 16 17 1 0
BITMAP
07e0
1c38
300c
6006
6006
c813
c813
cff3
cff3
c813
c813
c003
4002
6006
300c
1c38
07e0
ENDCHAR
STARTCHAR R
ENCODING 82
SWIDTH 560 0
DWIDTH 14 0
BBX 12 17 1 0
BITMAP
ff80
30e0
3060
3030
3030
3030
3060
30e0
3f80
3000
3000
3000
3000
3000
3000
3000
fc00
ENDCHAR
STARTCHAR S
ENCODING 83
SWIDTH 560 0
DWIDTH 14 0
BBX 12 17 1 0
BITMAP
fff0
e030
7010
3800
1c00
0e00
0700
0380
0300
0600
0c00
1800
3010
6010
c030
fff0
fff0
ENDCHAR
STARTCHAR T
ENCODING 84
SWIDTH 640 0
DWIDTH 16 0
BBX 14 17 1 0
BITMAP
fffc
c30c
8304
8304
0300
0300
0300
0300
0300
0300
0300
0300
0300
0300
0300
0300
0fc0
ENDCHAR
STARTCHAR U
ENCODING 85
SWIDTH 640 0
DWIDTH 16 0
BBX 16 17 0 0
BITMAP
f81f
700e
300c
1818
1c10
0c30
0e60
0660
03c0
03c0
0180
0180
0180
0180
0180
0180
07e0
ENDCHAR
STARTCHAR V
ENCODING 86
SWIDTH 440 0
DWIDTH 11 0
BBX 9 18 1 -5
BITMAP
1f80
3f80
6000
6000
c000
c000
c000
c000
c000
c000
6000
7f00
1f80
0080
0080
0180
0f00
0e00
ENDCHAR
STARTCHAR W
ENCODING 87
SWIDTH 720 0
DWIDTH 18 0
BBX 16 17 1 0
BITMAP
07e0
1c38
300c
6006
6006
c003
c003
c003
c003
e007
6006
300c
1818
8c31
8421
fc3f
fc3f
ENDCHAR
STARTCHAR X
ENCODING 88
SWIDTH 640 0
DWIDTH 16 0
BBX 14 17 1 0
BITMAP
7ff8
7ff8
6018
4008
0000
1020
1020
1fe0
1fe0
1020
1020
0000
8004
8004
c00c
fffc
fffc
ENDCHAR
STARTCHAR Y
ENCODING 89
SWIDTH 800 0
DWIDTH 20 0
BBX 18 17 1 0
BITMAP
e3f1c0
70c380
30c300
30c300
38c700
38c700
18c600
1cce00
07f800
00c000
00c000
00c000
00c000
00c000
00c000
00c000
03f000
ENDCHAR
STARTCHAR Z
ENCODING 90
SWIDTH 600 0
DWIDTH 15 0
BBX 12 17 1 0
BITMAP
fff0
c070
8060
00e0
01c0
0180
0380
0700
0600
0e00
1c00
3800
3800
7000
6010
e030
fff0
ENDCHAR
STARTCHAR empty
ENCODING 91
SWIDTH 1280 0
DWIDTH 16 0
BBX 13 23 3 -3
BITMAP
0038
0038
0030
0070
0fe0
3fe0
71f0
61d8
c398
c798
c718
cf18
ce18
dc30
7c70
7fe0
7fc0
6000
e000
c000
c000
0000
0000
ENDCHAR
STARTCHAR therefore
ENCODING 92
SWIDTH 1727 0
DWIDTH 19 0
BBX 13 12 3 0
BITMAP
0600
0600
0000
0000
0000
0000
0000
0000
c038
c038
0000
0000
ENDCHAR
STARTCHAR top
ENCODING 93
SWIDTH 1280 0
DWIDTH 16 0
BBX 15 19 0 0
BITMAP
fff8
fff8
fff8
0700
0700
0700
0700
0700
0700
0700
0700
0700
0700
0700
0700
0700
0700
0000
0000
ENDCHAR
STARTCHAR bottom
ENCODING 94
SWIDTH 1316 0
DWIDTH 16 0
BBX 15 19 0 0
BITMAP
0700
0700
0700
0700
0700
0700
0700
0700
0700
0700
0700
0700
0700
0700
fff8
fff8
fff8
0000
0000
ENDCHAR
STARTCHAR underscore
ENCODING 95
SWIDTH 1000 0
DWIDTH 12 0
BBX 12 3 0 -7
BITMAP
fff0
0000
0000
ENDCHAR
STARTCHAR radicalex
ENCODING 96
SWIDTH 1000 0
DWIDTH 12 0
BBX 15 1 0 23
BITMAP
fff8
ENDCHAR
STARTCHAR a
ENCODING 97
SWIDTH 640 0
DWIDTH 16 0
BBX 14 13 1 0
BITMAP
1f18
71b8
60b0
e0f0
c060
c060
c060
c060
c060
e0e0
60e4
71fc
1f38
ENDCHAR
STARTCHAR b
ENCODING 98
SWIDTH 480 0
DWIDTH 12 0
BBX 10 24 1 -5
BITMAP
3e00
6700
c380
c180
c180
c380
c300
ce00
cf00
c380
c180
c1c0
c0c0
c0c0
c0c0
c1c0
e180
f380
df00
c000
c000
c000
c000
c000
ENDCHAR
STARTCHAR c
ENCODING 99
SWIDTH 560 0
DWIDTH 14 0
BBX 12 18 1 -5
BITMAP
7060
f860
d8c0
88c0
0980
0980
0b00
0700
0600
0600
0e00
0e00
1900
1900
3110
31b0
61f0
60e0
ENDCHAR
STARTCHAR d
ENCODING 100
SWIDTH 480 0
DWIDTH 12 0
BBX 10 18 1 0
BITMAP
1f00
3380
2180
3000
3800
1c00
0e00
3f00
7380
6180
c0c0
c0c0
c0c0
c0c0
c0c0
6180
7380
1e00
ENDCHAR
STARTCHAR e
ENCODING 101
SWIDTH 440 0
DWIDTH 11 0
BBX 9 13 1 0
BITMAP
3e00
7300
e300
c300
e000
6000
3c00
6000
e000
c000
e080
7180
3f00
ENDCHAR
STARTCHAR f
ENCODING 102
SWIDTH 560 0
DWIDTH 14 0
BBX 12 22 1 -5
BITMAP
0600
0600
0600
0600
1f80
36c0
6660
e670
c630
c630
c630
c630
c630
e670
6660
36c0
1f80
0600
0600
0600
0600
0600
ENDCHAR
STARTCHAR g
ENCODING 103
SWIDTH 440 0
DWIDTH 11 0
BBX 11 18 0 -5
BITMAP
7060
f860
9860
98c0
18c0
0cc0
0d80
0d80
0580
0700
0700
0300
0600
0600
0600
0600
0600
0600
ENDCHAR
STARTCHAR h
ENCODING 104
SWIDTH 600 0
DWIDTH 15 0
BBX 12 18 1 -5
BITMAP
71c0
fbe0
9e30
1c30
1830
1830
1830
1830
1830
1830
1830
1830
1830
0030
0030
0030
0030
0030
ENDCHAR
STARTCHAR i
ENCODING 105
SWIDTH 320 0
DWIDTH 8 0
BBX 7 13 1 0
BITMAP
30
70
f0
30
30
30
30
30
30
30
32
3e
1c
ENDCHAR
STARTCHAR j
ENCODING 106
SWIDTH 560 0
DWIDTH 14 0
BBX 12 18 1 -5
BITMAP
3380
73c0
6660
c670
c630
c630
c630
c630
c630
e670
6660
36c0
1f80
0600
0600
0600
0600
0600
ENDCHAR
STARTCHAR k
ENCODING 107
SWIDTH 560 0
DWIDTH 14 0
BBX 12 13 1 0
BITMAP
3070
70f0
f1b0
3300
3600
3c00
3c00
3e00
3700
3380
31c0
30e0
31f0
ENDCHAR
STARTCHAR l
ENCODING 108
SWIDTH 560 0
DWIDTH 14 0
BBX 12 19 1 0
BITMAP
7000
f800
8800
0800
0800
0c00
0c00
0c00
1c00
1e00
1a00
3200
3200
3300
6100
6100
6190
c1f0
c0e0
ENDCHAR
STARTCHAR m
ENCODING 109
SWIDTH 560 0
DWIDTH 14 0
BBX 12 18 2 -5
BITMAP
c180
c180
c180
c180
c180
c180
c180
c180
c180
c180
e390
fff0
de60
c000
c000
e000
e000
e000
ENDCHAR
STARTCHAR n
ENCODING 110
SWIDTH 520 0
DWIDTH 13 0
BBX 11 13 1 0
BITMAP
c0e0
c0e0
c060
6040
60c0
6080
3180
3100
3300
1a00
1a00
0e00
0c00
ENDCHAR
STARTCHAR o
ENCODING 111
SWIDTH 520 0
DWIDTH 13 0
BBX 11 13 1 0
BITMAP
1f00
71c0
60c0
e0e0
c060
c060
c060
c060
c060
e0e0
60c0
71c0
1f00
ENDCHAR
STARTCHAR p
ENCODING 112
SWIDTH 560 0
DWIDTH 14 0
BBX 13 13 0 0
BITMAP
7ff8
fff8
98c0
18c0
18c0
18c0
18c0
18c0
18c0
18c0
18c8
38f8
30f0
ENDCHAR
STARTCHAR q
ENCODING 113
SWIDTH 480 0
DWIDTH 12 0
BBX 10 17 1 0
BITMAP
1e00
3300
6180
6180
c0c0
c0c0
c0c0
c0c0
ffc0
c0c0
c0c0
c0c0
c0c0
6180
6180
3300
1e00
ENDCHAR
STARTCHAR r
ENCODING 114
SWIDTH 480 0
DWIDTH 12 0
BBX 10 18 1 -5
BITMAP
3e00
6380
c180
c1c0
c0c0
c0c0
c0c0
c0c0
c0c0
c1c0
c180
e380
de00
c000
c000
c000
c000
c000
ENDCHAR
STARTCHAR s
ENCODING 115
SWIDTH 600 0
DWIDTH 15 0
BBX 14 13 1 0
BITMAP
1ffc
71fc
60c0
e0e0
c060
c060
c060
c060
c060
e0e0
60c0
71c0
1f00
ENDCHAR
STARTCHAR t
ENCODING 116
SWIDTH 440 0
DWIDTH 11 0
BBX 10 13 0 0
BITMAP
3fc0
7fc0
cc00
8c00
0c00
0c00
0c00
0c00
0c00
0c00
0c80
0f80
0700
ENDCHAR
STARTCHAR u
ENCODING 117
SWIDTH 560 0
DWIDTH 14 0
BBX 13 13 0 0
BITMAP
30e0
7830
d818
9818
1818
1818
1818
1818
1818
1830
0c30
0ee0
07c0
ENDCHAR
STARTCHAR v
ENCODING 118
SWIDTH 720 0
DWIDTH 18 0
BBX 16 14 1 0
BITMAP
7fff
ffff
9818
300c
318c
6186
6186
6186
6186
6186
6186
318c
3bdc
1e78
ENDCHAR
STARTCHAR w
ENCODING 119
SWIDTH 640 0
DWIDTH 16 0
BBX 14 13 1 0
BITMAP
1860
3030
6018
6318
c30c
c30c
c30c
c30c
c30c
c30c
6318
77b8
3cf0
ENDCHAR
STARTCHAR x
ENCODING 120
SWIDTH 480 0
DWIDTH 12 0
BBX 10 24 1 -5
BITMAP
3000
6380
6780
3f00
3000
2000
3780
1f80
3000
6000
c000
8000
8000
8000
c000
f000
7c00
3f80
0fc0
00c0
0040
00c0
0f80
0f00
ENDCHAR
STARTCHAR y
ENCODING 121
SWIDTH 720 0
DWIDTH 18 0
BBX 16 18 1 -5
BITMAP
c183
718e
318c
399c
399c
399c
399c
399c
399c
1998
1998
0db0
07e0
0180
0180
0180
0180
0180
ENDCHAR
STARTCHAR z
ENCODING 122
SWIDTH 480 0
DWIDTH 12 0
BBX 10 24 1 -5
BITMAP
3000
6380
6780
3f00
1800
3000
2000
6000
4000
c000
8000
8000
8000
8000
c000
f000
7c00
3f80
0fc0
00c0
0040
00c0
0f80
0f00
ENDCHAR
STARTCHAR lessless
ENCODING 123
SWIDTH 1120 0
DWIDTH 15 0
BBX 12 9 0 3
BITMAP
0e70
1ce0
39c0
7380
e700
7380
39c0
1ce0
0e70
ENDCHAR
STARTCHAR settimes
ENCODING 124
SWIDTH 1440 0
DWIDTH 19 0
BBX 16 16 0 0
BITMAP
e007
700e
381c
1c38
0e70
07e0
03c0
03c0
07e0
0e70
1c38
381c
700e
e007
0000
0000
ENDCHAR
STARTCHAR greatergreater
ENCODING 125
SWIDTH 1120 0
DWIDTH 15 0
BBX 12 9 0 3
BITMAP
e700
7380
39c0
1ce0
0e70
1ce0
39c0
7380
e700
ENDCHAR
STARTCHAR similar
ENCODING 126
SWIDTH 1099 0
DWIDTH 15 0
BBX 15 6 0 5
BITMAP
1c0c
3e1c
7738
e3f0
c1e0
0000
ENDCHAR
STARTCHAR ltriangleline
ENCODING 128
SWIDTH 1000 0
DWIDTH 12 0
BBX 11 23 0 -4
BITMAP
00c0
01c0
03c0
07c0
0fc0
1ec0
3cc0
78c0
f0c0
e0c0
f0c0
78c0
3cc0
1ec0
0fc0
07c0
03c0
01c0
00c0
0000
ffc0
ffc0
ffc0
ENDCHAR
STARTCHAR rtriangleline
ENCODING 129
SWIDTH 1000 0
DWIDTH 12 0
BBX 11 23 0 -4
BITMAP
c000
e000
f000
f800
fc00
de00
cf00
c780
c3c0
c1c0
c3c0
c780
cf00
de00
fc00
f800
f000
e000
c000
0000
ffc0
ffc0
ffc0
ENDCHAR
STARTCHAR similardot
ENCODING 130
SWIDTH 1099 0
DWIDTH 15 0
BBX 15 9 0 7
BITMAP
0180
0180
0000
0000
3c0c
7f0c
639c
c1f8
c0f0
ENDCHAR
STARTCHAR lleadstonat
ENCODING 131
SWIDTH 1600 0
DWIDTH 20 0
BBX 19 11 0 4
BITMAP
018000
018000
000000
000700
1e0380
3f01c0
739fe0
e1ffe0
c0f1c0
000380
000700
ENDCHAR
STARTCHAR rleadstonat
ENCODING 132
SWIDTH 1600 0
DWIDTH 20 0
BBX 19 11 0 4
BITMAP
001800
001800
000000
180000
31c0c0
63e1c0
fe7380
fc3f00
601e00
300000
180000
ENDCHAR
STARTCHAR dblleadstonat
ENCODING 133
SWIDTH 1600 0
DWIDTH 24 0
BBX 23 11 0 4
BITMAP
001800
001800
000000
180060
31e030
63f018
ff39fc
fe1ffc
600f18
300030
180060
ENDCHAR
STARTCHAR uptriangle
ENCODING 134
SWIDTH 1067 0
DWIDTH 13 0
BBX 12 8 0 5
BITMAP
0600
0f00
1980
30c0
6060
fff0
fff0
0000
ENDCHAR
STARTCHAR downtriangle
ENCODING 135
SWIDTH 1067 0
DWIDTH 13 0
BBX 12 8 0 5
BITMAP
fff0
fff0
6060
30c0
1980
0f00
0600
0000
ENDCHAR
STARTCHAR filluptriangle
ENCODING 136
SWIDTH 1067 0
DWIDTH 13 0
BBX 12 8 0 5
BITMAP
0600
0f00
1f80
3fc0
7fe0
fff0
fff0
0000
ENDCHAR
STARTCHAR filldowntriangle
ENCODING 137
SWIDTH 1067 0
DWIDTH 13 0
BBX 12 8 0 5
BITMAP
fff0
fff0
7fe0
3fc0
1f80
0f00
0600
0000
ENDCHAR
STARTCHAR harrowleft
ENCODING 138
SWIDTH 1440 0
DWIDTH 19 0
BBX 17 9 0 4
BITMAP
001f00
181f80
300180
700180
ffff80
ffff00
700000
300000
180000
ENDCHAR
STARTCHAR harrowright
ENCODING 139
SWIDTH 1440 0
DWIDTH 19 0
BBX 17 9 0 4
BITMAP
7c0000
fc0c00
c00600
c00700
ffff80
7fff80
000700
000600
000c00
ENDCHAR
STARTCHAR harparrowleft
ENCODING 140
SWIDTH 1440 0
DWIDTH 17 0
BBX 16 5 0 7
BITMAP
1800
3800
7000
ffff
ffff
ENDCHAR
STARTCHAR harparrowright
ENCODING 141
SWIDTH 1440 0
DWIDTH 17 0
BBX 16 5 0 7
BITMAP
0018
001c
000e
ffff
ffff
ENDCHAR
STARTCHAR arrowdblleft
ENCODING 142
SWIDTH 1707 0
DWIDTH 21 0
BBX 20 8 0 4
BITMAP
18c000
318000
738000
fffff0
fffff0
738000
318000
18c000
ENDCHAR
STARTCHAR arrowdblright
ENCODING 143
SWIDTH 1707 0
DWIDTH 21 0
BBX 20 8 0 4
BITMAP
007180
0038c0
001ce0
fffff0
fffff0
001ce0
0018c0
007180
ENDCHAR
STARTCHAR leftjoin
ENCODING 144
SWIDTH 1493 0
DWIDTH 19 0
BBX 17 17 0 -1
BITMAP
e00180
f00380
b80780
9c0f80
9e1d80
973980
93f180
91e180
90c180
91e180
93f180
973980
9e1d80
9c0f80
b80780
f00380
e00180
ENDCHAR
STARTCHAR rightjoin
ENCODING 145
SWIDTH 1493 0
DWIDTH 19 0
BBX 17 17 0 -1
BITMAP
c00380
e00780
f00e80
f81c80
dc3c80
ce7480
c7e480
c3c480
c18480
c3c480
c7e480
ce7480
dc3c80
f81c80
f00e80
e00780
c00380
ENDCHAR
STARTCHAR circleequal
ENCODING 146
SWIDTH 1580 0
DWIDTH 20 0
BBX 19 19 0 0
BITMAP
01e000
07f800
1ffe00
3c0f00
700380
700380
ffffc0
ffffc0
c000c0
c000c0
c000c0
ffffc0
ffffc0
700380
700380
3c0f00
1ffe00
07f800
01e000
ENDCHAR
STARTCHAR lleadsto
ENCODING 147
SWIDTH 1600 0
DWIDTH 20 0
BBX 19 8 0 4
BITMAP
000600
1e0300
3f0180
739fc0
e1ffc0
c0f180
000300
000600
ENDCHAR
STARTCHAR rleadsto
ENCODING 148
SWIDTH 1600 0
DWIDTH 20 0
BBX 19 8 0 4
BITMAP
180000
31e040
63f0c0
ff39c0
fe1f80
600f00
300000
180000
ENDCHAR
STARTCHAR dblleadsto
ENCODING 149
SWIDTH 1973 0
DWIDTH 24 0
BBX 23 8 0 4
BITMAP
180060
31e030
63f018
ff39fc
fe1ffc
600f18
300030
180060
ENDCHAR
STARTCHAR davidstar
ENCODING 150
SWIDTH 1280 0
DWIDTH 16 0
BBX 15 15 0 5
BITMAP
0100
0280
0280
fffe
4824
4824
3018
3018
3018
4824
4824
fffe
0280
0280
0100
ENDCHAR
STARTCHAR lesssim
ENCODING 151
SWIDTH 1099 0
DWIDTH 15 0
BBX 12 16 0 -1
BITMAP
00c0
01c0
0780
1e00
7800
e000
7800
1e00
0780
03c0
00c0
7000
fc00
ce40
87c0
0180
ENDCHAR
STARTCHAR greatersim
ENCODING 152
SWIDTH 1099 0
DWIDTH 15 0
BBX 11 16 0 -1
BITMAP
6000
7000
3c00
0f00
03c0
00e0
03c0
0f00
3c00
7000
6000
3800
7e00
6720
43e0
00c0
ENDCHAR
STARTCHAR dbltop
ENCODING 153
SWIDTH 1280 0
DWIDTH 16 0
BBX 15 17 0 0
BITMAP
fff8
fff8
18c0
18c0
18c0
18c0
18c0
18c0
18c0
18c0
18c0
18c0
18c0
18c0
18c0
18c0
18c0
ENDCHAR
STARTCHAR dblbottom
ENCODING 154
SWIDTH 1316 0
DWIDTH 16 0
BBX 15 17 0 0
BITMAP
18c0
18c0
18c0
18c0
18c0
18c0
18c0
18c0
18c0
18c0
18c0
18c0
18c0
18c0
18c0
fff8
fff8
ENDCHAR
STARTCHAR fivestar
ENCODING 155
SWIDTH 1280 0
DWIDTH 16 0
BBX 15 13 0 3
BITMAP
0300
0300
0300
0300
e31c
3b70
0fc0
0780
0780
0cc0
1860
3030
6018
ENDCHAR
STARTCHAR exclamdown
ENCODING 161
SWIDTH 600 0
DWIDTH 15 0
BBX 13 17 1 0
BITMAP
e070
70d8
39b8
1b30
0e00
0600
0600
0600
0600
0600
0600
0600
0600
0600
0600
0600
1f80
ENDCHAR
STARTCHAR cent
ENCODING 162
SWIDTH 240 0
DWIDTH 6 0
BBX 5 6 1 12
BITMAP
18
38
70
60
c0
80
ENDCHAR
STARTCHAR sterling
ENCODING 163
SWIDTH 560 0
DWIDTH 14 0
BBX 12 15 0 0
BITMAP
0070
01e0
0780
1e00
7800
e000
e000
7800
1e00
03c0
00f0
0030
0000
fff0
fff0
ENDCHAR
STARTCHAR currency
ENCODING 164
SWIDTH 160 0
DWIDTH 4 0
BBX 8 17 -1 0
BITMAP
03
03
06
06
0c
0c
18
18
18
30
30
60
60
60
c0
c0
c0
ENDCHAR
STARTCHAR yen
ENCODING 165
SWIDTH 680 0
DWIDTH 17 0
BBX 15 7 1 4
BITMAP
3838
7e7c
c7c6
c386
c6c6
7c7c
3838
ENDCHAR
STARTCHAR bigbox
ENCODING 166
SWIDTH 1280 0
DWIDTH 16 0
BBX 15 20 0 0
BITMAP
fffc
fffc
c00c
c00c
c00c
c00c
c00c
c00c
c00c
c00c
c00c
c00c
c00c
c00c
c00c
c00c
c00c
fffc
fffc
fffc
ENDCHAR
STARTCHAR lessequal
ENCODING 167
SWIDTH 1507 0
DWIDTH 19 0
BBX 13 12 3 0
BITMAP
0038
00f8
03e0
0f80
3e00
f800
fff8
fff8
0000
0000
fff8
fff8
ENDCHAR
STARTCHAR less
ENCODING 168
SWIDTH 1507 0
DWIDTH 19 0
BBX 13 8 3 3
BITMAP
0038
00f8
03e0
0f80
3e00
f800
fff8
fff8
ENDCHAR
STARTCHAR greater
ENCODING 169
SWIDTH 1507 0
DWIDTH 19 0
BBX 13 8 3 3
BITMAP
e000
f800
3e00
0f80
03e0
00f8
fff8
fff8
ENDCHAR
STARTCHAR greaterequal
ENCODING 170
SWIDTH 1507 0
DWIDTH 19 0
BBX 13 12 3 0
BITMAP
e000
f800
3e00
0f80
01e0
0078
fff8
fff8
0000
0000
fff8
fff8
ENDCHAR
STARTCHAR arrowboth
ENCODING 171
SWIDTH 2084 0
DWIDTH 27 0
BBX 21 9 3 3
BITMAP
1800c0
300060
600030
fffff8
fffff8
600030
300060
1800c0
000000
ENDCHAR
STARTCHAR arrowleft
ENCODING 172
SWIDTH 1440 0
DWIDTH 19 0
BBX 16 9 0 3
BITMAP
1800
3000
6000
ffff
ffff
6000
3000
1800
0000
ENDCHAR
STARTCHAR arrowup
ENCODING 173
SWIDTH 1207 0
DWIDTH 15 0
BBX 9 20 3 0
BITMAP
1800
3c00
7e00
db00
9900
1800
1800
1800
1800
1800
1800
1800
1800
1800
1800
1800
1800
1800
0000
0000
ENDCHAR
STARTCHAR arrowright
ENCODING 174
SWIDTH 1440 0
DWIDTH 19 0
BBX 16 9 0 3
BITMAP
0018
000c
0006
ffff
ffff
0006
000c
0018
0000
ENDCHAR
STARTCHAR arrowdown
ENCODING 175
SWIDTH 1207 0
DWIDTH 15 0
BBX 9 19 3 0
BITMAP
1800
1800
1800
1800
1800
1800
1800
1800
1800
1800
1800
1800
9900
db00
7e00
3c00
1800
0000
0000
ENDCHAR
STARTCHAR degree
ENCODING 176
SWIDTH 360 0
DWIDTH 9 0
BBX 7 7 1 10
BITMAP
38
6c
c6
82
c6
6c
38
ENDCHAR
STARTCHAR plusminus
ENCODING 177
SWIDTH 480 0
DWIDTH 12 0
BBX 10 14 1 0
BITMAP
0c00
0c00
0c00
0c00
ffc0
ffc0
0c00
0c00
0c00
0c00
0000
0000
ffc0
ffc0
ENDCHAR
STARTCHAR twosuperior
ENCODING 178
SWIDTH 400 0
DWIDTH 10 0
BBX 9 6 1 12
BITMAP
1980
3b80
7700
6600
cc00
8800
ENDCHAR
STARTCHAR threesuperior
ENCODING 179
SWIDTH 560 0
DWIDTH 14 0
BBX 12 15 0 0
BITMAP
e000
7800
1e00
0780
01e0
0070
0070
01e0
0780
3e00
f000
c000
0000
fff0
fff0
ENDCHAR
STARTCHAR acute
ENCODING 180
SWIDTH 520 0
DWIDTH 13 0
BBX 11 10 1 2
BITMAP
c060
60c0
3180
1b00
0e00
0e00
1b00
3180
60c0
c060
ENDCHAR
STARTCHAR mu
ENCODING 181
SWIDTH 640 0
DWIDTH 16 0
BBX 14 7 1 4
BITMAP
3838
7c7c
c6c0
c380
c7c0
7c7c
3838
ENDCHAR
STARTCHAR paragraph
ENCODING 182
SWIDTH 480 0
DWIDTH 12 0
BBX 10 19 1 0
BITMAP
3e00
6300
c180
0180
00c0
00c0
00c0
00c0
1ec0
73c0
61c0
c0c0
c0c0
c180
c180
c180
c300
6700
3c00
ENDCHAR
STARTCHAR periodcentered
ENCODING 183
SWIDTH 480 0
DWIDTH 12 0
BBX 8 8 2 3
BITMAP
3c
7e
ff
ff
ff
ff
7e
3c
ENDCHAR
STARTCHAR cedilla
ENCODING 184
SWIDTH 480 0
DWIDTH 12 0
BBX 10 8 1 3
BITMAP
0c00
0c00
0000
ffc0
ffc0
0000
0c00
0c00
ENDCHAR
STARTCHAR onesuperior
ENCODING 185
SWIDTH 560 0
DWIDTH 14 0
BBX 10 13 2 0
BITMAP
0180
0180
0300
0300
ffc0
ffc0
0c00
ffc0
ffc0
3000
3000
6000
6000
ENDCHAR
STARTCHAR masculine
ENCODING 186
SWIDTH 520 0
DWIDTH 13 0
BBX 11 8 1 3
BITMAP
ffe0
ffe0
0000
ffe0
ffe0
0000
ffe0
ffe0
ENDCHAR
STARTCHAR guillemotright
ENCODING 187
SWIDTH 520 0
DWIDTH 13 0
BBX 11 8 1 3
BITMAP
3820
7c60
c7c0
8380
3820
7c60
c7c0
8380
ENDCHAR
STARTCHAR onequarter
ENCODING 188
SWIDTH 960 0
DWIDTH 24 0
BBX 18 3 3 0
BITMAP
c0c0c0
c0c0c0
c0c0c0
ENDCHAR
STARTCHAR defequal
ENCODING 189
SWIDTH 1099 0
DWIDTH 15 0
BBX 9 12 3 3
BITMAP
0800
1c00
3e00
7700
e380
c180
ff80
ff80
0000
0000
ff80
ff80
ENDCHAR
STARTCHAR arrowhorizex
ENCODING 190
SWIDTH 1440 0
DWIDTH 19 0
BBX 19 1 0 7
BITMAP
ffff80
ENDCHAR
STARTCHAR join
ENCODING 191
SWIDTH 1493 0
DWIDTH 19 0
BBX 17 17 0 -1
BITMAP
c00180
e00380
f00780
f80f80
dc1d80
ce3980
c77180
c3e180
c1c180
c3e180
c77180
ce3980
dc1d80
f80f80
f00780
e00380
c00180
ENDCHAR
STARTCHAR Agrave
ENCODING 192
SWIDTH 560 0
DWIDTH 14 0
BBX 12 16 1 0
BITMAP
8180
c300
e3f0
71f0
3860
1cc0
3c80
6e80
c780
c380
e380
f1c0
70e0
3070
7030
e010
ENDCHAR
STARTCHAR Aacute
ENCODING 193
SWIDTH 640 0
DWIDTH 16 0
BBX 14 19 1 -1
BITMAP
0f80
3ffc
70f8
6030
4060
40c0
60c0
30e0
1c70
0038
0038
001c
001c
000c
300c
780c
de18
0ff0
03c0
ENDCHAR
STARTCHAR Acircumflex
ENCODING 194
SWIDTH 760 0
DWIDTH 19 0
BBX 17 18 1 0
BITMAP
1e1800
3f3c00
63ce00
c18700
818300
c18600
e18c00
71b800
39b000
199800
119800
019800
019c00
018c00
018c00
198680
3f0780
4e0700
ENDCHAR
STARTCHAR Atilde
ENCODING 195
SWIDTH 760 0
DWIDTH 19 0
BBX 15 20 2 -5
BITMAP
0600
0c00
183c
30fe
3186
6306
6606
6c06
680c
799c
7398
7230
7a70
5be0
dd80
8c00
8c00
8c00
d800
7000
ENDCHAR
STARTCHAR Adiaeresis
ENCODING 196
SWIDTH 720 0
DWIDTH 18 0
BBX 16 17 1 0
BITMAP
07e0
1e78
381c
6006
6816
cc33
c663
c3c3
c183
c3c3
c663
cc33
6816
6006
381c
1e78
07e0
ENDCHAR
STARTCHAR Aring
ENCODING 197
SWIDTH 720 0
DWIDTH 18 0
BBX 16 17 1 0
BITMAP
07e0
1e78
381c
6186
6186
c183
c183
dffb
dffb
c183
c183
c183
6186
6006
381c
1e78
07e0
ENDCHAR
STARTCHAR AE
ENCODING 198
SWIDTH 800 0
DWIDTH 20 0
BBX 18 17 1 0
BITMAP
03f0c0
0ffd80
1c0f00
300700
300f00
601980
603180
606180
60c180
618180
630180
660180
3c0300
380300
3c0e00
6ffc00
c3f000
ENDCHAR
STARTCHAR Ccedilla
ENCODING 199
SWIDTH 720 0
DWIDTH 18 0
BBX 16 13 1 0
BITMAP
07e0
1ff8
381c
6006
6006
c003
c003
c003
c003
c003
c003
c003
c003
ENDCHAR
STARTCHAR Egrave
ENCODING 200
SWIDTH 720 0
DWIDTH 18 0
BBX 16 13 1 0
BITMAP
c003
c003
c003
c003
c003
c003
c003
c003
6006
6006
381c
1ff8
07e0
ENDCHAR
STARTCHAR Eacute
ENCODING 201
SWIDTH 680 0
DWIDTH 17 0
BBX 15 12 1 0
BITMAP
ffe0
fff8
001c
000c
0006
0006
0006
0006
000c
001c
fff8
ffe0
ENDCHAR
STARTCHAR Ecircumflex
ENCODING 202
SWIDTH 680 0
DWIDTH 17 0
BBX 15 15 1 -3
BITMAP
ffe0
fff8
001c
000c
0006
0006
0006
0006
000c
001c
fff8
ffe0
0000
fffe
fffe
ENDCHAR
STARTCHAR Ediaeresis
ENCODING 203
SWIDTH 680 0
DWIDTH 17 0
BBX 15 16 1 -2
BITMAP
000c
000c
0ffe
3ffe
7030
6030
c060
c060
c0c0
c0c0
6180
7180
3ffe
0ffe
0600
0600
ENDCHAR
STARTCHAR Igrave
ENCODING 204
SWIDTH 680 0
DWIDTH 17 0
BBX 15 12 1 0
BITMAP
0ffe
3ffe
7000
6000
c000
c000
c000
c000
6000
7000
3ffe
0ffe
ENDCHAR
STARTCHAR Iacute
ENCODING 205
SWIDTH 680 0
DWIDTH 17 0
BBX 15 15 1 -3
BITMAP
0ffe
3ffe
7000
6000
c000
c000
c000
c000
6000
7000
3ffe
0ffe
0000
fffe
fffe
ENDCHAR
STARTCHAR Icircumflex
ENCODING 206
SWIDTH 640 0
DWIDTH 16 0
BBX 12 13 2 0
BITMAP
1ff0
7ff0
6000
c000
c000
fff0
fff0
c000
c000
c000
6000
7ff0
1ff0
ENDCHAR
STARTCHAR Idiaeresis
ENCODING 207
SWIDTH 640 0
DWIDTH 16 0
BBX 12 17 2 -2
BITMAP
00c0
00c0
1ff0
7ff0
6180
c180
c300
fff0
fff0
c600
c600
cc00
6c00
7ff0
1ff0
1800
1800
ENDCHAR
STARTCHAR ETH
ENCODING 208
SWIDTH 760 0
DWIDTH 19 0
BBX 17 16 1 0
BITMAP
000180
000300
000600
000c00
001800
003000
006000
00c000
018000
030000
060000
0c0000
180000
300000
7fff80
ffff80
ENDCHAR
STARTCHAR Ntilde
ENCODING 209
SWIDTH 720 0
DWIDTH 18 0
BBX 16 18 1 0
BITMAP
ffff
c003
c002
6006
6004
300c
3008
3018
1810
1830
0c20
0c20
0660
0640
03c0
03c0
0180
0180
ENDCHAR
STARTCHAR circledot
ENCODING 210
SWIDTH 1580 0
DWIDTH 20 0
BBX 19 19 0 0
BITMAP
01e000
07f800
1ffe00
3e1f00
380700
700380
700380
e1e1c0
e3f1c0
c3f0c0
e3f1c0
e1e1c0
700380
700380
380700
3e1f00
1ffe00
07f800
01e000
ENDCHAR
STARTCHAR circleslash
ENCODING 211
SWIDTH 1580 0
DWIDTH 20 0
BBX 19 19 0 0
BITMAP
01e000
07f800
0ffc00
1e1e00
380f00
701f80
603980
e071c0
c0e0c0
c1c0c0
c380c0
e701c0
6e0180
7c0380
380700
1e1e00
0ffc00
07f800
01e000
ENDCHAR
STARTCHAR bararrowright
ENCODING 212
SWIDTH 1780 0
DWIDTH 23 0
BBX 20 9 0 3
BITMAP
000000
018180
0181c0
0181e0
fffff0
fffff0
0181e0
0181c0
018180
ENDCHAR
STARTCHAR Otilde
ENCODING 213
SWIDTH 760 0
DWIDTH 19 0
BBX 17 21 1 -3
BITMAP
ffff80
300600
300600
300600
300600
300600
300600
300600
300600
300600
300600
300600
300600
300600
300600
300600
300600
300600
300600
300600
fc1f80
ENDCHAR
STARTCHAR Odiaeresis
ENCODING 214
SWIDTH 560 0
DWIDTH 14 0
BBX 14 23 0 0
BITMAP
0004
0004
0004
000c
000c
0008
0008
0008
0018
3018
7010
d810
1810
0c30
0c30
0620
0620
0320
0360
01c0
01c0
00c0
00c0
ENDCHAR
STARTCHAR multiply
ENCODING 215
SWIDTH 240 0
DWIDTH 6 0
BBX 2 3 2 6
BITMAP
c0
c0
c0
ENDCHAR
STARTCHAR Ooblique
ENCODING 216
SWIDTH 680 0
DWIDTH 17 0
BBX 15 8 1 0
BITMAP
fffe
fffe
0006
0006
0006
0006
0006
0006
ENDCHAR
STARTCHAR Ugrave
ENCODING 217
SWIDTH 600 0
DWIDTH 15 0
BBX 13 12 1 0
BITMAP
0700
0700
0d80
0d80
18c0
18c0
3060
3060
6030
6030
c018
c018
ENDCHAR
STARTCHAR Uacute
ENCODING 218
SWIDTH 600 0
DWIDTH 15 0
BBX 13 12 1 0
BITMAP
c018
c018
6030
6030
3060
3060
18c0
18c0
0d80
0d80
0700
0700
ENDCHAR
STARTCHAR Ucircumflex
ENCODING 219
SWIDTH 1000 0
DWIDTH 25 0
BBX 23 12 1 0
BITMAP
0600c0
0c0060
180030
3ffff8
7ffffc
e0000e
e0000e
7ffffc
3ffff8
180030
0c0060
0600c0
ENDCHAR
STARTCHAR Udiaeresis
ENCODING 220
SWIDTH 1000 0
DWIDTH 25 0
BBX 23 12 1 0
BITMAP
060000
0c0000
180000
3ffffe
7ffffe
e00000
e00000
7ffffe
3ffffe
180000
0c0000
060000
ENDCHAR
STARTCHAR Yacute
ENCODING 221
SWIDTH 560 0
DWIDTH 14 0
BBX 12 23 1 0
BITMAP
0600
0f00
1f80
39c0
79e0
d9b0
1980
1980
1980
1980
1980
1980
1980
1980
1980
1980
1980
1980
1980
1980
1980
1980
1980
ENDCHAR
STARTCHAR THORN
ENCODING 222
SWIDTH 1000 0
DWIDTH 25 0
BBX 23 12 1 0
BITMAP
0000c0
000060
000030
fffff8
fffffc
00000e
00000e
fffffc
fffff8
000030
000060
0000c0
ENDCHAR
STARTCHAR ssharp
ENCODING 223
SWIDTH 560 0
DWIDTH 14 0
BBX 12 23 1 0
BITMAP
1980
1980
1980
1980
1980
1980
1980
1980
1980
1980
1980
1980
1980
1980
1980
1980
1980
d9b0
79e0
39c0
1f80
0f00
0600
ENDCHAR
STARTCHAR diamond
ENCODING 224
SWIDTH 988 0
DWIDTH 16 0
BBX 15 15 0 0
BITMAP
0100
0380
07c0
0ee0
1c70
3838
701c
e00e
701c
3838
1c70
0ee0
07c0
0380
0100
ENDCHAR
STARTCHAR smallbar
ENCODING 225
SWIDTH 800 0
DWIDTH 11 0
BBX 8 20 0 0
BITMAP
ff
ff
c3
c3
c3
c3
c3
c3
c3
c3
c3
c3
c3
c3
c3
c3
c3
c3
ff
ff
ENDCHAR
STARTCHAR circledot
ENCODING 226
SWIDTH 1580 0
DWIDTH 20 0
BBX 19 19 0 0
BITMAP
01e000
07f800
1ffe00
3e1f00
380700
700380
700380
e001c0
ffffc0
ffffc0
ffffc0
e001c0
700380
700380
380700
3e1f00
1ffe00
07f800
01e000
ENDCHAR
STARTCHAR circledot
ENCODING 227
SWIDTH 1580 0
DWIDTH 20 0
BBX 19 19 0 0
BITMAP
01e000
07f800
1ffe00
3e1f00
380700
700380
700380
e001c0
e001c0
c000c0
e001c0
e001c0
700380
700380
380700
3e1f00
1ffe00
07f800
01e000
ENDCHAR
STARTCHAR bararrowleft
ENCODING 228
SWIDTH 1760 0
DWIDTH 23 0
BBX 20 9 0 3
BITMAP
000000
180c00
380c00
780c00
fffff0
fffff0
780c00
380c00
180c00
ENDCHAR
STARTCHAR aring
ENCODING 229
SWIDTH 720 0
DWIDTH 18 0
BBX 14 20 2 -2
BITMAP
fff8
e018
7008
3800
1c00
0e00
0700
0380
01c0
00c0
0180
0300
0600
0c00
1800
3004
6004
c00c
fffc
fffc
ENDCHAR
STARTCHAR sqsubseteq
ENCODING 230
SWIDTH 1440 0
DWIDTH 19 0
BBX 16 15 0 -3
BITMAP
ffff
ffff
c000
c000
c000
c000
c000
c000
ffff
ffff
0000
0000
0000
ffff
ffff
ENDCHAR
STARTCHAR sqsubset
ENCODING 231
SWIDTH 1440 0
DWIDTH 19 0
BBX 16 12 0 0
BITMAP
ffff
ffff
c000
c000
c000
c000
c000
c000
ffff
ffff
0000
0000
ENDCHAR
STARTCHAR sqsupseteq
ENCODING 232
SWIDTH 1440 0
DWIDTH 19 0
BBX 16 15 0 -3
BITMAP
ffff
ffff
0003
0003
0003
0003
0003
0003
ffff
ffff
0000
0000
0000
ffff
ffff
ENDCHAR
STARTCHAR sqsupset
ENCODING 233
SWIDTH 1440 0
DWIDTH 19 0
BBX 16 12 0 0
BITMAP
ffff
ffff
0003
0003
0003
0003
0003
0003
ffff
ffff
0000
0000
ENDCHAR
STARTCHAR sqcup
ENCODING 234
SWIDTH 1120 0
DWIDTH 15 0
BBX 12 12 0 0
BITMAP
c030
c030
c030
c030
c030
c030
c030
c030
c030
c030
fff0
fff0
ENDCHAR
STARTCHAR sqcap
ENCODING 235
SWIDTH 1120 0
DWIDTH 15 0
BBX 12 12 0 0
BITMAP
fff0
fff0
c030
c030
c030
c030
c030
c030
c030
c030
c030
c030
ENDCHAR
STARTCHAR vdash
ENCODING 236
SWIDTH 988 0
DWIDTH 12 0
BBX 11 15 0 0
BITMAP
c000
c000
c000
c000
c000
c000
ffc0
ffc0
c000
c000
c000
c000
c000
0000
0000
ENDCHAR
STARTCHAR models
ENCODING 237
SWIDTH 960 0
DWIDTH 12 0
BBX 11 15 0 0
BITMAP
c000
c000
c000
c000
ffc0
ffc0
c000
c000
c000
ffc0
ffc0
c000
c000
c000
c000
ENDCHAR
STARTCHAR ddagger
ENCODING 238
SWIDTH 1120 0
DWIDTH 15 0
BBX 10 20 3 0
BITMAP
0c00
0c00
0c00
0c00
ffc0
ffc0
0c00
0c00
0c00
0c00
0c00
0c00
ffc0
ffc0
0c00
0c00
0c00
0c00
0000
0000
ENDCHAR
STARTCHAR dagger
ENCODING 239
SWIDTH 1120 0
DWIDTH 15 0
BBX 10 20 3 0
BITMAP
0c00
0c00
0c00
0c00
ffc0
ffc0
0c00
0c00
0c00
0c00
0c00
0c00
0c00
0c00
0c00
0c00
0c00
0c00
0000
0000
ENDCHAR
STARTCHAR wock
ENCODING 240
SWIDTH 800 0
DWIDTH 11 0
BBX 6 5 3 7
BITMAP
cc
cc
cc
fc
fc
ENDCHAR
STARTCHAR twobars
ENCODING 241
SWIDTH 659 0
DWIDTH 8 0
BBX 7 20 0 0
BITMAP
cc
cc
cc
cc
cc
cc
cc
cc
cc
cc
cc
cc
cc
cc
cc
cc
cc
cc
00
00
ENDCHAR
STARTCHAR mapsto
ENCODING 242
SWIDTH 1440 0
DWIDTH 19 0
BBX 16 10 0 2
BITMAP
c010
c018
c01c
c01e
ffff
ffff
c01e
c01c
c018
c010
ENDCHAR
STARTCHAR bigone
ENCODING 243
SWIDTH 1280 0
DWIDTH 16 0
BBX 12 20 3 0
BITMAP
0fc0
1fc0
3cc0
7cc0
ecc0
ccc0
0cc0
0cc0
0cc0
0cc0
0cc0
0cc0
0cc0
0cc0
0cc0
0cc0
7ff0
7ff0
0000
0000
ENDCHAR
STARTCHAR integral
ENCODING 244
SWIDTH 1372 0
DWIDTH 19 0
BBX 9 26 3 -3
BITMAP
0780
0f80
0f00
1e00
1c00
1c00
1c00
1c00
1c00
1c00
1c00
1c00
1c00
1c00
1c00
1c00
1c00
1c00
1c00
1c00
3c00
7800
f800
f000
0000
0000
ENDCHAR
STARTCHAR dblarrowright
ENCODING 245
SWIDTH 1600 0
DWIDTH 20 0
BBX 19 15 0 0
BITMAP
018000
00c000
00e000
007000
fff800
fffc00
000700
0003c0
000700
fffe00
fff800
007000
00e000
00c000
018000
ENDCHAR
STARTCHAR dblarrowleft
ENCODING 246
SWIDTH 1600 0
DWIDTH 20 0
BBX 19 15 0 0
BITMAP
006000
00c000
01c000
038000
07ff80
0fff80
380000
f00000
380000
0fff80
07ff80
038000
01c000
00c000
006000
ENDCHAR
STARTCHAR heartsuit
ENCODING 247
SWIDTH 1600 0
DWIDTH 20 0
BBX 19 23 0 -3
BITMAP
1e1e00
3f3f00
7bf780
71e380
e0c1c0
e001c0
c000c0
c000c0
e001c0
e001c0
700380
700380
380700
1c0e00
0c0c00
0e1c00
073800
03f000
01e000
01e000
00c000
000000
000000
ENDCHAR
STARTCHAR prec
ENCODING 248
SWIDTH 1120 0
DWIDTH 15 0
BBX 12 13 0 3
BITMAP
0030
0070
00e0
01c0
0f80
fe00
f800
fe00
0f80
01c0
00e0
0070
0030
ENDCHAR
STARTCHAR succ
ENCODING 249
SWIDTH 1120 0
DWIDTH 15 0
BBX 12 13 0 3
BITMAP
c000
e000
7000
3800
1f00
07f0
01f0
07f0
1f00
3800
7000
e000
c000
ENDCHAR
STARTCHAR bracketleft
ENCODING 250
SWIDTH 768 0
DWIDTH 8 0
BBX 7 28 0 -5
BITMAP
fc
fc
c0
c0
c0
c0
c0
c0
c0
c0
c0
c0
c0
c0
c0
c0
c0
c0
c0
c0
c0
c0
c0
c0
c0
c0
fc
fc
ENDCHAR
STARTCHAR bracketright
ENCODING 251
SWIDTH 768 0
DWIDTH 8 0
BBX 7 28 0 -5
BITMAP
fc
fc
0c
0c
0c
0c
0c
0c
0c
0c
0c
0c
0c
0c
0c
0c
0c
0c
0c
0c
0c
0c
0c
0c
0c
0c
fc
fc
ENDCHAR
STARTCHAR integer
ENCODING 252
SWIDTH 1600 0
DWIDTH 20 0
BBX 19 19 0 0
BITMAP
ffffc0
ffffc0
ffffc0
001cc0
0039c0
007380
00e700
01ce00
039c00
073800
0e7000
1ce000
39c000
738000
e70000
ce0000
ffffc0
ffffc0
ffffc0
ENDCHAR
STARTCHAR powertwo
ENCODING 253
SWIDTH 800 0
DWIDTH 11 0
BBX 8 11 0 12
BITMAP
3e
7f
e7
c7
0e
1c
38
70
ff
ff
ff
ENDCHAR
STARTCHAR powerthree
ENCODING 254
SWIDTH 800 0
DWIDTH 11 0
BBX 8 11 0 12
BITMAP
fc
fe
0f
07
0e
3c
0e
07
0f
fe
fc
ENDCHAR
STARTCHAR oint
ENCODING 156
SWIDTH 478 0
DWIDTH 12 0
BBX 14 28 1 -7
BITMAP
0070
00c8
008c
018c
0180
0180
0180
0180
0180
07c0
0b20
1310
1310
1310
1310
1310
0b20
07c0
0300
0600
0600
0600
0600
0600
c600
c400
4c00
3800
ENDCHAR
STARTCHAR ointlarge
ENCODING 157
SWIDTH 558 0
DWIDTH 23 0
BBX 22 55 1 -18
BITMAP
000030
000048
00004c
0000cc
000080
000180
000180
000180
000100
000300
000300
000300
000700
000600
000600
000600
000e00
000e00
000e00
000c00
000c00
003c00
00de00
011d00
021c80
023880
043840
043840
043840
023880
027080
017100
00f600
007800
006000
006000
00e000
00e000
00e000
00c000
00c000
00c000
01c000
018000
018000
018000
010000
030000
030000
030000
020000
c60000
c40000
4c0000
300000
ENDCHAR
STARTCHAR dotlessi
ENCODING 158
SWIDTH 319 0
DWIDTH 8 0
BBX 5 11 1 0
BITMAP
70
50
b0
b0
30
60
60
68
c8
d0
60
ENDCHAR
STARTCHAR dotlessj
ENCODING 159
SWIDTH 398 0
DWIDTH 10 0
BBX 9 16 -1 -5
BITMAP
0700
0580
0980
0980
0180
0300
0300
0300
0300
0600
0600
0600
0600
4c00
c800
7000
ENDCHAR
ENDFONT
