STARTFONT 2.1
COMMENT 
COMMENT  Copyright 1984, 1987 Adobe Systems, Inc.
COMMENT  Portions Copyright 1988 Digital Equipment Corporation
COMMENT 
COMMENT  Adobe is a registered trademark of Adobe Systems, Inc.  Permission 
COMMENT  to use these trademarks is hereby granted only in association with the
COMMENT  images described in this file.
COMMENT 
COMMENT  Permission to use, copy, modify, and distribute this software and
COMMENT  its documentation for any purpose and without fee is hereby granted,
COMMENT  provided that the above copyright notices appear in all copies and
COMMENT  that both those copyright notices and this permission notice appear
COMMENT  in supporting documentation, and that the names of Adobe Systems and
COMMENT  Digital Equipment Corporation not be used in advertising or
COMMENT  publicity pertaining to distribution of the software without
COMMENT  specific, written prior permission.  Adobe Systems and Digital
COMMENT  Equipment Corporation make no representations about the suitability
COMMENT  of this software for any purpose.  It is provided "as is" without
COMMENT  express or implied warranty.
COMMENT 
COMMENT  ADOBE SYSTEMS AND DIGITAL EQUIPMENT CORPORATION DISCLAIM ALL
COMMENT  WARRANTIES WITH REGARD TO THIS SOFTWARE, INCLUDING ALL IMPLIED
COMMENT  WARRANTIES OF MERCHANTABILITY AND FITNESS, IN NO EVENT SHALL ADOBE
COMMENT  SYSTEMS AND DIGITAL EQUIPMENT CORPORATION BE LIABLE FOR ANY SPECIAL,
COMMENT  INDIRECT OR CONSEQUENTIAL DAMAGES OR ANY DAMAGES WHATSOEVER
COMMENT  RESULTING FROM LOSS OF USE, DATA OR PROFITS, WHETHER IN AN ACTION OF
COMMENT  CONTRACT, NEGLIGENCE OR OTHER TORTIOUS ACTION, ARISING OUT OF OR IN
COMMENT  CONNECTION WITH THE USE OR PERFORMANCE OF THIS SOFTWARE.
COMMENT 
COMMENT 
COMMENT Begin LogicalFontDescription
COMMENT END LogicalFontDescription
COMMENT ***** end of inserted font properties
FONT -Mathpad-MathSymbol-Medium-R-Normal--18-180-75-75-P-120-MATHPAD-FONTSPECIFIC
SIZE 18 75 75
FONTBOUNDINGBOX 20 23 -2 -5
STARTPROPERTIES 24
DEFAULT_CHAR 32
FONTNAME_REGISTRY ""
FOUNDRY "Mathpad"
FAMILY_NAME "MathSymbol"
WEIGHT_NAME "Medium"
SLANT "R"
SETWIDTH_NAME "Normal"
ADD_STYLE_NAME ""
PIXEL_SIZE 18
POINT_SIZE 180
RESOLUTION_X 75
RESOLUTION_Y 75
SPACING "P"
AVERAGE_WIDTH 120
CHARSET_REGISTRY "MATHPAD"
CHARSET_ENCODING "FONTSPECIFIC"
CHARSET_COLLECTIONS "FONTSPECIFIC"
FONT_ASCENT 14
FONT_DESCENT 5
FULL_NAME "MathSymbol"
DEVICE_FONT_NAME "mathsymbol"
CAP_HEIGHT 14
X_HEIGHT 9
COPYRIGHT "Copyright (c) 1993 Mathpad, Copyright (c) 1984 Adobe Systems, Inc., Portions Copyright 1988 Digital Equipment Corp."
ENDPROPERTIES
CHARS 223
STARTCHAR space
ENCODING 32
SWIDTH 375 0
DWIDTH 5 0
BBX 2 2 0 0
BITMAP
00
00
ENDCHAR
STARTCHAR bar
ENCODING 33
SWIDTH 500 0
DWIDTH 6 0
BBX 2 14 2 0
BITMAP
c0
c0
c0
c0
c0
c0
c0
c0
c0
c0
c0
c0
c0
00
ENDCHAR
STARTCHAR numbersign
ENCODING 35
SWIDTH 824 0
DWIDTH 12 0
BBX 11 14 0 0
BITMAP
1980
1980
1980
1980
7fe0
7fe0
1980
1980
7fe0
7fe0
1980
1980
1980
1980
ENDCHAR
STARTCHAR half
ENCODING 37
SWIDTH 1250 0
DWIDTH 15 0
BBX 14 14 0 0
BITMAP
2008
6018
2030
2060
20c0
7180
0300
0630
0c48
1808
3010
6020
4078
0000
ENDCHAR
STARTCHAR quarter
ENCODING 38
SWIDTH 1167 0
DWIDTH 15 0
BBX 14 14 0 0
BITMAP
2008
6018
2030
2060
20c0
7180
0300
0620
0c60
18a0
3120
61f0
4020
0000
ENDCHAR
STARTCHAR openbrace
ENCODING 40
SWIDTH 720 0
DWIDTH 9 0
BBX 8 19 0 -3
BITMAP
03
0f
1c
3c
6c
6c
cc
cc
cc
cc
cc
cc
6c
6c
3c
1c
0f
03
00
ENDCHAR
STARTCHAR closebrace
ENCODING 41
SWIDTH 720 0
DWIDTH 9 0
BBX 8 19 0 -3
BITMAP
c0
f0
38
3C
36
36
33
33
33
33
33
33
37
36
3C
38
f0
c0
00
ENDCHAR
STARTCHAR bigdot
ENCODING 42
SWIDTH 750 0
DWIDTH 9 0
BBX 7 7 2 2
BITMAP
38
7c
FE
FE
FE
7c
38
ENDCHAR
STARTCHAR bigopendot
ENCODING 43
SWIDTH 824 0
DWIDTH 11 0
BBX 7 7 2 2
BITMAP
38
7c
c6
c6
c6
7c
38
ENDCHAR
STARTCHAR openbracel
ENCODING 47
SWIDTH 701 0
DWIDTH 8 0
BBX 6 19 0 -3
BITMAP
1C
3C
7C
6C
6C
CC
Cc
cc
cc
cc
cc
Cc
Cc
6c
6c
7C
3C
1C
00
ENDCHAR
STARTCHAR closebracel
ENCODING 48
SWIDTH 701 0
DWIDTH 8 0
BBX 6 19 0 -3
BITMAP
E0
f0
f8
d8
d8
cC
CC
cc
cc
cc
cc
cC
CC
d8
d8
f8
f0
E0
00
ENDCHAR
STARTCHAR openbracket
ENCODING 49
SWIDTH 750 0
DWIDTH 9 0
BBX 8 19 0 -3
BITMAP
Ff
ff
d8
d8
d8
d8
d8
d8
d8
d8
d8
d8
d8
d8
d8
d8
ff
ff
00
ENDCHAR
STARTCHAR closebracket
ENCODING 50
SWIDTH 750 0
DWIDTH 9 0
BBX 8 19 0 -3
BITMAP
Ff
ff
1b
1b
1b
1b
1b
1b
1b
1b
1b
1b
1b
1b
1b
1b
ff
Ff
00
ENDCHAR
STARTCHAR openbanana
ENCODING 16
SWIDTH 750 0
DWIDTH 9 0
BBX 8 18 0 -3
BITMAP
FF
FF
C6
C6
CC
CC
CC
D8
D8
D8
D8
CC
CC
CC
C6
C6
FF
FF
ENDCHAR
STARTCHAR closebanana
ENCODING 17
SWIDTH 750 0
DWIDTH 9 0
BBX 8 18 0 -3
BITMAP
Ff
ff
63
63
33
33
33
1b
1b
1b
1b
33
33
33
63
63
ff
Ff
ENDCHAR
STARTCHAR bopenbracket
ENCODING 51
SWIDTH 810 0
DWIDTH 11 0
BBX 9 19 0 -3
BITMAP
dF80
df80
d800
d800
d800
d800
d800
d800
d800
d800
d800
d800
d800
d800
d800
d800
df80
df80
0000
ENDCHAR
STARTCHAR bclosebracket
ENCODING 52
SWIDTH 810 0
DWIDTH 11 0
BBX 9 19 0 -3
BITMAP
Fd80
fd80
0d80
0d80
0d80
0d80
0d80
0d80
0d80
0d80
0d80
0d80
0d80
0d80
0d80
0d80
fd80
Fd80
0000
ENDCHAR
STARTCHAR lefttriangle
ENCODING 53
SWIDTH 750 0
DWIDTH 9 0
BBX 8 14 0 0
BITMAP
03
07
0f
1f
3b
73
e3
e3
73
3b
1f
0f
07
03
ENDCHAR
STARTCHAR righttriangle
ENCODING 54
SWIDTH 750 0
DWIDTH 9 0
BBX 8 14 0 0
BITMAP
c0
E0
f0
f8
dC
ce
c7
c7
ce
dc
f8
f0
e0
c0
ENDCHAR
STARTCHAR ltriangleline
ENCODING 128
SWIDTH 750 0
DWIDTH 9 0
BBX 8 17 0 -3
BITMAP
03
07
0f
1f
3b
73
e3
e3
73
3b
1f
0f
07
03
00
FF
FF
ENDCHAR
STARTCHAR rtriangleline
ENCODING 129
SWIDTH 750 0
DWIDTH 9 0
BBX 8 17 0 -3
BITMAP
c0
E0
f0
f8
dC
ce
c7
c7
ce
dc
f8
f0
e0
c0
00
ff
ff
ENDCHAR
STARTCHAR boolean
ENCODING 55
SWIDTH 960 0
DWIDTH 12 0
BBX 11 14 0 0
BITMAP
FF80
ffC0
d860
d860
d860
dfc0
df80
d8C0
d860
d860
d860
ffc0
FF80
0000
ENDCHAR
STARTCHAR posint
ENCODING 56
SWIDTH 960 0
DWIDTH 12 0
BBX 11 14 0 0
BITMAP
F860
fc60
dc60
de60
de60
db60
db60
d9e0
d9e0
d8e0
d8e0
f860
F860
0000
ENDCHAR
STARTCHAR float
ENCODING 57
SWIDTH 960 0
DWIDTH 12 0
BBX 11 14 0 0
BITMAP
ff80
ffC0
d8e0
d860
d860
d8e0
dfc0
dF80
df00
db80
d9c0
f8e0
F860
0000
ENDCHAR
STARTCHAR littleless
ENCODING 58
SWIDTH 480 0
DWIDTH 6 0
BBX 5 9 0 2
BITMAP
08
18
30
60
c0
60
30
18
08
ENDCHAR
STARTCHAR littlegreater
ENCODING 59
SWIDTH 480 0
DWIDTH 6 0
BBX 5 9 0 2
BITMAP
80
c0
60
30
18
30
60
c0
80
ENDCHAR
STARTCHAR blackcross
ENCODING 63
SWIDTH 1080 0
DWIDTH 14 0
BBX 12 12 0 0
BITMAP
3Fc0
9F90
cF30
E670
F6F0
FFF0
F6F0
E670
cf30
9F90
3Fc0
0000
ENDCHAR
STARTCHAR empty
ENCODING 91
SWIDTH 960 0
DWIDTH 12 0
BBX 10 17 2 -2
BITMAP
00c0
00c0
00C0
3f80
7f80
e7C0
cec0
cec0
dcc0
dcC0
f9c0
7f80
7f00
c000
c000
c000
0000
ENDCHAR
STARTCHAR therefore
ENCODING 92
SWIDTH 1295 0
DWIDTH 14 0
BBX 10 9 2 0
BITMAP
0c00
0c00
0000
0000
0000
0000
c0c0
c0c0
0000
ENDCHAR
STARTCHAR top
ENCODING 93
SWIDTH 960 0
DWIDTH 12 0
BBX 11 14 0 0
BITMAP
FFC0
ffc0
0c00
0c00
0c00
0c00
0c00
0c00
0c00
0c00
0c00
0c00
0c00
0000
ENDCHAR
STARTCHAR bottom
ENCODING 94
SWIDTH 987 0
DWIDTH 12 0
BBX 11 14 0 0
BITMAP
0c00
0c00
0c00
0c00
0c00
0c00
0c00
0c00
0c00
0c00
0c00
ffc0
FFC0
0000
ENDCHAR
STARTCHAR dbltop
ENCODING 153
SWIDTH 960 0
DWIDTH 12 0
BBX 11 13 0 0
BITMAP
FFC0
FFC0
3300
3300
3300
3300
3300
3300
3300
3300
3300
3300
3300
ENDCHAR
STARTCHAR dblbottom
ENCODING 154
SWIDTH 987 0
DWIDTH 12 0
BBX 11 13 0 0
BITMAP
3300
3300
3300
3300
3300
3300
3300
3300
3300
3300
3300
FFC0
FFC0
ENDCHAR
STARTCHAR underscore
ENCODING 95
SWIDTH 750 0
DWIDTH 9 0
BBX 9 2 0 -5
BITMAP
FF80
0000
ENDCHAR
STARTCHAR radicalex
ENCODING 96
SWIDTH 750 0
DWIDTH 9 0
BBX 11 1 0 17
BITMAP
FFC0
ENDCHAR
STARTCHAR lessless
ENCODING 123
SWIDTH 840 0
DWIDTH 11 0
BBX 9 7 0 2
BITMAP
1980
3300
6600
Cc00
6600
3300
1980
ENDCHAR
STARTCHAR settimes
ENCODING 124
SWIDTH 1080 0
DWIDTH 14 0
BBX 12 12 0 0
BITMAP
c030
6060
30c0
1980
0F00
0600
0F00
1980
30c0
6060
c030
0000
ENDCHAR
STARTCHAR greatergreater
ENCODING 125
SWIDTH 840 0
DWIDTH 11 0
BBX 9 7 0 2
BITMAP
cc00
6600
3300
1980
3300
6600
Cc00
ENDCHAR
STARTCHAR similar
ENCODING 126
SWIDTH 824 0
DWIDTH 11 0
BBX 11 4 0 4
BITMAP
3860
6C60
C6c0
c380
ENDCHAR
STARTCHAR similardot
ENCODING 130
SWIDTH 824 0
DWIDTH 11 0
BBX 11 7 0 5
BITMAP
0600
0600
0000
3860
6C60
C6C0
C380
ENDCHAR
STARTCHAR lleadstonat
ENCODING 131
SWIDTH 1200 0
DWIDTH 15 0
BBX 14 8 0 3
BITMAP
0600
0600
0030
3818
6C7C
C6cC
c398
0030
ENDCHAR
STARTCHAR rleadstonat
ENCODING 132
SWIDTH 1200 0
DWIDTH 15 0
BBX 14 8 0 3
BITMAP
00C0
00C0
3000
670C
CD8C
F8D8
6070
3000
ENDCHAR
STARTCHAR dblleadstonat
ENCODING 133
SWIDTH 1200 0
DWIDTH 18 0
BBX 17 8 0 3
BITMAP
00C000
00C000
300600
670300
CD8F80
F8D980
607300
300600
ENDCHAR
STARTCHAR lleadsto
ENCODING 147
SWIDTH 1200 0
DWIDTH 15 0
BBX 14 6 0 3
BITMAP
0030
3818
6C7C
C6cC
c398
0030
ENDCHAR
STARTCHAR rleadsto
ENCODING 148
SWIDTH 1200 0
DWIDTH 15 0
BBX 14 6 0 3
BITMAP
3000
670C
CD8C
F8D8
6070
3000
ENDCHAR
STARTCHAR dblleadsto
ENCODING 149
SWIDTH 1480 0
DWIDTH 18 0
BBX 17 6 0 3
BITMAP
300600
670300
CD8F80
F8D980
607300
300600
ENDCHAR
STARTCHAR uptriangle
ENCODING 134
SWIDTH 800 0
DWIDTH 10 0
BBX 9 6 0 4
BITMAP
0800
1C00
3600
6300
C180
FF80
ENDCHAR
STARTCHAR downtriangle
ENCODING 135
SWIDTH 800 0
DWIDTH 10 0
BBX 9 6 0 4
BITMAP
FF80
C180
6300
3600
1C00
0800
ENDCHAR
STARTCHAR filluptriangle
ENCODING 136
SWIDTH 800 0
DWIDTH 10 0
BBX 9 6 0 4
BITMAP
0800
1C00
3E00
7F00
FF80
FF80
ENDCHAR
STARTCHAR filldowntriangle
ENCODING 137
SWIDTH 800 0
DWIDTH 10 0
BBX 9 6 0 4
BITMAP
FF80
FF80
7F00
3E00
1C00
0800
ENDCHAR
STARTCHAR davidstar
ENCODING 150
SWIDTH 960 0
DWIDTH 12 0
BBX 11 11 0 4
BITMAP
0400
0A00
FFE0
5140
60C0
2080
60C0
5140
FFE0
0A00
0400
ENDCHAR
STARTCHAR fivestar
ENCODING 155
SWIDTH 960 0
DWIDTH 12 0
BBX 11 10 0 2
BITMAP
0400
0400
0400
C460
3580
0E00
0A00
1100
2080
4040
ENDCHAR
STARTCHAR harrowleft
ENCODING 138
SWIDTH 1080 0
DWIDTH 14 0
BBX 13 7 0 3
BITMAP
00E0
30F0
6018
FFF8
FFF0
6000
3000
ENDCHAR
STARTCHAR harrowright
ENCODING 139
SWIDTH 1080 0
DWIDTH 14 0
BBX 13 7 0 3
BITMAP
3800
7860
C030
ffF8
7FF8
0030
0060
ENDCHAR
STARTCHAR harparrowleft
ENCODING 140
SWIDTH 1080 0
DWIDTH 13 0
BBX 12 4 0 5
BITMAP
3000
6000
fff0
FFF0
ENDCHAR
STARTCHAR harparrowright
ENCODING 141
SWIDTH 1080 0
DWIDTH 13 0
BBX 12 4 0 5
BITMAP
00c0
0060
ffF0
fFF0
ENDCHAR
STARTCHAR arrowdblleft
ENCODING 142
SWIDTH 1280 0
DWIDTH 16 0
BBX 15 6 0 3
BITMAP
3300
6600
FFFE
FFFE
6600
3300
ENDCHAR
STARTCHAR arrowdblright
ENCODING 143
SWIDTH 1280 0
DWIDTH 16 0
BBX 15 6 0 3
BITMAP
0198
00CC
FFFE
FFFE
00CC
0198
ENDCHAR
STARTCHAR lesssim
ENCODING 151
SWIDTH 824 0
DWIDTH 11 0
BBX 9 12 0 -1
BITMAP
0300
0f00
3c00
f000
f000
3c00
0f00
0300
6000
f900
9f00
0600
ENDCHAR
STARTCHAR bigbox
ENCODING 166
SWIDTH 960 0
DWIDTH 12 0
BBX 11 15 0 0
BITMAP
fFe0
ffe0
c060
c060
c060
c060
c060
c060
c060
c060
c060
c060
c060
fFe0
ffe0
ENDCHAR
STARTCHAR lessequal
ENCODING 167
SWIDTH 1130 0
DWIDTH 14 0
BBX 10 9 2 0
BITMAP
00C0
03c0
0f00
3c00
FFC0
ffc0
0000
Ffc0
ffc0
ENDCHAR
STARTCHAR less
ENCODING 168
SWIDTH 1130 0
DWIDTH 14 0
BBX 10 6 2 2
BITMAP
00C0
03c0
0f00
3c00
ffc0
FFC0
ENDCHAR
STARTCHAR greater
ENCODING 169
SWIDTH 1130 0
DWIDTH 14 0
BBX 10 6 2 2
BITMAP
c000
f000
3c00
0f00
fFC0
fFC0
ENDCHAR
STARTCHAR greaterequal
ENCODING 170
SWIDTH 1130 0
DWIDTH 14 0
BBX 10 9 2 0
BITMAP
C000
f000
3c00
0f00
FFC0
ffc0
0000
FFC0
ffc0
ENDCHAR
STARTCHAR arrowboth
ENCODING 171
SWIDTH 1563 0
DWIDTH 20 0
BBX 16 7 2 2
BITMAP
300c
6006
fffF
FFFF
6006
300c
0000
ENDCHAR
STARTCHAR arrowleft
ENCODING 172
SWIDTH 1080 0
DWIDTH 14 0
BBX 12 7 0 2
BITMAP
3000
6000
fff0
FFF0
6000
3000
0000
ENDCHAR
STARTCHAR arrowup
ENCODING 173
SWIDTH 905 0
DWIDTH 11 0
BBX 7 15 2 0
BITMAP
30
78
fc
B4
30
30
30
30
30
30
30
30
30
30
00
ENDCHAR
STARTCHAR arrowright
ENCODING 174
SWIDTH 1080 0
DWIDTH 14 0
BBX 12 7 0 2
BITMAP
00c0
0060
ffF0
fFF0
0060
00c0
0000
ENDCHAR
STARTCHAR arrowdown
ENCODING 175
SWIDTH 905 0
DWIDTH 11 0
BBX 7 14 2 0
BITMAP
30
30
30
30
30
30
30
30
30
B4
fc
78
30
00
ENDCHAR
STARTCHAR greatersim
ENCODING 152
SWIDTH 824 0
DWIDTH 11 0
BBX 9 12 0 -1
BITMAP
6000
7800
1e00
0780
0780
1e00
7800
6000
3000
7C80
4f80
0300
ENDCHAR
STARTCHAR defequal
ENCODING 189
SWIDTH 824 0
DWIDTH 11 0
BBX 7 9 2 2
BITMAP
10
38
6C
c6
fE
FE
00
fe
FE
ENDCHAR
STARTCHAR arrowhorizex
ENCODING 190
SWIDTH 1080 0
DWIDTH 14 0
BBX 14 1 0 5
BITMAP
FFF8
ENDCHAR
STARTCHAR join
ENCODING 191
SWIDTH 1120 0
DWIDTH 14 0
BBX 13 13 0 -1
BITMAP
C018
E038
F078
D8D8
CD98
C718
C218
C718
CD98
D8D8
F078
E038
C018
ENDCHAR
STARTCHAR leftjoin
ENCODING 144
SWIDTH 1120 0
DWIDTH 14 0
BBX 13 13 0 -1
BITMAP
C018
E038
B078
B8D8
AD98
A718
A218
A718
AD98
B8D8
B078
E038
C018
ENDCHAR
STARTCHAR rightjoin
ENCODING 145
SWIDTH 1120 0
DWIDTH 14 0
BBX 13 13 0 -1
BITMAP
C018
E038
F068
D8E8
CDA8
C728
C228
C728
CDA8
D8E8
F068
E038
C018
ENDCHAR
STARTCHAR circledot
ENCODING 210
SWIDTH 1185 0
DWIDTH 15 0
BBX 14 14 0 0
BITMAP
0780
1fe0
3870
7038
6018
C30c
C78c
c78c
C30c
6018
7038
3870
1Fe0
0780
ENDCHAR
STARTCHAR circleslash
ENCODING 211
SWIDTH 1185 0
DWIDTH 15 0
BBX 14 14 0 0
BITMAP
0780
1fe0
3c70
7078
60f8
C1cc
C38c
870c
Ce0c
7c18
7838
3870
1Fe0
0780
ENDCHAR
STARTCHAR bararrowright
ENCODING 212
SWIDTH 1335 0
DWIDTH 17 0
BBX 15 7 0 2
BITMAP
0000
0618
061c
FfFE
fffe
061c
0618
ENDCHAR
STARTCHAR diamond
ENCODING 224
SWIDTH 741 0
DWIDTH 12 0
BBX 11 11 0 0
BITMAP
0400
0E00
1B00
3180
60c0
C060
60c0
3180
1B00
0e00
0400
ENDCHAR
STARTCHAR smallbar
ENCODING 225
SWIDTH 600 0
DWIDTH 8 0
BBX 6 15 0 0
BITMAP
FC
fc
cc
cc
cc
cc
cc
cc
cc
cc
cc
cc
cc
FC
fc
ENDCHAR
STARTCHAR circleminus
ENCODING 226
SWIDTH 1185 0
DWIDTH 15 0
BBX 14 14 0 0
BITMAP
0780
1fe0
3870
7038
6018
C00c
FFFc
Fffc
c00c
6018
7038
3870
1Fe0
0780
ENDCHAR
STARTCHAR circleempty
ENCODING 227
SWIDTH 1185 0
DWIDTH 15 0
BBX 14 14 0 0
BITMAP
0780
1fe0
3870
7038
6018
C00c
C00c
c00c
C00c
6018
7038
3870
1Fe0
0780
ENDCHAR
STARTCHAR circleequal
ENCODING 146
SWIDTH 1185 0
DWIDTH 15 0
BBX 14 14 0 0
BITMAP
0780
1FE0
3870
7038
7FF8
FFFC
C00C
C00C
FFFC
7FF8
7038
3870
1FE0
0780
ENDCHAR
STARTCHAR bararrowleft
ENCODING 228
SWIDTH 1320 0
DWIDTH 17 0
BBX 15 7 0 2
BITMAP
0000
3060
7060
FFfE
fffe
7060
3060
ENDCHAR
STARTCHAR sqsubseteq
ENCODING 230
SWIDTH 1080 0
DWIDTH 14 0
BBX 12 12 0 -3
BITMAP
FFF0
fff0
c000
c000
c000
c000
fff0
ffF0
0000
0000
fff0
FFF0
ENDCHAR
STARTCHAR sqsubset
ENCODING 231
SWIDTH 1080 0
DWIDTH 14 0
BBX 12 9 0 0
BITMAP
FfF0
fff0
c000
c000
c000
c000
fff0
FFF0
0000
ENDCHAR
STARTCHAR sqsupseteq
ENCODING 232
SWIDTH 1080 0
DWIDTH 14 0
BBX 12 12 0 -3
BITMAP
FFF0
fff0
0030
0030
0030
0030
fff0
FFF0
0000
0000
fff0
fFF0
ENDCHAR
STARTCHAR sqsupset
ENCODING 233
SWIDTH 1080 0
DWIDTH 14 0
BBX 12 9 0 0
BITMAP
FFF0
fff0
0030
0030
0030
0030
fff0
fFF0
0000
ENDCHAR
STARTCHAR sqcup
ENCODING 234
SWIDTH 840 0
DWIDTH 11 0
BBX 9 9 0 0
BITMAP
c180
c180
c180
c180
c180
c180
c180
Ff80
ff80
ENDCHAR
STARTCHAR sqcap
ENCODING 235
SWIDTH 840 0
DWIDTH 11 0
BBX 9 9 0 0
BITMAP
FF80
ff80
c180
c180
c180
c180
c180
c180
c180
ENDCHAR
STARTCHAR vdash
ENCODING 236
SWIDTH 741 0
DWIDTH 9 0
BBX 8 11 0 0
BITMAP
c0
c0
c0
c0
ff
ff
c0
c0
c0
c0
00
ENDCHAR
STARTCHAR models
ENCODING 237
SWIDTH 720 0
DWIDTH 9 0
BBX 8 11 0 0
BITMAP
c0
c0
c0
ff
ff
c0
ff
ff
c0
c0
c0
ENDCHAR
STARTCHAR ddagger
ENCODING 238
SWIDTH 840 0
DWIDTH 11 0
BBX 8 15 2 0
BITMAP
18
18
18
ff
ff
18
18
18
18
ff
Ff
18
18
18
00
ENDCHAR
STARTCHAR dagger
ENCODING 239
SWIDTH 840 0
DWIDTH 11 0
BBX 8 15 2 0
BITMAP
18
18
18
Ff
ff
18
18
18
18
18
18
18
18
18
00
ENDCHAR
STARTCHAR wock
ENCODING 240
SWIDTH 600 0
DWIDTH 8 0
BBX 5 4 2 5
BITMAP
d8
d8
f8
F8
ENDCHAR
STARTCHAR twobars
ENCODING 241
SWIDTH 494 0
DWIDTH 6 0
BBX 5 15 0 0
BITMAP
d8
d8
d8
d8
d8
d8
d8
d8
d8
d8
d8
d8
d8
d8
00
ENDCHAR
STARTCHAR mapsto
ENCODING 242
SWIDTH 1080 0
DWIDTH 14 0
BBX 12 7 0 2
BITMAP
c080
c0C0
c0e0
ffF0
fff0
c0e0
c0c0
ENDCHAR
STARTCHAR bigone
ENCODING 243
SWIDTH 960 0
DWIDTH 12 0
BBX 9 15 2 0
BITMAP
1f00
3f00
7b00
fb00
db00
1b00
1b00
1b00
1b00
1b00
1b00
1b00
7f80
7F80
0000
ENDCHAR
STARTCHAR integral
ENCODING 244
SWIDTH 1029 0
DWIDTH 14 0
BBX 7 19 2 -2
BITMAP
0E
0E
1E
18
18
18
18
18
18
18
18
18
18
18
38
F8
F0
E0
00
ENDCHAR
STARTCHAR dblarrowright
ENCODING 245
SWIDTH 1200 0
DWIDTH 15 0
BBX 14 11 0 0
BITMAP
0600
0300
0180
FFc0
ffF0
003c
fFf0
ffC0
0180
0300
0600
ENDCHAR
STARTCHAR dblarrowleft
ENCODING 246
SWIDTH 1200 0
DWIDTH 15 0
BBX 14 11 0 0
BITMAP
0180
0300
0600
0FF8
3Ff8
f000
3FF8
0Ff8
0600
0300
0180
ENDCHAR
STARTCHAR heartsuit
ENCODING 247
SWIDTH 1200 0
DWIDTH 15 0
BBX 14 17 0 -2
BITMAP
3870
7Cf8
e79c
c30c
c00c
C00c
C00c
6018
6018
3030
3870
1860
0cc0
0780
0300
0300
0000
ENDCHAR
STARTCHAR prec
ENCODING 248
SWIDTH 840 0
DWIDTH 11 0
BBX 9 10 0 2
BITMAP
0180
0380
0700
1e00
F800
f800
1e00
0700
0380
0180
ENDCHAR
STARTCHAR succ
ENCODING 249
SWIDTH 840 0
DWIDTH 11 0
BBX 9 10 0 2
BITMAP
c000
e000
7000
3c00
0F80
0F80
3c00
7000
e000
c000
ENDCHAR
STARTCHAR bracketleft
ENCODING 250
SWIDTH 576 0
DWIDTH 6 0
BBX 5 21 0 -4
BITMAP
F8
f8
c0
c0
c0
c0
c0
c0
c0
c0
c0
c0
c0
c0
c0
c0
c0
c0
c0
f8
F8
ENDCHAR
STARTCHAR bracketright
ENCODING 251
SWIDTH 576 0
DWIDTH 6 0
BBX 5 21 0 -4
BITMAP
f8
f8
18
18
18
18
18
18
18
18
18
18
18
18
18
18
18
18
18
f8
F8
ENDCHAR
STARTCHAR integer
ENCODING 252
SWIDTH 1200 0
DWIDTH 15 0
BBX 14 14 0 0
BITMAP
FFFc
fffc
006c
00d8
01b0
0360
06c0
0d80
1b00
3600
6C00
D800
FFfc
fffc
ENDCHAR
STARTCHAR powertwo
ENCODING 253
SWIDTH 600 0
DWIDTH 8 0
BBX 6 8 0 9
BITMAP
78
fC
Cc
18
30
60
fc
fc
ENDCHAR
STARTCHAR powerthree
ENCODING 254
SWIDTH 600 0
DWIDTH 8 0
BBX 6 8 0 9
BITMAP
F8
fC
0C
38
3C
0c
Fc
f8
ENDCHAR
STARTCHAR quotedbl
ENCODING 34
SWIDTH 693 0
DWIDTH 13 0
BBX 13 13 0 0
BITMAP
c018
c018
6030
6030
3fe0
3060
18c0
18c0
0880
0d80
0500
0700
0200
ENDCHAR
STARTCHAR dollar
ENCODING 36
SWIDTH 533 0
DWIDTH 10 0
BBX 8 13 1 0
BITMAP
ff
03
03
03
03
03
7f
03
03
03
03
03
ff
ENDCHAR
STARTCHAR apostrophe
ENCODING 39
SWIDTH 426 0
DWIDTH 8 0
BBX 6 9 1 0
BITMAP
f0
38
1c
0c
7c
0c
1c
38
f0
ENDCHAR
STARTCHAR comma
ENCODING 44
SWIDTH 266 0
DWIDTH 5 0
BBX 3 5 1 -3
BITMAP
60
60
20
60
c0
ENDCHAR
STARTCHAR minus
ENCODING 45
SWIDTH 480 0
DWIDTH 9 0
BBX 7 2 1 4
BITMAP
fe
fe
ENDCHAR
STARTCHAR period
ENCODING 46
SWIDTH 213 0
DWIDTH 4 0
BBX 2 2 1 0
BITMAP
c0
c0
ENDCHAR
STARTCHAR less
ENCODING 60
SWIDTH 533 0
DWIDTH 10 0
BBX 9 9 0 0
BITMAP
0380
0f00
3c00
f000
c000
f000
3c00
0f00
0380
ENDCHAR
STARTCHAR equal
ENCODING 61
SWIDTH 533 0
DWIDTH 10 0
BBX 8 6 1 2
BITMAP
ff
ff
00
00
ff
ff
ENDCHAR
STARTCHAR greater
ENCODING 62
SWIDTH 533 0
DWIDTH 10 0
BBX 9 9 0 0
BITMAP
e000
7800
1e00
0780
0180
0780
1e00
7800
e000
ENDCHAR
STARTCHAR at
ENCODING 64
SWIDTH 533 0
DWIDTH 10 0
BBX 8 9 1 0
BITMAP
73
ff
ce
00
ff
ff
00
ff
ff
ENDCHAR
STARTCHAR A
ENCODING 65
SWIDTH 746 0
DWIDTH 14 0
BBX 12 13 1 0
BITMAP
0400
0e00
0e00
0b00
1b00
1300
1180
3180
3fc0
20c0
60c0
60e0
f1f0
ENDCHAR
STARTCHAR B
ENCODING 66
SWIDTH 586 0
DWIDTH 11 0
BBX 9 13 1 0
BITMAP
fc00
6600
6300
6300
6300
6600
7e00
6300
6180
6180
6180
6380
ff00
ENDCHAR
STARTCHAR C
ENCODING 67
SWIDTH 746 0
DWIDTH 14 0
BBX 12 13 1 0
BITMAP
f070
7060
38c0
18c0
1d80
0f00
0600
0f00
1b80
3180
31c0
60e0
e0f0
ENDCHAR
STARTCHAR D
ENCODING 68
SWIDTH 586 0
DWIDTH 11 0
BBX 11 13 0 0
BITMAP
0400
0600
0e00
0b00
1300
1300
1180
2180
21c0
40c0
40c0
8060
ffe0
ENDCHAR
STARTCHAR E
ENCODING 69
SWIDTH 586 0
DWIDTH 11 0
BBX 9 13 1 0
BITMAP
ff80
6180
6080
6000
6000
6100
7f00
6100
6000
6000
6080
6180
ff80
ENDCHAR
STARTCHAR F
ENCODING 70
SWIDTH 746 0
DWIDTH 14 0
BBX 12 13 1 0
BITMAP
0f00
0600
1f80
6660
c630
c630
c630
c630
c630
6660
1f80
0600
0f00
ENDCHAR
STARTCHAR G
ENCODING 71
SWIDTH 586 0
DWIDTH 11 0
BBX 10 13 0 0
BITMAP
ffc0
70c0
3040
3000
3000
3000
3000
3000
3000
3000
3000
3000
7800
ENDCHAR
STARTCHAR H
ENCODING 72
SWIDTH 693 0
DWIDTH 13 0
BBX 11 13 1 0
BITMAP
f1e0
60c0
60c0
60c0
60c0
60c0
7fc0
60c0
60c0
60c0
60c0
60c0
f1e0
ENDCHAR
STARTCHAR I
ENCODING 73
SWIDTH 320 0
DWIDTH 6 0
BBX 4 13 1 0
BITMAP
f0
60
60
60
60
60
60
60
60
60
60
60
f0
ENDCHAR
STARTCHAR J
ENCODING 74
SWIDTH 640 0
DWIDTH 12 0
BBX 11 13 1 0
BITMAP
0600
0b00
0980
0580
6380
f180
b1c0
31a0
3180
3180
3180
3b00
1e00
ENDCHAR
STARTCHAR K
ENCODING 75
SWIDTH 746 0
DWIDTH 14 0
BBX 11 13 2 0
BITMAP
f3c0
6180
6300
6600
6c00
7800
7800
6c00
6600
6300
6380
61c0
f1e0
ENDCHAR
STARTCHAR L
ENCODING 76
SWIDTH 693 0
DWIDTH 13 0
BBX 12 13 0 0
BITMAP
0600
0600
0f00
0b00
0b00
1980
1180
1180
30c0
20c0
2060
6060
f0f0
ENDCHAR
STARTCHAR M
ENCODING 77
SWIDTH 853 0
DWIDTH 16 0
BBX 14 13 1 0
BITMAP
e01c
7038
7038
5878
5858
58d8
4c98
4c98
4d98
4718
4718
4318
e23c
ENDCHAR
STARTCHAR N
ENCODING 78
SWIDTH 693 0
DWIDTH 13 0
BBX 11 13 1 0
BITMAP
e0e0
7040
7040
5840
4c40
4c40
4640
4340
43c0
41c0
40c0
40c0
e040
ENDCHAR
STARTCHAR O
ENCODING 79
SWIDTH 693 0
DWIDTH 13 0
BBX 11 13 1 0
BITMAP
0e00
3180
60c0
e0e0
c060
c060
c060
c060
c060
e0e0
60c0
3180
0e00
ENDCHAR
STARTCHAR P
ENCODING 80
SWIDTH 693 0
DWIDTH 13 0
BBX 11 13 1 0
BITMAP
ffe0
60c0
60c0
60c0
60c0
60c0
60c0
60c0
60c0
60c0
60c0
60c0
f1e0
ENDCHAR
STARTCHAR Q
ENCODING 81
SWIDTH 693 0
DWIDTH 13 0
BBX 11 13 1 0
BITMAP
0e00
3180
60c0
e0e0
c060
d160
df60
d160
c060
e0e0
60c0
3180
0e00
ENDCHAR
STARTCHAR R
ENCODING 82
SWIDTH 533 0
DWIDTH 10 0
BBX 8 13 1 0
BITMAP
fe
67
63
63
63
67
7e
60
60
60
60
60
f0
ENDCHAR
STARTCHAR S
ENCODING 83
SWIDTH 586 0
DWIDTH 11 0
BBX 10 13 1 0
BITMAP
ff80
c180
6080
3000
1800
0c00
0c00
0800
1000
2040
40c0
ff80
ff80
ENDCHAR
STARTCHAR T
ENCODING 84
SWIDTH 640 0
DWIDTH 12 0
BBX 10 13 1 0
BITMAP
ffc0
ccc0
8c40
0c00
0c00
0c00
0c00
0c00
0c00
0c00
0c00
0c00
1e00
ENDCHAR
STARTCHAR U
ENCODING 85
SWIDTH 693 0
DWIDTH 13 0
BBX 12 13 0 0
BITMAP
f8f0
7060
30c0
18c0
1d80
0f00
0f00
0600
0600
0600
0600
0600
0f00
ENDCHAR
STARTCHAR V
ENCODING 86
SWIDTH 426 0
DWIDTH 8 0
BBX 6 13 1 -4
BITMAP
3c
7c
c0
80
80
80
c0
78
3c
04
04
3c
38
ENDCHAR
STARTCHAR W
ENCODING 87
SWIDTH 746 0
DWIDTH 14 0
BBX 13 13 0 0
BITMAP
0700
18c0
3060
7070
6030
6030
6030
6030
3060
18c0
8888
f8f8
f8f8
ENDCHAR
STARTCHAR X
ENCODING 88
SWIDTH 640 0
DWIDTH 12 0
BBX 10 13 1 0
BITMAP
7f80
7f80
4080
0000
2100
3f00
3f00
2100
0000
8040
8040
ffc0
ffc0
ENDCHAR
STARTCHAR Y
ENCODING 89
SWIDTH 800 0
DWIDTH 15 0
BBX 14 13 0 0
BITMAP
c78c
6318
6318
6318
6318
3330
1fe0
0300
0300
0300
0300
0300
0780
ENDCHAR
STARTCHAR Z
ENCODING 90
SWIDTH 586 0
DWIDTH 11 0
BBX 9 13 1 0
BITMAP
ff80
c380
8300
0700
0600
0e00
1c00
1800
3800
7000
6080
e180
ff80
ENDCHAR
STARTCHAR a
ENCODING 97
SWIDTH 640 0
DWIDTH 12 0
BBX 11 9 1 0
BITMAP
3cc0
6580
c300
c300
c300
c300
c300
6520
38c0
ENDCHAR
STARTCHAR b
ENCODING 98
SWIDTH 533 0
DWIDTH 10 0
BBX 8 18 1 -4
BITMAP
3c
46
c6
c6
c6
cc
c6
c3
c3
c3
c3
c3
e6
dc
c0
c0
c0
c0
ENDCHAR
STARTCHAR c
ENCODING 99
SWIDTH 533 0
DWIDTH 10 0
BBX 10 13 0 -4
BITMAP
60c0
f1c0
9180
1300
1700
0e00
0c00
1c00
1a00
3200
6240
e3c0
c180
ENDCHAR
STARTCHAR d
ENCODING 100
SWIDTH 480 0
DWIDTH 9 0
BBX 7 14 1 0
BITMAP
38
4c
40
60
30
38
6c
c6
c6
c6
c6
c6
6c
38
ENDCHAR
STARTCHAR e
ENCODING 101
SWIDTH 426 0
DWIDTH 8 0
BBX 6 9 1 0
BITMAP
78
ec
cc
c0
70
c0
c0
e4
78
ENDCHAR
STARTCHAR f
ENCODING 102
SWIDTH 586 0
DWIDTH 11 0
BBX 9 16 1 -4
BITMAP
0800
0800
0800
3e00
6b00
c980
c980
c980
c980
c980
6b00
3e00
0800
0800
0800
0800
ENDCHAR
STARTCHAR g
ENCODING 103
SWIDTH 426 0
DWIDTH 8 0
BBX 8 13 0 -4
BITMAP
c3
e3
a3
26
26
16
14
1c
0c
18
18
18
18
ENDCHAR
STARTCHAR h
ENCODING 104
SWIDTH 586 0
DWIDTH 11 0
BBX 9 13 1 -4
BITMAP
6700
e980
b180
3180
3180
3180
3180
3180
3180
0180
0180
0180
0180
ENDCHAR
STARTCHAR i
ENCODING 105
SWIDTH 320 0
DWIDTH 6 0
BBX 5 9 1 0
BITMAP
60
e0
60
60
60
60
60
68
70
ENDCHAR
STARTCHAR j
ENCODING 106
SWIDTH 586 0
DWIDTH 11 0
BBX 9 13 1 -4
BITMAP
6600
cf00
c980
c980
c980
c980
4900
6b00
3e00
0800
0800
0800
0800
ENDCHAR
STARTCHAR k
ENCODING 107
SWIDTH 533 0
DWIDTH 10 0
BBX 9 9 0 0
BITMAP
6380
e580
6800
7800
7c00
6e00
6700
6380
6180
ENDCHAR
STARTCHAR l
ENCODING 108
SWIDTH 533 0
DWIDTH 10 0
BBX 10 14 0 0
BITMAP
3000
7800
4800
0800
0800
0800
1c00
1c00
3400
3400
6600
6240
c3c0
c180
ENDCHAR
STARTCHAR m
ENCODING 109
SWIDTH 586 0
DWIDTH 11 0
BBX 9 13 2 -4
BITMAP
4200
c600
c600
c600
c600
c600
c680
fb80
7b00
4000
c000
c000
c000
ENDCHAR
STARTCHAR n
ENCODING 110
SWIDTH 533 0
DWIDTH 10 0
BBX 8 9 1 0
BITMAP
c3
c3
61
62
32
34
1c
18
08
ENDCHAR
STARTCHAR o
ENCODING 111
SWIDTH 533 0
DWIDTH 10 0
BBX 8 9 1 0
BITMAP
3c
66
c3
c3
c3
c3
c3
66
3c
ENDCHAR
STARTCHAR p
ENCODING 112
SWIDTH 533 0
DWIDTH 10 0
BBX 9 9 0 0
BITMAP
7f80
ff80
9200
1200
1200
1200
3280
7380
6300
ENDCHAR
STARTCHAR q
ENCODING 113
SWIDTH 533 0
DWIDTH 10 0
BBX 8 13 1 0
BITMAP
3c
66
c3
c3
c3
c3
ff
c3
c3
c3
c3
66
3c
ENDCHAR
STARTCHAR r
ENCODING 114
SWIDTH 533 0
DWIDTH 10 0
BBX 8 13 1 -4
BITMAP
3c
46
c3
c3
c3
c3
c3
e6
dc
c0
c0
c0
c0
ENDCHAR
STARTCHAR s
ENCODING 115
SWIDTH 586 0
DWIDTH 11 0
BBX 10 9 1 0
BITMAP
1fc0
7fc0
6600
c300
c300
c300
c300
6600
3c00
ENDCHAR
STARTCHAR t
ENCODING 116
SWIDTH 426 0
DWIDTH 8 0
BBX 7 9 0 0
BITMAP
7e
fe
90
10
10
10
12
1e
1c
ENDCHAR
STARTCHAR u
ENCODING 117
SWIDTH 586 0
DWIDTH 11 0
BBX 9 9 1 0
BITMAP
6300
f180
b180
3180
3180
3180
3180
3b00
1e00
ENDCHAR
STARTCHAR v
ENCODING 118
SWIDTH 640 0
DWIDTH 12 0
BBX 11 11 0 0
BITMAP
3fe0
7fe0
9980
30c0
2040
6660
6660
6660
6660
36c0
39c0
ENDCHAR
STARTCHAR w
ENCODING 119
SWIDTH 640 0
DWIDTH 12 0
BBX 10 9 1 0
BITMAP
3300
6180
4080
ccc0
ccc0
ccc0
ccc0
6d80
7380
ENDCHAR
STARTCHAR x
ENCODING 120
SWIDTH 480 0
DWIDTH 9 0
BBX 7 19 1 -4
BITMAP
60
8e
fc
20
40
40
7c
78
c0
80
80
80
c0
fc
7e
02
02
1e
1c
ENDCHAR
STARTCHAR y
ENCODING 121
SWIDTH 693 0
DWIDTH 13 0
BBX 13 13 0 -4
BITMAP
e238
7270
3260
3260
3260
3260
1ac0
1ac0
0f80
0200
0200
0200
0200
ENDCHAR
STARTCHAR z
ENCODING 122
SWIDTH 480 0
DWIDTH 9 0
BBX 7 19 1 -4
BITMAP
60
86
9e
78
60
40
80
80
80
80
80
80
c0
fc
7e
02
02
1e
1c
ENDCHAR
STARTCHAR exclamdown
ENCODING 161
SWIDTH 640 0
DWIDTH 12 0
BBX 11 13 0 0
BITMAP
e1c0
7320
3a60
1c60
0c00
0c00
0c00
0c00
0c00
0c00
0c00
0c00
1e00
ENDCHAR
STARTCHAR cent
ENCODING 162
SWIDTH 266 0
DWIDTH 5 0
BBX 4 5 1 9
BITMAP
30
70
60
c0
80
ENDCHAR
STARTCHAR sterling
ENCODING 163
SWIDTH 533 0
DWIDTH 10 0
BBX 9 12 0 0
BITMAP
0380
0f00
3c00
f000
c000
f000
3c00
0f00
0380
0000
ff80
ff80
ENDCHAR
STARTCHAR currency
ENCODING 164
SWIDTH 266 0
DWIDTH 5 0
BBX 8 13 -1 0
BITMAP
03
06
06
0c
0c
18
18
30
30
60
60
c0
c0
ENDCHAR
STARTCHAR yen
ENCODING 165
SWIDTH 693 0
DWIDTH 13 0
BBX 12 5 0 3
BITMAP
79e0
cf30
8610
cf30
79e0
ENDCHAR
STARTCHAR degree
ENCODING 176
SWIDTH 373 0
DWIDTH 7 0
BBX 5 6 1 7
BITMAP
70
d8
88
88
d8
70
ENDCHAR
STARTCHAR plusminus
ENCODING 177
SWIDTH 533 0
DWIDTH 10 0
BBX 8 11 1 0
BITMAP
18
18
18
ff
ff
18
18
18
00
ff
ff
ENDCHAR
STARTCHAR twosuperior
ENCODING 178
SWIDTH 426 0
DWIDTH 8 0
BBX 8 5 0 9
BITMAP
33
77
66
cc
88
ENDCHAR
STARTCHAR threesuperior
ENCODING 179
SWIDTH 533 0
DWIDTH 10 0
BBX 9 12 0 0
BITMAP
e000
7800
1e00
0780
0180
0780
1e00
7800
e000
0000
ff80
ff80
ENDCHAR
STARTCHAR acute
ENCODING 180
SWIDTH 533 0
DWIDTH 10 0
BBX 10 9 0 0
BITMAP
e1c0
7380
3300
1e00
0c00
1e00
3300
7380
e1c0
ENDCHAR
STARTCHAR mu
ENCODING 181
SWIDTH 640 0
DWIDTH 12 0
BBX 11 5 0 3
BITMAP
79e0
cf00
8600
cf00
79e0
ENDCHAR
STARTCHAR paragraph
ENCODING 182
SWIDTH 480 0
DWIDTH 9 0
BBX 7 14 1 0
BITMAP
78
cc
86
06
06
06
3e
66
c6
c6
c6
c4
ec
78
ENDCHAR
STARTCHAR periodcentered
ENCODING 183
SWIDTH 480 0
DWIDTH 9 0
BBX 5 6 2 2
BITMAP
70
f8
f8
f8
f8
70
ENDCHAR
STARTCHAR cedilla
ENCODING 184
SWIDTH 533 0
DWIDTH 10 0
BBX 8 8 1 1
BITMAP
18
18
00
ff
ff
00
18
18
ENDCHAR
STARTCHAR onesuperior
ENCODING 185
SWIDTH 533 0
DWIDTH 10 0
BBX 8 9 1 0
BITMAP
0c
0c
ff
ff
18
ff
ff
30
30
ENDCHAR
STARTCHAR masculine
ENCODING 186
SWIDTH 533 0
DWIDTH 10 0
BBX 8 8 1 1
BITMAP
ff
ff
00
ff
ff
00
ff
ff
ENDCHAR
STARTCHAR guillemotright
ENCODING 187
SWIDTH 533 0
DWIDTH 10 0
BBX 8 7 1 2
BITMAP
73
ff
ce
00
73
ff
ce
ENDCHAR
STARTCHAR onequarter
ENCODING 188
SWIDTH 960 0
DWIDTH 18 0
BBX 14 2 2 0
BITMAP
c30c
c30c
ENDCHAR
STARTCHAR Agrave
ENCODING 192
SWIDTH 693 0
DWIDTH 13 0
BBX 11 13 1 0
BITMAP
c200
e3c0
71e0
38e0
3980
7d00
cf00
c700
e300
7380
31c0
70c0
f040
ENDCHAR
STARTCHAR Aacute
ENCODING 193
SWIDTH 693 0
DWIDTH 13 0
BBX 10 15 1 -1
BITMAP
1fc0
3fc0
6080
4100
4200
2200
1300
0380
01c0
00c0
00c0
70c0
f880
1f00
0e00
ENDCHAR
STARTCHAR Acircumflex
ENCODING 194
SWIDTH 800 0
DWIDTH 15 0
BBX 13 14 1 0
BITMAP
79c0
fee0
8e70
8630
c660
7680
3640
2660
0660
0660
0660
0660
6c78
b830
ENDCHAR
STARTCHAR Atilde
ENCODING 195
SWIDTH 746 0
DWIDTH 14 0
BBX 12 15 1 -4
BITMAP
0c00
1800
31e0
6730
cc30
d830
d630
f660
64e0
77c0
b380
9800
9800
d800
7000
ENDCHAR
STARTCHAR Adiaeresis
ENCODING 196
SWIDTH 746 0
DWIDTH 14 0
BBX 12 13 1 0
BITMAP
1f80
39c0
6060
d9b0
ddb0
8f10
8610
8f10
dbb0
d9b0
6060
39c0
1f80
ENDCHAR
STARTCHAR Aring
ENCODING 197
SWIDTH 746 0
DWIDTH 14 0
BBX 12 13 1 0
BITMAP
1f80
39c0
6660
c630
c630
bfd0
bfd0
8610
c630
c630
6060
39c0
1f80
ENDCHAR
STARTCHAR AE
ENCODING 198
SWIDTH 746 0
DWIDTH 14 0
BBX 12 13 1 0
BITMAP
1fb0
39f0
6060
c0f0
c1b0
8310
8610
8c10
d830
f030
6060
f9c0
df80
ENDCHAR
STARTCHAR Ccedilla
ENCODING 199
SWIDTH 746 0
DWIDTH 14 0
BBX 12 9 1 0
BITMAP
1f80
39c0
6060
e070
c030
c030
c030
c030
c030
ENDCHAR
STARTCHAR Egrave
ENCODING 200
SWIDTH 746 0
DWIDTH 14 0
BBX 12 9 1 0
BITMAP
c030
c030
c030
c030
c030
e070
6060
39c0
1f80
ENDCHAR
STARTCHAR Eacute
ENCODING 201
SWIDTH 693 0
DWIDTH 13 0
BBX 12 9 1 0
BITMAP
ff80
ffe0
0060
0030
0030
0030
0060
ffe0
ff80
ENDCHAR
STARTCHAR Ecircumflex
ENCODING 202
SWIDTH 693 0
DWIDTH 13 0
BBX 12 12 0 -3
BITMAP
ff80
ffe0
0060
0030
0030
0030
0060
ffe0
ff80
0000
fff0
fff0
ENDCHAR
STARTCHAR Ediaeresis
ENCODING 203
SWIDTH 693 0
DWIDTH 13 0
BBX 12 13 0 -2
BITMAP
0060
00c0
1ff0
7ff0
6180
c300
c300
c600
6600
7ff0
1ff0
1800
3000
ENDCHAR
STARTCHAR Igrave
ENCODING 204
SWIDTH 693 0
DWIDTH 13 0
BBX 12 9 0 0
BITMAP
1ff0
7ff0
6000
c000
c000
c000
6000
7ff0
1ff0
ENDCHAR
STARTCHAR Iacute
ENCODING 205
SWIDTH 693 0
DWIDTH 13 0
BBX 12 12 0 -3
BITMAP
1ff0
7ff0
6000
c000
c000
c000
6000
7ff0
1ff0
0000
fff0
fff0
ENDCHAR
STARTCHAR Icircumflex
ENCODING 206
SWIDTH 640 0
DWIDTH 12 0
BBX 9 9 1 0
BITMAP
1f80
7f80
e000
c000
ff80
c000
e000
7f80
1f80
ENDCHAR
STARTCHAR Idiaeresis
ENCODING 207
SWIDTH 640 0
DWIDTH 12 0
BBX 10 11 1 -1
BITMAP
0080
1fc0
7fc0
e200
c400
ff80
c800
f000
7fc0
3fc0
4000
ENDCHAR
STARTCHAR ETH
ENCODING 208
SWIDTH 746 0
DWIDTH 14 0
BBX 13 13 0 0
BITMAP
0018
0030
0060
00c0
0180
0300
0600
0c00
1800
3000
6000
c000
fff8
ENDCHAR
STARTCHAR Ntilde
ENCODING 209
SWIDTH 693 0
DWIDTH 13 0
BBX 12 13 1 0
BITMAP
fff0
e020
6060
6040
70c0
3080
3080
3980
1900
1b00
0e00
0e00
0400
ENDCHAR
STARTCHAR Otilde
ENCODING 213
SWIDTH 800 0
DWIDTH 15 0
BBX 14 16 0 -2
BITMAP
fffc
7038
3030
3030
3030
3030
3030
3030
3030
3030
3030
3030
3030
3030
3030
fcfc
ENDCHAR
STARTCHAR Odiaeresis
ENCODING 214
SWIDTH 533 0
DWIDTH 10 0
BBX 10 17 0 0
BITMAP
0040
0040
0040
0080
0080
0080
0080
3080
7100
d900
1900
1900
0d00
0d00
0600
0600
0600
ENDCHAR
STARTCHAR multiply
ENCODING 215
SWIDTH 213 0
DWIDTH 4 0
BBX 2 2 1 4
BITMAP
c0
c0
ENDCHAR
STARTCHAR Ooblique
ENCODING 216
SWIDTH 693 0
DWIDTH 13 0
BBX 11 6 1 0
BITMAP
ffe0
ffe0
0060
0060
0060
0060
ENDCHAR
STARTCHAR Ugrave
ENCODING 217
SWIDTH 586 0
DWIDTH 11 0
BBX 10 9 0 0
BITMAP
0c00
0c00
1e00
3300
3300
6180
6180
c0c0
c0c0
ENDCHAR
STARTCHAR Uacute
ENCODING 218
SWIDTH 586 0
DWIDTH 11 0
BBX 10 9 0 0
BITMAP
c0c0
c0c0
6180
6180
3300
3300
1e00
0c00
0c00
ENDCHAR
STARTCHAR Ucircumflex
ENCODING 219
SWIDTH 960 0
DWIDTH 18 0
BBX 18 9 0 0
BITMAP
080400
180600
3fff00
7fff80
e001c0
7fff80
3fff00
180600
080400
ENDCHAR
STARTCHAR Udiaeresis
ENCODING 220
SWIDTH 960 0
DWIDTH 18 0
BBX 16 9 1 0
BITMAP
0800
1800
3fff
7fff
e000
7fff
3fff
1800
0800
ENDCHAR
STARTCHAR Yacute
ENCODING 221
SWIDTH 586 0
DWIDTH 11 0
BBX 9 17 1 0
BITMAP
0800
1c00
3600
7700
f780
3600
3600
3600
3600
3600
3600
3600
3600
3600
3600
3600
3600
ENDCHAR
STARTCHAR THORN
ENCODING 222
SWIDTH 960 0
DWIDTH 18 0
BBX 16 9 1 0
BITMAP
0010
0018
fffc
fffe
0007
fffe
fffc
0018
0010
ENDCHAR
STARTCHAR ssharp
ENCODING 223
SWIDTH 586 0
DWIDTH 11 0
BBX 9 17 1 0
BITMAP
3600
3600
3600
3600
3600
3600
3600
3600
3600
3600
3600
3600
f780
7700
3600
1c00
0800
ENDCHAR
STARTCHAR aring
ENCODING 229
SWIDTH 693 0
DWIDTH 13 0
BBX 12 16 0 -2
BITMAP
ffe0
e060
7020
3800
1c00
0e00
0700
0300
0600
0c00
1800
3010
6010
c030
fff0
fff0
ENDCHAR
STARTCHAR oint
ENCODING 156
SWIDTH 478 0
DWIDTH 9 0
BBX 10 21 1 -5
BITMAP
0180
0240
0200
0200
0200
0200
0400
0e00
1500
2480
2480
2480
1500
0e00
0400
0800
0800
0800
0800
9000
6000
ENDCHAR
STARTCHAR ointlarge
ENCODING 157
SWIDTH 531 0
DWIDTH 16 0
BBX 15 42 1 -14
BITMAP
000c
000a
001e
0016
0010
0010
0030
0030
0020
0020
0060
0060
0060
0040
00c0
00c0
03c0
04e0
0890
1188
1188
1188
1188
0910
0720
03c0
0300
0300
0200
0600
0600
0600
0400
0400
0c00
0c00
0800
0800
c800
d000
9000
6000
ENDCHAR
STARTCHAR dotlessi
ENCODING 158
SWIDTH 318 0
DWIDTH 6 0
BBX 4 8 0 0
BITMAP
60
60
a0
20
40
50
60
60
ENDCHAR
STARTCHAR dotlessj
ENCODING 159
SWIDTH 371 0
DWIDTH 7 0
BBX 7 12 -1 -4
BITMAP
0c
0a
14
04
04
04
08
08
08
08
10
e0
ENDCHAR
ENDFONT
