STARTFONT 2.1
COMMENT 
COMMENT  Copyright 1984, 1987 Adobe Systems, Inc.
COMMENT  Portions Copyright 1988 Digital Equipment Corporation
COMMENT 
COMMENT  Adobe is a registered trademark of Adobe Systems, Inc.  Permission 
COMMENT  to use these trademarks is hereby granted only in association with the
COMMENT  images described in this file.
COMMENT 
COMMENT  Permission to use, copy, modify, and distribute this software and
COMMENT  its documentation for any purpose and without fee is hereby granted,
COMMENT  provided that the above copyright notices appear in all copies and
COMMENT  that both those copyright notices and this permission notice appear
COMMENT  in supporting documentation, and that the names of Adobe Systems and
COMMENT  Digital Equipment Corporation not be used in advertising or
COMMENT  publicity pertaining to distribution of the software without
COMMENT  specific, written prior permission.  Adobe Systems and Digital
COMMENT  Equipment Corporation make no representations about the suitability
COMMENT  of this software for any purpose.  It is provided "as is" without
COMMENT  express or implied warranty.
COMMENT 
COMMENT  ADOBE SYSTEMS AND DIGITAL EQUIPMENT CORPORATION DISCLAIM ALL
COMMENT  WARRANTIES WITH REGARD TO THIS SOFTWARE, INCLUDING ALL IMPLIED
COMMENT  WARRANTIES OF MERCHANTABILITY AND FITNESS, IN NO EVENT SHALL ADOBE
COMMENT  SYSTEMS AND DIGITAL EQUIPMENT CORPORATION BE LIABLE FOR ANY SPECIAL,
COMMENT  INDIRECT OR CONSEQUENTIAL DAMAGES OR ANY DAMAGES WHATSOEVER
COMMENT  RESULTING FROM LOSS OF USE, DATA OR PROFITS, WHETHER IN AN ACTION OF
COMMENT  CONTRACT, NEGLIGENCE OR OTHER TORTIOUS ACTION, ARISING OUT OF OR IN
COMMENT  CONNECTION WITH THE USE OR PERFORMANCE OF THIS SOFTWARE.
COMMENT 
COMMENT 
COMMENT Begin LogicalFontDescription
COMMENT END LogicalFontDescription
COMMENT ***** end of inserted font properties
COMMENT SUM DWIDTH-X
FONT -Mathpad-MathSymbol-Medium-R-Normal--14-140-75-75-P-93-MATHPAD-FONTSPECIFIC
SIZE 14 75 75
FONTBOUNDINGBOX 15 18 -1 -4
STARTPROPERTIES 24
DEFAULT_CHAR 32
FONTNAME_REGISTRY ""
FOUNDRY "Mathpad"
FAMILY_NAME "MathSymbol"
WEIGHT_NAME "Medium"
SLANT "R"
SETWIDTH_NAME "Normal"
ADD_STYLE_NAME ""
PIXEL_SIZE 14
POINT_SIZE 140
RESOLUTION_X 75
RESOLUTION_Y 75
SPACING "P"
AVERAGE_WIDTH 93
CHARSET_REGISTRY "MATHPAD"
CHARSET_ENCODING "FONTSPECIFIC"
CHARSET_COLLECTIONS "FONTSPECIFIC"
FONT_ASCENT 11
FONT_DESCENT 4
FULL_NAME "MathSymbol"
DEVICE_FONT_NAME "mathsymbol"
CAP_HEIGHT 11
X_HEIGHT 7
COPYRIGHT "Copyright (c) 1992 Mathpad, Copyright (c) 1984 Adobe Systems, Inc., Portions Copyright 1988 Digital Equipment Corp."
ENDPROPERTIES
CHARS 223
STARTCHAR space
ENCODING 32
SWIDTH 292 0
DWIDTH 4 0
BBX 1 1 0 0
BITMAP
00
ENDCHAR
STARTCHAR bar
ENCODING 33
SWIDTH 389 0
DWIDTH 5 0
BBX 1 11 1 0
BITMAP
80
80
80
80
80
80
80
80
80
80
80
ENDCHAR
STARTCHAR numbersign
ENCODING 35
SWIDTH 641 0
DWIDTH 9 0
BBX 8 11 0 0
BITMAP
24
24
24
24
FF
24
FF
24
24
24
24
ENDCHAR
STARTCHAR half
ENCODING 37
SWIDTH 972 0
DWIDTH 12 0
BBX 11 11 0 0
BITMAP
C040
4040
4080
4100
E200
0580
0a40
1040
2080
4100
43C0
ENDCHAR
STARTCHAR quarter
ENCODING 38
SWIDTH 908 0
DWIDTH 12 0
BBX 11 11 0 0
BITMAP
C040
4040
4080
4100
E200
0480
0980
1280
2480
47C0
4080
ENDCHAR
STARTCHAR openbrace
ENCODING 40
SWIDTH 560 0
DWIDTH 7 0
BBX 6 14 0 -1
BITMAP
0C
38
70
50
d0
90
90
90
90
d0
50
70
38
0C
ENDCHAR
STARTCHAR closebrace
ENCODING 41
SWIDTH 560 0
DWIDTH 7 0
BBX 6 14 0 -1
BITMAP
C0
70
38
28
2c
24
24
24
24
2c
28
38
70
C0
ENDCHAR
STARTCHAR bigdot
ENCODING 42
SWIDTH 583 0
DWIDTH 7 0
BBX 6 6 1 1
BITMAP
78
FC
FC
FC
fC
78
ENDCHAR
STARTCHAR bigopendot
ENCODING 43
SWIDTH 641 0
DWIDTH 8 0
BBX 6 6 1 1
BITMAP
78
cc
84
84
cC
78
ENDCHAR
STARTCHAR openbracel
ENCODING 47
SWIDTH 545 0
DWIDTH 6 0
BBX 5 14 0 -2
BITMAP
18
38
68
48
c8
88
88
88
88
c8
48
68
38
18
ENDCHAR
STARTCHAR closebracel
ENCODING 48
SWIDTH 545 0
DWIDTH 6 0
BBX 5 14 0 -2
BITMAP
C0
e0
b0
90
98
88
88
88
88
98
90
b0
e0
C0
ENDCHAR
STARTCHAR openbracket
ENCODING 49
SWIDTH 583 0
DWIDTH 7 0
BBX 6 14 0 -2
BITMAP
FC
A0
A0
A0
A0
A0
A0
A0
A0
A0
A0
A0
A0
FC
ENDCHAR
STARTCHAR openbanana
ENCODING 16
SWIDTH 583 0
DWIDTH 7 0
BBX 6 14 0 -2
BITMAP
FC
88
90
90
A0
A0
A0
A0
A0
A0
90
90
88
FC
ENDCHAR
STARTCHAR closebracket
ENCODING 50
SWIDTH 583 0
DWIDTH 7 0
BBX 6 14 0 -2
BITMAP
FC
14
14
14
14
14
14
14
14
14
14
14
14
FC
ENDCHAR
STARTCHAR closebanana
ENCODING 17
SWIDTH 583 0
DWIDTH 7 0
BBX 6 14 0 -2
BITMAP
FC
44
24
24
14
14
14
14
14
14
24
24
44
FC
ENDCHAR
STARTCHAR bopenbracket
ENCODING 51
SWIDTH 630 0
DWIDTH 8 0
BBX 7 14 0 -1
BITMAP
BE
A0
A0
A0
A0
A0
A0
A0
A0
A0
A0
A0
A0
BE
ENDCHAR
STARTCHAR bclosebracket
ENCODING 52
SWIDTH 630 0
DWIDTH 8 0
BBX 7 14 0 -1
BITMAP
FA
0A
0A
0A
0A
0A
0A
0A
0A
0A
0A
0A
0A
FA
ENDCHAR
STARTCHAR lefttriangle
ENCODING 53
SWIDTH 583 0
DWIDTH 7 0
BBX 6 11 0 0
BITMAP
04
0c
1c
34
64
c4
64
34
1c
0C
04
ENDCHAR
STARTCHAR ltriangleline
ENCODING 128
SWIDTH 583 0
DWIDTH 7 0
BBX 6 13 0 -2
BITMAP
04
0c
1c
34
64
c4
64
34
1c
0C
04
00
FC
ENDCHAR
STARTCHAR righttriangle
ENCODING 54
SWIDTH 583 0
DWIDTH 7 0
BBX 6 11 0 0
BITMAP
80
C0
e0
b0
98
8c
98
B0
e0
C0
80
ENDCHAR
STARTCHAR rtriangleline
ENCODING 129
SWIDTH 583 0
DWIDTH 7 0
BBX 6 13 0 -2
BITMAP
80
C0
e0
b0
98
8c
98
B0
e0
C0
80
00
FC
ENDCHAR
STARTCHAR boolean
ENCODING 55
SWIDTH 747 0
DWIDTH 9 0
BBX 8 11 0 0
BITMAP
FE
A3
A1
A1
A3
BE
A3
A1
A1
A3
Fe
ENDCHAR
STARTCHAR posint
ENCODING 56
SWIDTH 747 0
DWIDTH 9 0
BBX 8 11 0 0
BITMAP
E1
b1
B1
b9
a9
ad
a5
a7
a3
A3
E1
ENDCHAR
STARTCHAR float
ENCODING 57
SWIDTH 747 0
DWIDTH 9 0
BBX 8 11 0 0
BITMAP
FE
A3
A1
A1
A3
BE
b8
ac
a6
A3
E1
ENDCHAR
STARTCHAR littleless
ENCODING 58
SWIDTH 373 0
DWIDTH 5 0
BBX 4 7 0 1
BITMAP
10
20
40
80
40
20
10
ENDCHAR
STARTCHAR littlegreater
ENCODING 59
SWIDTH 373 0
DWIDTH 5 0
BBX 4 7 0 1
BITMAP
80
40
20
10
20
40
80
ENDCHAR
STARTCHAR blackcross
ENCODING 63
SWIDTH 840 0
DWIDTH 11 0
BBX 9 9 0 0
BITMAP
7F00
BE80
DD80
eb80
FF80
eb80
dD80
BE80
7F00
ENDCHAR
STARTCHAR empty
ENCODING 91
SWIDTH 747 0
DWIDTH 9 0
BBX 8 13 1 -1
BITMAP
00
02
02
3c
46
89
89
91
91
62
3C
40
40
ENDCHAR
STARTCHAR therefore
ENCODING 92
SWIDTH 1007 0
DWIDTH 11 0
BBX 8 7 1 0
BITMAP
18
18
00
00
00
c3
c3
ENDCHAR
STARTCHAR top
ENCODING 93
SWIDTH 747 0
DWIDTH 9 0
BBX 8 11 0 0
BITMAP
7F
08
08
08
08
08
08
08
08
08
08
ENDCHAR
STARTCHAR bottom
ENCODING 94
SWIDTH 768 0
DWIDTH 9 0
BBX 8 11 0 0
BITMAP
08
08
08
08
08
08
08
08
08
08
7F
ENDCHAR
STARTCHAR dbltop
ENCODING 153
SWIDTH 747 0
DWIDTH 9 0
BBX 8 11 0 0
BITMAP
FF
24
24
24
24
24
24
24
24
24
24
ENDCHAR
STARTCHAR dblbottom
ENCODING 154
SWIDTH 768 0
DWIDTH 9 0
BBX 8 11 0 0
BITMAP
24
24
24
24
24
24
24
24
24
24
FF
ENDCHAR
STARTCHAR underscore
ENCODING 95
SWIDTH 583 0
DWIDTH 7 0
BBX 7 2 0 -4
BITMAP
FE
00
ENDCHAR
STARTCHAR radicalex
ENCODING 96
SWIDTH 583 0
DWIDTH 7 0
BBX 8 1 0 13
BITMAP
FF
ENDCHAR
STARTCHAR lessless
ENCODING 123
SWIDTH 653 0
DWIDTH 8 0
BBX 7 6 0 1
BITMAP
22
44
88
88
44
22
ENDCHAR
STARTCHAR settimes
ENCODING 124
SWIDTH 840 0
DWIDTH 11 0
BBX 9 9 0 0
BITMAP
c080
6180
3300
1e00
0c00
1e00
3300
6180
c080
ENDCHAR
STARTCHAR greatergreater
ENCODING 125
SWIDTH 653 0
DWIDTH 8 0
BBX 7 6 0 1
BITMAP
88
44
22
22
44
88
ENDCHAR
STARTCHAR similar
ENCODING 126
SWIDTH 641 0
DWIDTH 8 0
BBX 8 3 0 3
BITMAP
61
99
86
ENDCHAR
STARTCHAR similardot
ENCODING 130
SWIDTH 720 0
DWIDTH 9 0
BBX 8 5 0 3
BITMAP
18
00
61
99
86
ENDCHAR
STARTCHAR lleadstonat
ENCODING 131
SWIDTH 880 0
DWIDTH 11 0
BBX 10 6 0 2
BITMAP
1800
0100
6080
9940
8680
0100
ENDCHAR
STARTCHAR rleadstonat
ENCODING 132
SWIDTH 880 0
DWIDTH 11 0
BBX 10 6 0 2
BITMAP
0600
2000
5840
A640
5180
2000
ENDCHAR
STARTCHAR dblleadstonat
ENCODING 133
SWIDTH 1040 0
DWIDTH 13 0
BBX 12 6 0 2
BITMAP
0600
2040
5820
A650
51A0
2040
ENDCHAR
STARTCHAR lleadsto
ENCODING 147
SWIDTH 880 0
DWIDTH 11 0
BBX 10 5 0 2
BITMAP
0100
6080
9940
8680
0100
ENDCHAR
STARTCHAR rleadsto
ENCODING 148
SWIDTH 880 0
DWIDTH 11 0
BBX 10 5 0 2
BITMAP
2000
5840
A640
4180
2000
ENDCHAR
STARTCHAR dblleadsto
ENCODING 149
SWIDTH 1040 0
DWIDTH 13 0
BBX 12 5 0 2
BITMAP
2040
5820
A650
41A0
2040
ENDCHAR
STARTCHAR uptriangle
ENCODING 134
SWIDTH  640 0
DWIDTH 9 0
BBX 8 5 0 2
BITMAP
18
24
42
81
FF
ENDCHAR
STARTCHAR downtriangle
ENCODING 135
SWIDTH  640 0
DWIDTH 9 0
BBX 8 5 0 2
BITMAP
FF
81
42
24
18
ENDCHAR
STARTCHAR filluptriangle
ENCODING 136
SWIDTH  640 0
DWIDTH 9 0
BBX 8 5 0 2
BITMAP
18
3C
7E
FF
FF
ENDCHAR
STARTCHAR filldowntriangle
ENCODING 137
SWIDTH  640 0
DWIDTH 9 0
BBX 8 5 0 2
BITMAP
FF
FF
7E
3C
18
ENDCHAR
STARTCHAR davidstar
ENCODING 150
SWIDTH  800 0
DWIDTH 10 0
BBX 9 9 0 0
BITMAP
0800
1400
FF80
6300
2200
6300
FF80
1400
0800
ENDCHAR
STARTCHAR fivestar
ENCODING 155
SWIDTH  640 0
DWIDTH 8 0
BBX 7 7 0 1
BITMAP
10
10
D6
38
10
28
44
ENDCHAR
STARTCHAR harrowleft
ENCODING 138
SWIDTH 960 0
DWIDTH 12 0
BBX 11 5 0 2
BITMAP
20C0
4020
FFC0
4000
2000
ENDCHAR
STARTCHAR harrowright
ENCODING 139
SWIDTH 960 0
DWIDTH 12 0
BBX 11 5 0 2
BITMAP
6080
8040
7FE0
0040
0080
ENDCHAR
STARTCHAR harparrowleft
ENCODING 140
SWIDTH 840 0
DWIDTH 11 0
BBX 9 3 0 4
BITMAP
2000
4000
FF80
ENDCHAR
STARTCHAR harparrowright
ENCODING 141
SWIDTH 840 0
DWIDTH 11 0
BBX 9 3 0 4
BITMAP
0200
0100
FF80
ENDCHAR
STARTCHAR arrowdblleft
ENCODING 142
SWIDTH 960 0
DWIDTH 12 0
BBX 11 5 0 2
BITMAP
2400
4800
FF80
4800
2400
ENDCHAR
STARTCHAR arrowdblright
ENCODING 143
SWIDTH 960 0
DWIDTH 12 0
BBX 11 5 0 2
BITMAP
0480
0240
FFE0
0240
0480
ENDCHAR
STARTCHAR lesssim
ENCODING 151
SWIDTH 641 0
DWIDTH 8 0
BBX 7 9 0 -1
BITMAP
06
38
C0
38
06
00
60
92
0c
ENDCHAR
STARTCHAR bigbox
ENCODING 166
SWIDTH 747 0
DWIDTH 9 0
BBX 8 12 0 0
BITMAP
FF
81
81
81
81
81
81
81
81
81
81
FF
ENDCHAR
STARTCHAR lessequal
ENCODING 167
SWIDTH 879 0
DWIDTH 11 0
BBX 8 7 1 0
BITMAP
07
1C
70
FF
00
00
FF
ENDCHAR
STARTCHAR less
ENCODING 168
SWIDTH 879 0
DWIDTH 11 0
BBX 8 5 1 1
BITMAP
07
1C
70
c0
FF
ENDCHAR
STARTCHAR greater
ENCODING 169
SWIDTH 879 0
DWIDTH 11 0
BBX 8 5 1 1
BITMAP
e0
38
0e
03
FF
ENDCHAR
STARTCHAR greaterequal
ENCODING 170
SWIDTH 879 0
DWIDTH 11 0
BBX 8 7 1 0
BITMAP
e0
38
0e
FF
00
00
FF
ENDCHAR
STARTCHAR arrowboth
ENCODING 171
SWIDTH 1216 0
DWIDTH 15 0
BBX 14 6 1 1
BITMAP
2020
4010
fffc
4010
2020
0000
ENDCHAR
STARTCHAR arrowleft
ENCODING 172
SWIDTH 840 0
DWIDTH 11 0
BBX 9 6 0 1
BITMAP
2000
4000
FF80
4000
2000
0000
ENDCHAR
STARTCHAR arrowup
ENCODING 173
SWIDTH 704 0
DWIDTH 8 0
BBX 6 12 1 0
BITMAP
10
38
54
10
10
10
10
10
10
10
10
10
ENDCHAR
STARTCHAR arrowright
ENCODING 174
SWIDTH 840 0
DWIDTH 11 0
BBX 9 6 0 1
BITMAP
0200
0100
FF80
0100
0200
0000
ENDCHAR
STARTCHAR arrowdown
ENCODING 175
SWIDTH 704 0
DWIDTH 8 0
BBX 6 11 1 0
BITMAP
10
10
10
10
10
10
10
10
54
38
10
ENDCHAR
STARTCHAR greatersim
ENCODING 152
SWIDTH 641 0
DWIDTH 8 0
BBX 7 9 0 -1
BITMAP
C0
38
06
38
C0
00
60
92
0c
ENDCHAR
STARTCHAR defequal
ENCODING 189
SWIDTH 641 0
DWIDTH 8 0
BBX 6 7 1 1
BITMAP
30
48
84
FC
00
00
FC
ENDCHAR
STARTCHAR arrowhorizex
ENCODING 190
SWIDTH 840 0
DWIDTH 11 0
BBX 11 1 0 4
BITMAP
FFC0
ENDCHAR
STARTCHAR join
ENCODING 191
SWIDTH 960 0
DWIDTH 12 0
BBX 11 11 0 0
BITMAP
8020
C060
A0A0
9120
8A20
8420
8A20
9120
A0A0
C060
8020
ENDCHAR
STARTCHAR leftjoin
ENCODING 144
SWIDTH 960 0
DWIDTH 12 0
BBX 11 11 0 0
BITMAP
8020
C060
A0A0
B120
AA20
A420
AA20
B120
A0A0
C060
8020
ENDCHAR
STARTCHAR rightjoin
ENCODING 145
SWIDTH 960 0
DWIDTH 12 0
BBX 11 11 0 0
BITMAP
8020
C060
A0A0
91A0
8AA0
84A0
8AA0
91A0
A0A0
C060
8020
ENDCHAR
STARTCHAR circledot
ENCODING 210
SWIDTH 922 0
DWIDTH 12 0
BBX 12 11 0 0
BITMAP
1f00
60c0
4040
8020
8420
8e20
8420
8020
4040
60c0
1f00
ENDCHAR
STARTCHAR circleslash
ENCODING 211
SWIDTH 922 0
DWIDTH 12 0
BBX 11 11 0 0
BITMAP
1f00
60c0
4040
81a0
8220
8420
8820
b020
4040
60c0
1f00
ENDCHAR
STARTCHAR bararrowright
ENCODING 212
SWIDTH 1038 0
DWIDTH 13 0
BBX 12 6 0 1
BITMAP
0840
0860
FFF0
0860
0840
0000
ENDCHAR
STARTCHAR diamond
ENCODING 224
SWIDTH 576 0
DWIDTH 9 0
BBX 8 8 0 0
BITMAP
18
24
42
81
81
42
24
18
ENDCHAR
STARTCHAR smallbar
ENCODING 225
SWIDTH 467 0
DWIDTH 6 0
BBX 5 12 0 0
BITMAP
F8
88
88
88
88
88
88
88
88
88
88
F8
ENDCHAR
STARTCHAR circleminus
ENCODING 226
SWIDTH 922 0
DWIDTH 12 0
BBX 11 11 0 0
BITMAP
1f00
60c0
4040
8020
8020
FFe0
8020
8020
4040
60c0
1f00
ENDCHAR
STARTCHAR circleempty
ENCODING 227
SWIDTH 922 0
DWIDTH 12 0
BBX 11 11 0 0
BITMAP
1f00
60c0
4040
8020
8020
8020
8020
8020
4040
60c0
1f00
ENDCHAR
STARTCHAR circleequal
ENCODING 146
SWIDTH 922 0
DWIDTH 12 0
BBX 11 11 0 0
BITMAP
1f00
60c0
4040
8020
FFE0
8020
FFE0
8020
4040
60c0
1f00
ENDCHAR
STARTCHAR bararrowleft
ENCODING 228
SWIDTH 1027 0
DWIDTH 13 0
BBX 12 6 0 1
BITMAP
2100
6100
FFF0
6100
2100
0000
ENDCHAR
STARTCHAR sqsubseteq
ENCODING 230
SWIDTH 840 0
DWIDTH 11 0
BBX 9 9 0 -2
BITMAP
FF80
8000
8000
8000
8000
8000
FF80
0000
FF80
ENDCHAR
STARTCHAR sqsubset
ENCODING 231
SWIDTH 840 0
DWIDTH 11 0
BBX 9 7 0 0
BITMAP
FF80
8000
8000
8000
8000
8000
FF80
ENDCHAR
STARTCHAR sqsupseteq
ENCODING 232
SWIDTH 840 0
DWIDTH 11 0
BBX 9 9 0 -2
BITMAP
FF80
0080
0080
0080
0080
0080
FF80
0000
FF80
ENDCHAR
STARTCHAR sqsupset
ENCODING 233
SWIDTH 840 0
DWIDTH 11 0
BBX 9 7 0 0
BITMAP
FF80
0080
0080
0080
0080
0080
FF80
ENDCHAR
STARTCHAR sqcup
ENCODING 234
SWIDTH 653 0
DWIDTH 8 0
BBX 7 7 0 0
BITMAP
82
82
82
82
82
82
FE
ENDCHAR
STARTCHAR sqcap
ENCODING 235
SWIDTH 653 0
DWIDTH 8 0
BBX 7 7 0 0
BITMAP
FE
82
82
82
82
82
82
ENDCHAR
STARTCHAR vdash
ENCODING 236
SWIDTH 576 0
DWIDTH 7 0
BBX 6 8 0 0
BITMAP
80
80
80
FC
80
80
80
00
ENDCHAR
STARTCHAR models
ENCODING 237
SWIDTH 560 0
DWIDTH 7 0
BBX 6 8 0 0
BITMAP
80
80
FC
80
FC
80
80
00
ENDCHAR
STARTCHAR ddagger
ENCODING 238
SWIDTH 653 0
DWIDTH 8 0
BBX 6 12 1 0
BITMAP
10
10
10
7C
10
10
10
10
7C
10
10
10
ENDCHAR
STARTCHAR dagger
ENCODING 239
SWIDTH 653 0
DWIDTH 8 0
BBX 6 12 1 0
BITMAP
10
10
10
7C
10
10
10
10
10
10
10
10
ENDCHAR
STARTCHAR wock
ENCODING 240
SWIDTH 467 0
DWIDTH 6 0
BBX 4 3 1 4
BITMAP
90
90
F0
ENDCHAR
STARTCHAR twobars
ENCODING 241
SWIDTH 384 0
DWIDTH 5 0
BBX 4 12 0 0
BITMAP
A0
A0
A0
A0
A0
A0
A0
A0
A0
A0
A0
A0
ENDCHAR
STARTCHAR mapsto
ENCODING 242
SWIDTH 840 0
DWIDTH 11 0
BBX 9 6 0 1
BITMAP
8200
8300
FF80
8300
8200
0000
ENDCHAR
STARTCHAR bigone
ENCODING 243
SWIDTH 747 0
DWIDTH 9 0
BBX 7 12 1 0
BITMAP
1C
34
74
d4
14
14
14
14
14
14
14
7E
ENDCHAR
STARTCHAR integral
ENCODING 244
SWIDTH 800 0
DWIDTH 11 0
BBX 6 14 1 -1
BITMAP
0C
1C
10
10
10
10
10
10
10
10
10
10
F0
E0
ENDCHAR
STARTCHAR dblarrowright
ENCODING 245
SWIDTH 933 0
DWIDTH 12 0
BBX 11 8 0 0
BITMAP
0400
0200
FF00
00C0
FF00
0200
0400
0000
ENDCHAR
STARTCHAR dblarrowleft
ENCODING 246
SWIDTH 933 0
DWIDTH 12 0
BBX 11 8 0 0
BITMAP
0800
1000
3FC0
C000
3Fc0
1000
0800
0000
ENDCHAR
STARTCHAR heartsuit
ENCODING 247
SWIDTH 933 0
DWIDTH 12 0
BBX 11 13 0 -1
BITMAP
6180
9240
8c40
8c40
8040
8040
4080
4080
2100
2100
1200
0c00
0c00
ENDCHAR
STARTCHAR prec
ENCODING 248
SWIDTH 653 0
DWIDTH 8 0
BBX 7 8 0 1
BITMAP
02
02
0C
f0
f0
0c
02
02
ENDCHAR
STARTCHAR succ
ENCODING 249
SWIDTH 653 0
DWIDTH 8 0
BBX 7 8 0 1
BITMAP
80
80
60
1e
1e
60
80
80
ENDCHAR
STARTCHAR bracketleft
ENCODING 250
SWIDTH 448 0
DWIDTH 5 0
BBX 4 16 0 -2
BITMAP
E0
80
80
80
80
80
80
80
80
80
80
80
80
80
80
E0
ENDCHAR
STARTCHAR bracketright
ENCODING 251
SWIDTH 448 0
DWIDTH 5 0
BBX 4 16 0 -2
BITMAP
E0
20
20
20
20
20
20
20
20
20
20
20
20
20
20
E0
ENDCHAR
STARTCHAR integer
ENCODING 252
SWIDTH 933 0
DWIDTH 12 0
BBX 11 11 0 0
BITMAP
FFe0
00a0
0160
02c0
0580
0b00
1600
2c00
5800
b000
FFe0
ENDCHAR
STARTCHAR powertwo
ENCODING 253
SWIDTH 467 0
DWIDTH 6 0
BBX 5 6 0 7
BITMAP
70
88
10
60
80
F8
ENDCHAR
STARTCHAR powerthree
ENCODING 254
SWIDTH 467 0
DWIDTH 6 0
BBX 5 6 0 7
BITMAP
f0
08
70
08
08
F0
ENDCHAR
STARTCHAR quotedbl
ENCODING 34
SWIDTH 617 0
DWIDTH 9 0
BBX 9 10 0 0
BITMAP
8080
4100
4100
3e00
2200
2200
1400
1400
0800
0800
ENDCHAR
STARTCHAR dollar
ENCODING 36
SWIDTH 548 0
DWIDTH 8 0
BBX 6 10 1 0
BITMAP
fc
04
04
04
fc
04
04
04
04
fc
ENDCHAR
STARTCHAR apostrophe
ENCODING 39
SWIDTH 411 0
DWIDTH 6 0
BBX 5 7 0 0
BITMAP
e0
10
08
78
08
10
e0
ENDCHAR
STARTCHAR comma
ENCODING 44
SWIDTH 205 0
DWIDTH 3 0
BBX 2 4 0 -2
BITMAP
40
40
40
80
ENDCHAR
STARTCHAR minus
ENCODING 45
SWIDTH 548 0
DWIDTH 8 0
BBX 7 1 0 3
BITMAP
fe
ENDCHAR
STARTCHAR period
ENCODING 46
SWIDTH 205 0
DWIDTH 3 0
BBX 1 2 1 0
BITMAP
80
80
ENDCHAR
STARTCHAR less
ENCODING 60
SWIDTH 548 0
DWIDTH 8 0
BBX 7 7 1 0
BITMAP
02
0c
30
c0
30
0c
02
ENDCHAR
STARTCHAR equal
ENCODING 61
SWIDTH 548 0
DWIDTH 8 0
BBX 7 3 0 2
BITMAP
fe
00
fe
ENDCHAR
STARTCHAR greater
ENCODING 62
SWIDTH 548 0
DWIDTH 8 0
BBX 7 7 0 0
BITMAP
80
60
18
06
18
60
80
ENDCHAR
STARTCHAR at
ENCODING 64
SWIDTH 548 0
DWIDTH 8 0
BBX 7 7 0 0
BITMAP
72
9c
00
fe
00
00
fe
ENDCHAR
STARTCHAR A
ENCODING 65
SWIDTH 754 0
DWIDTH 11 0
BBX 9 10 1 0
BITMAP
0800
1c00
1400
1400
2200
2200
3e00
6300
4100
e380
ENDCHAR
STARTCHAR B
ENCODING 66
SWIDTH 617 0
DWIDTH 9 0
BBX 7 10 1 0
BITMAP
fc
46
42
46
7c
46
42
42
46
fc
ENDCHAR
STARTCHAR C
ENCODING 67
SWIDTH 754 0
DWIDTH 11 0
BBX 9 10 1 0
BITMAP
e380
4100
2200
3600
1c00
1400
2200
6300
4100
e380
ENDCHAR
STARTCHAR D
ENCODING 68
SWIDTH 617 0
DWIDTH 9 0
BBX 7 10 1 0
BITMAP
10
10
28
28
28
44
44
44
82
fe
ENDCHAR
STARTCHAR E
ENCODING 69
SWIDTH 617 0
DWIDTH 9 0
BBX 7 10 1 0
BITMAP
fe
42
40
44
7c
44
40
42
42
fe
ENDCHAR
STARTCHAR F
ENCODING 70
SWIDTH 754 0
DWIDTH 11 0
BBX 9 10 1 0
BITMAP
1c00
0800
7f00
c980
8880
8880
c980
7f00
0800
1c00
ENDCHAR
STARTCHAR G
ENCODING 71
SWIDTH 617 0
DWIDTH 9 0
BBX 7 10 1 0
BITMAP
fe
42
40
40
40
40
40
40
40
e0
ENDCHAR
STARTCHAR H
ENCODING 72
SWIDTH 754 0
DWIDTH 11 0
BBX 9 10 1 0
BITMAP
e380
4100
4100
4100
7f00
4100
4100
4100
4100
e380
ENDCHAR
STARTCHAR I
ENCODING 73
SWIDTH 342 0
DWIDTH 5 0
BBX 3 10 1 0
BITMAP
e0
40
40
40
40
40
40
40
40
e0
ENDCHAR
STARTCHAR J
ENCODING 74
SWIDTH 617 0
DWIDTH 9 0
BBX 8 10 0 0
BITMAP
0c
0a
0a
66
a3
22
22
22
36
1c
ENDCHAR
STARTCHAR K
ENCODING 75
SWIDTH 685 0
DWIDTH 10 0
BBX 8 10 1 0
BITMAP
ee
44
48
50
70
50
48
44
42
e7
ENDCHAR
STARTCHAR L
ENCODING 76
SWIDTH 685 0
DWIDTH 10 0
BBX 9 10 0 0
BITMAP
0800
0800
1400
3600
2200
2200
6300
4100
4100
e380
ENDCHAR
STARTCHAR M
ENCODING 77
SWIDTH 891 0
DWIDTH 13 0
BBX 11 10 1 0
BITMAP
e0e0
60c0
5140
5140
5b40
4a40
4a40
4e40
4440
e4e0
ENDCHAR
STARTCHAR N
ENCODING 78
SWIDTH 754 0
DWIDTH 11 0
BBX 9 10 1 0
BITMAP
e380
6100
5100
5900
4900
4d00
4500
4700
4300
e100
ENDCHAR
STARTCHAR O
ENCODING 79
SWIDTH 685 0
DWIDTH 10 0
BBX 8 10 1 0
BITMAP
3c
66
42
81
81
81
81
42
66
3c
ENDCHAR
STARTCHAR P
ENCODING 80
SWIDTH 754 0
DWIDTH 11 0
BBX 9 10 1 0
BITMAP
ff80
4100
4100
4100
4100
4100
4100
4100
4100
e380
ENDCHAR
STARTCHAR Q
ENCODING 81
SWIDTH 685 0
DWIDTH 10 0
BBX 8 10 1 0
BITMAP
3c
66
42
a5
bd
a5
81
42
66
3c
ENDCHAR
STARTCHAR R
ENCODING 82
SWIDTH 548 0
DWIDTH 8 0
BBX 6 10 1 0
BITMAP
f8
4c
44
44
4c
78
40
40
40
e0
ENDCHAR
STARTCHAR S
ENCODING 83
SWIDTH 617 0
DWIDTH 9 0
BBX 8 10 1 0
BITMAP
fe
c2
60
30
18
10
20
40
c1
ff
ENDCHAR
STARTCHAR T
ENCODING 84
SWIDTH 617 0
DWIDTH 9 0
BBX 7 10 1 0
BITMAP
fe
92
92
10
10
10
10
10
10
38
ENDCHAR
STARTCHAR U
ENCODING 85
SWIDTH 617 0
DWIDTH 9 0
BBX 9 10 0 0
BITMAP
e380
4100
2200
2200
1400
0800
0800
0800
0800
1c00
ENDCHAR
STARTCHAR V
ENCODING 86
SWIDTH 480 0
DWIDTH 7 0
BBX 6 10 1 -3
BITMAP
38
c0
80
80
80
60
38
04
24
38
ENDCHAR
STARTCHAR W
ENCODING 87
SWIDTH 754 0
DWIDTH 11 0
BBX 10 10 0 0
BITMAP
0c00
3300
2100
4080
4080
4080
4080
2100
9240
f3c0
ENDCHAR
STARTCHAR X
ENCODING 88
SWIDTH 617 0
DWIDTH 9 0
BBX 9 10 0 0
BITMAP
7f00
4100
0000
2200
3e00
2200
0000
0000
8080
ff80
ENDCHAR
STARTCHAR Y
ENCODING 89
SWIDTH 754 0
DWIDTH 11 0
BBX 11 10 0 0
BITMAP
ce60
64c0
2480
2480
1f00
0400
0400
0400
0400
0e00
ENDCHAR
STARTCHAR Z
ENCODING 90
SWIDTH 617 0
DWIDTH 9 0
BBX 7 10 1 0
BITMAP
fe
82
04
08
10
10
20
40
82
fe
ENDCHAR
STARTCHAR a
ENCODING 97
SWIDTH 617 0
DWIDTH 9 0
BBX 8 7 1 0
BITMAP
76
d4
88
88
88
d5
66
ENDCHAR
STARTCHAR b
ENCODING 98
SWIDTH 548 0
DWIDTH 8 0
BBX 6 14 1 -3
BITMAP
78
cc
84
8c
98
8c
84
84
84
cc
b8
80
80
80
ENDCHAR
STARTCHAR c
ENCODING 99
SWIDTH 548 0
DWIDTH 8 0
BBX 8 10 0 -3
BITMAP
c3
a6
24
3c
18
38
28
64
45
c3
ENDCHAR
STARTCHAR d
ENCODING 100
SWIDTH 480 0
DWIDTH 7 0
BBX 5 11 1 0
BITMAP
70
98
80
40
70
98
88
88
88
d8
70
ENDCHAR
STARTCHAR e
ENCODING 101
SWIDTH 411 0
DWIDTH 6 0
BBX 5 7 1 0
BITMAP
78
c8
80
60
80
c8
70
ENDCHAR
STARTCHAR f
ENCODING 102
SWIDTH 617 0
DWIDTH 9 0
BBX 7 13 1 -3
BITMAP
10
10
10
38
54
92
92
92
54
38
10
10
10
ENDCHAR
STARTCHAR g
ENCODING 103
SWIDTH 411 0
DWIDTH 6 0
BBX 6 10 0 -3
BITMAP
c4
a4
24
28
28
18
18
10
30
30
ENDCHAR
STARTCHAR h
ENCODING 104
SWIDTH 548 0
DWIDTH 8 0
BBX 7 10 0 -3
BITMAP
6c
b2
22
22
22
22
22
02
02
02
ENDCHAR
STARTCHAR i
ENCODING 105
SWIDTH 342 0
DWIDTH 5 0
BBX 5 7 0 0
BITMAP
60
a0
20
20
20
28
30
ENDCHAR
STARTCHAR j
ENCODING 106
SWIDTH 617 0
DWIDTH 9 0
BBX 7 10 1 -3
BITMAP
18
54
d2
92
92
54
38
10
10
10
ENDCHAR
STARTCHAR k
ENCODING 107
SWIDTH 548 0
DWIDTH 8 0
BBX 7 7 0 0
BITMAP
46
ca
50
70
58
4c
46
ENDCHAR
STARTCHAR l
ENCODING 108
SWIDTH 548 0
DWIDTH 8 0
BBX 8 10 1 0
BITMAP
60
50
10
10
28
28
48
44
85
83
ENDCHAR
STARTCHAR m
ENCODING 109
SWIDTH 548 0
DWIDTH 8 0
BBX 7 9 1 -2
BITMAP
88
88
88
88
88
9a
f6
80
c0
ENDCHAR
STARTCHAR n
ENCODING 110
SWIDTH 548 0
DWIDTH 8 0
BBX 7 7 0 0
BITMAP
c6
42
22
22
14
14
08
ENDCHAR
STARTCHAR o
ENCODING 111
SWIDTH 548 0
DWIDTH 8 0
BBX 6 7 1 0
BITMAP
78
cc
84
84
84
cc
78
ENDCHAR
STARTCHAR p
ENCODING 112
SWIDTH 548 0
DWIDTH 8 0
BBX 8 7 0 0
BITMAP
7e
a4
24
24
24
25
66
ENDCHAR
STARTCHAR q
ENCODING 113
SWIDTH 480 0
DWIDTH 7 0
BBX 5 10 1 0
BITMAP
70
d8
88
88
f8
88
88
88
d8
70
ENDCHAR
STARTCHAR r
ENCODING 114
SWIDTH 548 0
DWIDTH 8 0
BBX 6 10 1 -3
BITMAP
78
cc
84
84
84
cc
b8
80
80
80
ENDCHAR
STARTCHAR s
ENCODING 115
SWIDTH 548 0
DWIDTH 8 0
BBX 7 7 1 0
BITMAP
7e
c8
84
84
84
cc
78
ENDCHAR
STARTCHAR t
ENCODING 116
SWIDTH 411 0
DWIDTH 6 0
BBX 5 7 0 0
BITMAP
78
a0
20
20
20
28
30
ENDCHAR
STARTCHAR u
ENCODING 117
SWIDTH 548 0
DWIDTH 8 0
BBX 7 7 0 0
BITMAP
64
a2
22
22
22
26
1c
ENDCHAR
STARTCHAR v
ENCODING 118
SWIDTH 754 0
DWIDTH 11 0
BBX 10 8 0 0
BITMAP
7fc0
a080
4440
4440
4440
4440
64c0
3b80
ENDCHAR
STARTCHAR w
ENCODING 119
SWIDTH 754 0
DWIDTH 11 0
BBX 9 7 1 0
BITMAP
6300
8880
8880
8880
8880
c980
7700
ENDCHAR
STARTCHAR x
ENCODING 120
SWIDTH 480 0
DWIDTH 7 0
BBX 6 15 1 -3
BITMAP
20
40
38
20
40
78
20
40
80
80
c0
78
04
24
38
ENDCHAR
STARTCHAR y
ENCODING 121
SWIDTH 617 0
DWIDTH 9 0
BBX 9 10 0 -3
BITMAP
8880
4900
4900
4900
6b00
3e00
0800
0800
0800
0800
ENDCHAR
STARTCHAR z
ENCODING 122
SWIDTH 480 0
DWIDTH 7 0
BBX 6 14 1 -3
BITMAP
20
44
3c
10
20
40
40
80
80
c0
78
04
24
38
ENDCHAR
STARTCHAR exclamdown
ENCODING 161
SWIDTH 617 0
DWIDTH 9 0
BBX 8 10 0 0
BITMAP
c6
69
2b
10
10
10
10
10
10
38
ENDCHAR
STARTCHAR cent
ENCODING 162
SWIDTH 274 0
DWIDTH 4 0
BBX 4 3 0 7
BITMAP
30
60
80
ENDCHAR
STARTCHAR sterling
ENCODING 163
SWIDTH 548 0
DWIDTH 8 0
BBX 7 9 0 0
BITMAP
02
0c
30
c0
30
0c
02
00
fe
ENDCHAR
STARTCHAR currency
ENCODING 164
SWIDTH 274 0
DWIDTH 4 0
BBX 5 10 -1 0
BITMAP
08
08
10
10
20
20
40
40
80
80
ENDCHAR
STARTCHAR yen
ENCODING 165
SWIDTH 685 0
DWIDTH 10 0
BBX 9 4 0 2
BITMAP
7700
9880
8c80
7700
ENDCHAR
STARTCHAR degree
ENCODING 176
SWIDTH 411 0
DWIDTH 6 0
BBX 4 4 1 6
BITMAP
60
90
90
60
ENDCHAR
STARTCHAR plusminus
ENCODING 177
SWIDTH 548 0
DWIDTH 8 0
BBX 7 9 0 0
BITMAP
10
10
10
fe
10
10
10
00
fe
ENDCHAR
STARTCHAR twosuperior
ENCODING 178
SWIDTH 411 0
DWIDTH 6 0
BBX 7 3 -1 7
BITMAP
36
6c
90
ENDCHAR
STARTCHAR threesuperior
ENCODING 179
SWIDTH 548 0
DWIDTH 8 0
BBX 7 9 0 0
BITMAP
80
60
18
06
18
60
80
00
fe
ENDCHAR
STARTCHAR acute
ENCODING 180
SWIDTH 548 0
DWIDTH 8 0
BBX 7 7 0 0
BITMAP
82
44
28
10
28
44
82
ENDCHAR
STARTCHAR mu
ENCODING 181
SWIDTH 685 0
DWIDTH 10 0
BBX 8 4 0 2
BITMAP
77
88
88
77
ENDCHAR
STARTCHAR paragraph
ENCODING 182
SWIDTH 480 0
DWIDTH 7 0
BBX 6 11 0 0
BITMAP
70
88
04
04
04
74
cc
84
84
c8
70
ENDCHAR
STARTCHAR periodcentered
ENCODING 183
SWIDTH 480 0
DWIDTH 7 0
BBX 5 5 1 1
BITMAP
70
f8
f8
f8
70
ENDCHAR
STARTCHAR cedilla
ENCODING 184
SWIDTH 548 0
DWIDTH 8 0
BBX 7 7 0 0
BITMAP
10
10
00
fe
00
10
10
ENDCHAR
STARTCHAR onesuperior
ENCODING 185
SWIDTH 548 0
DWIDTH 8 0
BBX 7 7 0 0
BITMAP
04
08
fe
10
fe
20
40
ENDCHAR
STARTCHAR masculine
ENCODING 186
SWIDTH 548 0
DWIDTH 8 0
BBX 7 5 0 1
BITMAP
fe
00
fe
00
fe
ENDCHAR
STARTCHAR guillemotright
ENCODING 187
SWIDTH 548 0
DWIDTH 8 0
BBX 7 5 0 1
BITMAP
72
9c
00
72
9c
ENDCHAR
STARTCHAR onequarter
ENCODING 188
SWIDTH 891 0
DWIDTH 13 0
BBX 9 2 2 0
BITMAP
8880
8880
ENDCHAR
STARTCHAR Agrave
ENCODING 192
SWIDTH 822 0
DWIDTH 12 0
BBX 8 10 2 0
BITMAP
88
ce
66
24
74
9c
8c
46
63
e1
ENDCHAR
STARTCHAR Aacute
ENCODING 193
SWIDTH 685 0
DWIDTH 10 0
BBX 8 12 1 -1
BITMAP
3f
61
42
46
24
06
03
01
61
f1
1a
0c
ENDCHAR
STARTCHAR Acircumflex
ENCODING 194
SWIDTH 822 0
DWIDTH 12 0
BBX 10 11 1 0
BITMAP
7300
9d80
8980
8b00
ce00
6a00
2900
0900
0900
6900
b0c0
ENDCHAR
STARTCHAR Atilde
ENCODING 195
SWIDTH 822 0
DWIDTH 12 0
BBX 9 12 1 -3
BITMAP
1000
2300
4580
8880
9080
d480
6900
6b00
b600
9000
9000
6000
ENDCHAR
STARTCHAR Adiaeresis
ENCODING 196
SWIDTH 754 0
DWIDTH 11 0
BBX 9 9 1 0
BITMAP
1c00
6300
6300
9480
8880
9480
6300
6300
1c00
ENDCHAR
STARTCHAR Aring
ENCODING 197
SWIDTH 754 0
DWIDTH 11 0
BBX 9 9 1 0
BITMAP
1c00
6300
4900
8880
be80
8880
4900
6300
1c00
ENDCHAR
STARTCHAR AE
ENCODING 198
SWIDTH 822 0
DWIDTH 12 0
BBX 11 11 0 0
BITMAP
1f20
60c0
40c0
8120
8220
8420
8820
9020
6040
60c0
9f00
ENDCHAR
STARTCHAR Ccedilla
ENCODING 199
SWIDTH 685 0
DWIDTH 10 0
BBX 10 7 0 0
BITMAP
1e00
6180
4080
8040
8040
8040
8040
ENDCHAR
STARTCHAR Egrave
ENCODING 200
SWIDTH 685 0
DWIDTH 10 0
BBX 10 7 0 0
BITMAP
8040
8040
8040
8040
4080
6180
1e00
ENDCHAR
STARTCHAR Eacute
ENCODING 201
SWIDTH 685 0
DWIDTH 10 0
BBX 9 7 0 0
BITMAP
fe00
0100
0080
0080
0080
0100
fe00
ENDCHAR
STARTCHAR Ecircumflex
ENCODING 202
SWIDTH 685 0
DWIDTH 10 0
BBX 9 9 1 -2
BITMAP
fe00
0100
0080
0080
0080
0100
fe00
0000
ff80
ENDCHAR
STARTCHAR Ediaeresis
ENCODING 203
SWIDTH 685 0
DWIDTH 10 0
BBX 9 9 0 -1
BITMAP
0100
3f80
4200
8200
8400
8400
4800
3f80
1000
ENDCHAR
STARTCHAR Igrave
ENCODING 204
SWIDTH 685 0
DWIDTH 10 0
BBX 9 7 1 0
BITMAP
3f80
4000
8000
8000
8000
4000
3f80
ENDCHAR
STARTCHAR Iacute
ENCODING 205
SWIDTH 685 0
DWIDTH 10 0
BBX 9 9 0 -2
BITMAP
3f80
4000
8000
8000
8000
4000
3f80
0000
ff80
ENDCHAR
STARTCHAR Icircumflex
ENCODING 206
SWIDTH 685 0
DWIDTH 10 0
BBX 7 7 1 0
BITMAP
3e
40
80
fe
80
40
3e
ENDCHAR
STARTCHAR Idiaeresis
ENCODING 207
SWIDTH 685 0
DWIDTH 10 0
BBX 7 9 0 -1
BITMAP
04
3e
48
90
fe
90
60
3e
40
ENDCHAR
STARTCHAR ETH
ENCODING 208
SWIDTH 754 0
DWIDTH 11 0
BBX 11 10 0 0
BITMAP
0040
0080
0100
0200
0400
0800
1000
2000
4000
ffe0
ENDCHAR
STARTCHAR Ntilde
ENCODING 209
SWIDTH 685 0
DWIDTH 10 0
BBX 9 11 0 0
BITMAP
ff80
8080
4100
4100
2200
2200
2200
1400
1400
0800
0800
ENDCHAR
STARTCHAR Otilde
ENCODING 213
SWIDTH 822 0
DWIDTH 12 0
BBX 10 12 1 -1
BITMAP
ffc0
4080
4080
4080
4080
4080
4080
4080
4080
4080
4080
e1c0
ENDCHAR
STARTCHAR Odiaeresis
ENCODING 214
SWIDTH 548 0
DWIDTH 8 0
BBX 8 14 0 0
BITMAP
01
01
01
02
02
02
02
64
a4
24
14
14
08
08
ENDCHAR
STARTCHAR multiply
ENCODING 215
SWIDTH 274 0
DWIDTH 4 0
BBX 1 2 1 3
BITMAP
80
80
ENDCHAR
STARTCHAR Ooblique
ENCODING 216
SWIDTH 685 0
DWIDTH 10 0
BBX 9 5 0 0
BITMAP
ff80
0080
0080
0080
0080
ENDCHAR
STARTCHAR Ugrave
ENCODING 217
SWIDTH 617 0
DWIDTH 9 0
BBX 8 7 0 0
BITMAP
18
18
24
24
42
42
81
ENDCHAR
STARTCHAR Uacute
ENCODING 218
SWIDTH 617 0
DWIDTH 9 0
BBX 8 7 0 0
BITMAP
81
42
42
24
24
18
18
ENDCHAR
STARTCHAR Ucircumflex
ENCODING 219
SWIDTH 1028 0
DWIDTH 15 0
BBX 13 7 1 0
BITMAP
1040
2020
7ff0
c018
7ff0
2020
1040
ENDCHAR
STARTCHAR Udiaeresis
ENCODING 220
SWIDTH 960 0
DWIDTH 14 0
BBX 13 7 0 0
BITMAP
1000
2000
7ff8
c000
7ff8
2000
1000
ENDCHAR
STARTCHAR Yacute
ENCODING 221
SWIDTH 617 0
DWIDTH 9 0
BBX 7 13 1 0
BITMAP
10
38
6c
aa
28
28
28
28
28
28
28
28
28
ENDCHAR
STARTCHAR THORN
ENCODING 222
SWIDTH 960 0
DWIDTH 14 0
BBX 13 7 1 0
BITMAP
0040
0020
fff0
0018
fff0
0020
0040
ENDCHAR
STARTCHAR ssharp
ENCODING 223
SWIDTH 617 0
DWIDTH 9 0
BBX 7 13 1 0
BITMAP
28
28
28
28
28
28
28
28
28
aa
6c
38
10
ENDCHAR
STARTCHAR aring
ENCODING 229
SWIDTH 685 0
DWIDTH 10 0
BBX 9 12 0 -1
BITMAP
ff00
8100
4000
2000
1000
0800
0800
1000
2000
4000
8080
ff80
ENDCHAR
STARTCHAR oint
ENCODING 156
SWIDTH 477 0
DWIDTH 7 0
BBX 7 16 1 -4
BITMAP
04
0a
08
10
10
38
54
54
54
54
38
10
10
20
a0
40
ENDCHAR
STARTCHAR ointlarge
ENCODING 157
SWIDTH 545 0
DWIDTH 12 0
BBX 11 32 1 -12
BITMAP
0040
0060
0080
0080
0080
0080
0180
0100
0100
0100
0300
0300
0f00
1280
2640
2640
2640
2640
1480
0f00
0c00
0c00
0800
0800
0800
1800
1000
1000
1000
2000
a000
4000
ENDCHAR
STARTCHAR dotlessi
ENCODING 158
SWIDTH 341 0
DWIDTH 5 0
BBX 2 6 1 0
BITMAP
40
c0
40
40
c0
40
ENDCHAR
STARTCHAR dotlessj
ENCODING 159
SWIDTH 409 0
DWIDTH 6 0
BBX 4 9 0 -3
BITMAP
30
30
10
10
20
20
20
20
c0
ENDCHAR
ENDFONT
